<?xml version="1.0" encoding="utf-8" standalone="no"?>
<!DOCTYPE svg PUBLIC "-//W3C//DTD SVG 1.1//EN"
  "http://www.w3.org/Graphics/SVG/1.1/DTD/svg11.dtd">
<svg xmlns:xlink="http://www.w3.org/1999/xlink" width="144pt" height="144pt" viewBox="0 0 144 144" xmlns="http://www.w3.org/2000/svg" version="1.1">
 <metadata>
  <rdf:RDF xmlns:dc="http://purl.org/dc/elements/1.1/" xmlns:cc="http://creativecommons.org/ns#" xmlns:rdf="http://www.w3.org/1999/02/22-rdf-syntax-ns#">
   <cc:Work>
    <dc:type rdf:resource="http://purl.org/dc/dcmitype/StillImage"/>
    <dc:date>2026-05-21T17:07:33.220647</dc:date>
    <dc:format>image/svg+xml</dc:format>
    <dc:creator>
     <cc:Agent>
      <dc:title>Matplotlib v3.10.9, https://matplotlib.org/</dc:title>
     </cc:Agent>
    </dc:creator>
   </cc:Work>
  </rdf:RDF>
 </metadata>
 <defs>
  <style type="text/css">*{stroke-linejoin: round; stroke-linecap: butt}</style>
 </defs>
 <g id="figure_1">
  <g id="patch_1">
   <path d="M 0 144 
L 144 144 
L 144 0 
L 0 0 
z
" style="fill: #ffffff"/>
  </g>
  <g id="axes_1">
   <g id="patch_2">
    <path d="M 18 128.16 
L 129.6 128.16 
L 129.6 17.28 
L 18 17.28 
z
" style="fill: #ffffff; stroke: #000000; stroke-width: 1.5; stroke-linejoin: miter"/>
   </g>
   <g id="matplotlib.axis_1">
    <g id="xtick_1">
     <g id="line2d_1">
      <defs>
       <path id="m03bbfdddd0" d="M 0 0 
L 0 3.5 
" style="stroke: #000000; stroke-width: 0.8"/>
      </defs>
      <g>
       <use xlink:href="#m03bbfdddd0" x="23.072727" y="128.16" style="stroke: #000000; stroke-width: 0.8"/>
      </g>
     </g>
     <g id="text_1">
      <!-- 0.9917 -->
      <g transform="translate(19.573665 136.679688) scale(0.02 -0.02)">
       <defs>
        <path id="DejaVuSans-30" d="M 2034 4250 
Q 1547 4250 1301 3770 
Q 1056 3291 1056 2328 
Q 1056 1369 1301 889 
Q 1547 409 2034 409 
Q 2525 409 2770 889 
Q 3016 1369 3016 2328 
Q 3016 3291 2770 3770 
Q 2525 4250 2034 4250 
z
M 2034 4750 
Q 2819 4750 3233 4129 
Q 3647 3509 3647 2328 
Q 3647 1150 3233 529 
Q 2819 -91 2034 -91 
Q 1250 -91 836 529 
Q 422 1150 422 2328 
Q 422 3509 836 4129 
Q 1250 4750 2034 4750 
z
" transform="scale(0.015625)"/>
        <path id="DejaVuSans-2e" d="M 684 794 
L 1344 794 
L 1344 0 
L 684 0 
L 684 794 
z
" transform="scale(0.015625)"/>
        <path id="DejaVuSans-39" d="M 703 97 
L 703 672 
Q 941 559 1184 500 
Q 1428 441 1663 441 
Q 2288 441 2617 861 
Q 2947 1281 2994 2138 
Q 2813 1869 2534 1725 
Q 2256 1581 1919 1581 
Q 1219 1581 811 2004 
Q 403 2428 403 3163 
Q 403 3881 828 4315 
Q 1253 4750 1959 4750 
Q 2769 4750 3195 4129 
Q 3622 3509 3622 2328 
Q 3622 1225 3098 567 
Q 2575 -91 1691 -91 
Q 1453 -91 1209 -44 
Q 966 3 703 97 
z
M 1959 2075 
Q 2384 2075 2632 2365 
Q 2881 2656 2881 3163 
Q 2881 3666 2632 3958 
Q 2384 4250 1959 4250 
Q 1534 4250 1286 3958 
Q 1038 3666 1038 3163 
Q 1038 2656 1286 2365 
Q 1534 2075 1959 2075 
z
" transform="scale(0.015625)"/>
        <path id="DejaVuSans-31" d="M 794 531 
L 1825 531 
L 1825 4091 
L 703 3866 
L 703 4441 
L 1819 4666 
L 2450 4666 
L 2450 531 
L 3481 531 
L 3481 0 
L 794 0 
L 794 531 
z
" transform="scale(0.015625)"/>
        <path id="DejaVuSans-37" d="M 525 4666 
L 3525 4666 
L 3525 4397 
L 1831 0 
L 1172 0 
L 2766 4134 
L 525 4134 
L 525 4666 
z
" transform="scale(0.015625)"/>
       </defs>
       <use xlink:href="#DejaVuSans-30"/>
       <use xlink:href="#DejaVuSans-2e" transform="translate(63.623047 0)"/>
       <use xlink:href="#DejaVuSans-39" transform="translate(95.410156 0)"/>
       <use xlink:href="#DejaVuSans-39" transform="translate(159.033203 0)"/>
       <use xlink:href="#DejaVuSans-31" transform="translate(222.65625 0)"/>
       <use xlink:href="#DejaVuSans-37" transform="translate(286.279297 0)"/>
      </g>
     </g>
    </g>
    <g id="xtick_2">
     <g id="line2d_2">
      <g>
       <use xlink:href="#m03bbfdddd0" x="124.527273" y="128.16" style="stroke: #000000; stroke-width: 0.8"/>
      </g>
     </g>
     <g id="text_2">
      <!-- 1.4045 -->
      <g transform="translate(121.02821 136.679688) scale(0.02 -0.02)">
       <defs>
        <path id="DejaVuSans-34" d="M 2419 4116 
L 825 1625 
L 2419 1625 
L 2419 4116 
z
M 2253 4666 
L 3047 4666 
L 3047 1625 
L 3713 1625 
L 3713 1100 
L 3047 1100 
L 3047 0 
L 2419 0 
L 2419 1100 
L 313 1100 
L 313 1709 
L 2253 4666 
z
" transform="scale(0.015625)"/>
        <path id="DejaVuSans-35" d="M 691 4666 
L 3169 4666 
L 3169 4134 
L 1269 4134 
L 1269 2991 
Q 1406 3038 1543 3061 
Q 1681 3084 1819 3084 
Q 2600 3084 3056 2656 
Q 3513 2228 3513 1497 
Q 3513 744 3044 326 
Q 2575 -91 1722 -91 
Q 1428 -91 1123 -41 
Q 819 9 494 109 
L 494 744 
Q 775 591 1075 516 
Q 1375 441 1709 441 
Q 2250 441 2565 725 
Q 2881 1009 2881 1497 
Q 2881 1984 2565 2268 
Q 2250 2553 1709 2553 
Q 1456 2553 1204 2497 
Q 953 2441 691 2322 
L 691 4666 
z
" transform="scale(0.015625)"/>
       </defs>
       <use xlink:href="#DejaVuSans-31"/>
       <use xlink:href="#DejaVuSans-2e" transform="translate(63.623047 0)"/>
       <use xlink:href="#DejaVuSans-34" transform="translate(95.410156 0)"/>
       <use xlink:href="#DejaVuSans-30" transform="translate(159.033203 0)"/>
       <use xlink:href="#DejaVuSans-34" transform="translate(222.65625 0)"/>
       <use xlink:href="#DejaVuSans-35" transform="translate(286.279297 0)"/>
      </g>
     </g>
    </g>
   </g>
   <g id="matplotlib.axis_2">
    <g id="ytick_1">
     <g id="line2d_3">
      <defs>
       <path id="m1589406883" d="M 0 0 
L -3.5 0 
" style="stroke: #000000; stroke-width: 0.8"/>
      </defs>
      <g>
       <use xlink:href="#m1589406883" x="18" y="123.12" style="stroke: #000000; stroke-width: 0.8"/>
      </g>
     </g>
     <g id="text_3">
      <!-- 4.982 -->
      <g transform="translate(5.274375 123.879844) scale(0.02 -0.02)">
       <defs>
        <path id="DejaVuSans-38" d="M 2034 2216 
Q 1584 2216 1326 1975 
Q 1069 1734 1069 1313 
Q 1069 891 1326 650 
Q 1584 409 2034 409 
Q 2484 409 2743 651 
Q 3003 894 3003 1313 
Q 3003 1734 2745 1975 
Q 2488 2216 2034 2216 
z
M 1403 2484 
Q 997 2584 770 2862 
Q 544 3141 544 3541 
Q 544 4100 942 4425 
Q 1341 4750 2034 4750 
Q 2731 4750 3128 4425 
Q 3525 4100 3525 3541 
Q 3525 3141 3298 2862 
Q 3072 2584 2669 2484 
Q 3125 2378 3379 2068 
Q 3634 1759 3634 1313 
Q 3634 634 3220 271 
Q 2806 -91 2034 -91 
Q 1263 -91 848 271 
Q 434 634 434 1313 
Q 434 1759 690 2068 
Q 947 2378 1403 2484 
z
M 1172 3481 
Q 1172 3119 1398 2916 
Q 1625 2713 2034 2713 
Q 2441 2713 2670 2916 
Q 2900 3119 2900 3481 
Q 2900 3844 2670 4047 
Q 2441 4250 2034 4250 
Q 1625 4250 1398 4047 
Q 1172 3844 1172 3481 
z
" transform="scale(0.015625)"/>
        <path id="DejaVuSans-32" d="M 1228 531 
L 3431 531 
L 3431 0 
L 469 0 
L 469 531 
Q 828 903 1448 1529 
Q 2069 2156 2228 2338 
Q 2531 2678 2651 2914 
Q 2772 3150 2772 3378 
Q 2772 3750 2511 3984 
Q 2250 4219 1831 4219 
Q 1534 4219 1204 4116 
Q 875 4013 500 3803 
L 500 4441 
Q 881 4594 1212 4672 
Q 1544 4750 1819 4750 
Q 2544 4750 2975 4387 
Q 3406 4025 3406 3419 
Q 3406 3131 3298 2873 
Q 3191 2616 2906 2266 
Q 2828 2175 2409 1742 
Q 1991 1309 1228 531 
z
" transform="scale(0.015625)"/>
       </defs>
       <use xlink:href="#DejaVuSans-34"/>
       <use xlink:href="#DejaVuSans-2e" transform="translate(63.623047 0)"/>
       <use xlink:href="#DejaVuSans-39" transform="translate(95.410156 0)"/>
       <use xlink:href="#DejaVuSans-38" transform="translate(159.033203 0)"/>
       <use xlink:href="#DejaVuSans-32" transform="translate(222.65625 0)"/>
      </g>
     </g>
    </g>
    <g id="ytick_2">
     <g id="line2d_4">
      <g>
       <use xlink:href="#m1589406883" x="18" y="22.32" style="stroke: #000000; stroke-width: 0.8"/>
      </g>
     </g>
     <g id="text_4">
      <!-- 7.217 -->
      <g transform="translate(5.274375 23.079844) scale(0.02 -0.02)">
       <use xlink:href="#DejaVuSans-37"/>
       <use xlink:href="#DejaVuSans-2e" transform="translate(63.623047 0)"/>
       <use xlink:href="#DejaVuSans-32" transform="translate(95.410156 0)"/>
       <use xlink:href="#DejaVuSans-31" transform="translate(159.033203 0)"/>
       <use xlink:href="#DejaVuSans-37" transform="translate(222.65625 0)"/>
      </g>
     </g>
    </g>
    <g id="text_5">
     <!-- 1e−8+9.75865e−2 -->
     <g transform="translate(18 14.28) scale(0.1 -0.1)">
      <defs>
       <path id="DejaVuSans-65" d="M 3597 1894 
L 3597 1613 
L 953 1613 
Q 991 1019 1311 708 
Q 1631 397 2203 397 
Q 2534 397 2845 478 
Q 3156 559 3463 722 
L 3463 178 
Q 3153 47 2828 -22 
Q 2503 -91 2169 -91 
Q 1331 -91 842 396 
Q 353 884 353 1716 
Q 353 2575 817 3079 
Q 1281 3584 2069 3584 
Q 2775 3584 3186 3129 
Q 3597 2675 3597 1894 
z
M 3022 2063 
Q 3016 2534 2758 2815 
Q 2500 3097 2075 3097 
Q 1594 3097 1305 2825 
Q 1016 2553 972 2059 
L 3022 2063 
z
" transform="scale(0.015625)"/>
       <path id="DejaVuSans-2212" d="M 678 2272 
L 4684 2272 
L 4684 1741 
L 678 1741 
L 678 2272 
z
" transform="scale(0.015625)"/>
       <path id="DejaVuSans-2b" d="M 2944 4013 
L 2944 2272 
L 4684 2272 
L 4684 1741 
L 2944 1741 
L 2944 0 
L 2419 0 
L 2419 1741 
L 678 1741 
L 678 2272 
L 2419 2272 
L 2419 4013 
L 2944 4013 
z
" transform="scale(0.015625)"/>
       <path id="DejaVuSans-36" d="M 2113 2584 
Q 1688 2584 1439 2293 
Q 1191 2003 1191 1497 
Q 1191 994 1439 701 
Q 1688 409 2113 409 
Q 2538 409 2786 701 
Q 3034 994 3034 1497 
Q 3034 2003 2786 2293 
Q 2538 2584 2113 2584 
z
M 3366 4563 
L 3366 3988 
Q 3128 4100 2886 4159 
Q 2644 4219 2406 4219 
Q 1781 4219 1451 3797 
Q 1122 3375 1075 2522 
Q 1259 2794 1537 2939 
Q 1816 3084 2150 3084 
Q 2853 3084 3261 2657 
Q 3669 2231 3669 1497 
Q 3669 778 3244 343 
Q 2819 -91 2113 -91 
Q 1303 -91 875 529 
Q 447 1150 447 2328 
Q 447 3434 972 4092 
Q 1497 4750 2381 4750 
Q 2619 4750 2861 4703 
Q 3103 4656 3366 4563 
z
" transform="scale(0.015625)"/>
      </defs>
      <use xlink:href="#DejaVuSans-31"/>
      <use xlink:href="#DejaVuSans-65" transform="translate(63.623047 0)"/>
      <use xlink:href="#DejaVuSans-2212" transform="translate(125.146484 0)"/>
      <use xlink:href="#DejaVuSans-38" transform="translate(208.935547 0)"/>
      <use xlink:href="#DejaVuSans-2b" transform="translate(272.558594 0)"/>
      <use xlink:href="#DejaVuSans-39" transform="translate(356.347656 0)"/>
      <use xlink:href="#DejaVuSans-2e" transform="translate(419.970703 0)"/>
      <use xlink:href="#DejaVuSans-37" transform="translate(451.757812 0)"/>
      <use xlink:href="#DejaVuSans-35" transform="translate(515.380859 0)"/>
      <use xlink:href="#DejaVuSans-38" transform="translate(579.003906 0)"/>
      <use xlink:href="#DejaVuSans-36" transform="translate(642.626953 0)"/>
      <use xlink:href="#DejaVuSans-35" transform="translate(706.25 0)"/>
      <use xlink:href="#DejaVuSans-65" transform="translate(769.873047 0)"/>
      <use xlink:href="#DejaVuSans-2212" transform="translate(831.396484 0)"/>
      <use xlink:href="#DejaVuSans-32" transform="translate(915.185547 0)"/>
     </g>
    </g>
   </g>
   <g id="line2d_5">
    <path d="M 23.072727 55.92 
L 23.543898 22.32 
L 24.033965 55.92 
L 24.493023 123.12 
L 24.994134 22.32 
L 25.11378 55.92 
L 25.11378 55.92 
L 25.236443 55.92 
L 25.44014 123.12 
L 25.750358 123.12 
L 25.856937 22.32 
L 25.951359 55.92 
L 26.022256 22.32 
L 26.171403 55.92 
L 26.171403 55.92 
L 26.219039 123.12 
L 26.489325 55.92 
L 26.565144 55.92 
L 26.617438 123.12 
L 26.617438 123.12 
L 26.809973 22.32 
L 26.92455 55.92 
L 26.944764 123.12 
L 26.944764 123.12 
L 27.073697 123.12 
L 27.073697 123.12 
L 27.133608 55.92 
L 27.172162 123.12 
L 27.322832 55.92 
L 27.606449 123.12 
L 27.606449 123.12 
L 27.641868 22.32 
L 27.702306 123.12 
L 27.789579 22.32 
L 27.820546 123.12 
L 27.852273 55.92 
L 28.089163 55.92 
L 28.089163 55.92 
L 28.218154 123.12 
L 28.129181 22.32 
L 28.218154 123.12 
L 28.298689 22.32 
L 28.298689 22.32 
L 28.354586 123.12 
L 28.376676 55.92 
L 28.456977 22.32 
L 28.575919 55.92 
L 28.621533 22.32 
L 28.728318 123.12 
L 28.75448 55.92 
L 28.79444 22.32 
L 28.798805 55.92 
L 28.802613 123.12 
L 28.802613 123.12 
L 28.998781 22.32 
L 29.171453 123.12 
L 29.171453 123.12 
L 29.268687 22.32 
L 29.289253 55.92 
L 29.421467 123.12 
L 29.50543 55.92 
L 29.593494 123.12 
L 29.730395 22.32 
L 29.835188 22.32 
L 29.835188 22.32 
L 29.896476 123.12 
L 29.919942 55.92 
L 30.107408 55.92 
L 30.107408 55.92 
L 30.279963 123.12 
L 30.279963 123.12 
L 30.327306 22.32 
L 30.382998 55.92 
L 30.470388 22.32 
L 30.609897 123.12 
L 30.609897 123.12 
L 30.696145 22.32 
L 30.719875 55.92 
L 30.890877 22.32 
L 30.890877 22.32 
L 30.898934 55.92 
L 30.898934 55.92 
L 31.045561 123.12 
L 31.045561 123.12 
L 31.146164 22.32 
L 31.215919 55.92 
L 31.354226 55.92 
L 31.354255 22.32 
L 31.417301 123.12 
L 31.41733 55.92 
L 31.68334 55.92 
L 31.748788 123.12 
L 31.748788 123.12 
L 31.855396 22.32 
L 31.855396 22.32 
L 31.969622 123.12 
L 31.969622 123.12 
L 32.077755 22.32 
L 32.178358 123.12 
L 32.186327 22.32 
L 32.205105 55.92 
L 32.395853 22.32 
L 32.395853 22.32 
L 32.552002 123.12 
L 32.552002 123.12 
L 32.589706 55.92 
L 32.887209 123.12 
L 33.062957 55.92 
L 33.131891 22.32 
L 33.131891 22.32 
L 33.427314 55.92 
L 33.427314 55.92 
L 33.497948 22.32 
L 33.432588 123.12 
L 33.506209 55.92 
L 33.550417 55.92 
L 33.605142 123.12 
L 33.605172 55.92 
L 33.827471 55.92 
L 33.827471 55.92 
L 33.829669 22.32 
L 33.841006 123.12 
L 34.032926 55.92 
L 34.082847 123.12 
L 34.082847 123.12 
L 34.218957 22.32 
L 34.218957 22.32 
L 34.399275 55.92 
L 34.454235 123.12 
L 34.454264 55.92 
L 34.59137 55.92 
L 34.675685 22.32 
L 34.710401 55.92 
L 34.71043 22.32 
L 34.839421 22.32 
L 34.839421 22.32 
L 34.844138 123.12 
L 35.124942 22.32 
L 35.238934 22.32 
L 35.238934 22.32 
L 35.365318 123.12 
L 35.365318 123.12 
L 35.498996 22.32 
L 35.515519 55.92 
L 35.682772 55.92 
L 35.812642 123.12 
L 35.812642 123.12 
L 36.095174 22.32 
L 36.095174 22.32 
L 36.179079 123.12 
L 36.181071 55.92 
L 36.34929 55.92 
L 36.507343 22.32 
L 36.515311 123.12 
L 36.610671 55.92 
L 36.73474 22.32 
L 36.73474 22.32 
L 36.881133 123.12 
L 36.881133 123.12 
L 36.945321 123.12 
L 36.945321 123.12 
L 37.061569 22.32 
L 37.189417 55.92 
L 37.295616 22.32 
L 37.259435 123.12 
L 37.295646 123.12 
L 37.341787 123.12 
L 37.407762 55.92 
L 37.44075 123.12 
L 37.654583 22.32 
L 37.654612 123.12 
L 37.6547 55.92 
L 37.805634 22.32 
L 37.805634 22.32 
L 37.935299 55.92 
L 38.08052 55.92 
L 38.091067 22.32 
L 38.162316 55.92 
L 38.202979 55.92 
L 38.202979 55.92 
L 38.306072 123.12 
L 38.306101 55.92 
L 38.372955 55.92 
L 38.372985 22.32 
L 38.4452 55.92 
L 38.48598 55.92 
L 38.486009 123.12 
L 38.567629 22.32 
L 38.599679 22.32 
L 38.599679 22.32 
L 38.802291 123.12 
L 38.895746 123.12 
L 38.976926 55.92 
L 39.074746 55.92 
L 39.074746 55.92 
L 39.098066 123.12 
L 39.110165 22.32 
L 39.217448 55.92 
L 39.390882 22.32 
L 39.390882 22.32 
L 39.489786 123.12 
L 39.489786 123.12 
L 39.662546 55.92 
L 39.681764 123.12 
L 39.705113 55.92 
L 39.828098 55.92 
L 39.864074 123.12 
L 39.89882 55.92 
L 40.009413 55.92 
L 40.009413 55.92 
L 40.107614 22.32 
L 40.178833 55.92 
L 40.178833 55.92 
L 40.411914 55.92 
L 40.508708 22.32 
L 40.516237 55.92 
L 40.536598 55.92 
L 40.536598 55.92 
L 40.561471 22.32 
L 40.633481 55.92 
L 40.63351 123.12 
L 40.649916 22.32 
L 40.735695 55.92 
L 40.929021 55.92 
L 41.068735 22.32 
L 41.149739 55.92 
L 41.149739 55.92 
L 41.245303 22.32 
L 41.245303 22.32 
L 41.370544 123.12 
L 41.370544 123.12 
L 41.488403 22.32 
L 41.509994 22.32 
L 41.510024 55.92 
L 41.656798 22.32 
L 41.743749 123.12 
L 41.743749 123.12 
L 41.769207 123.12 
L 41.769207 123.12 
L 41.815378 55.92 
L 41.875406 123.12 
L 41.959896 22.32 
L 42.0738 55.92 
L 42.0738 55.92 
L 42.098848 22.32 
L 42.107256 123.12 
L 42.107256 123.12 
L 42.256638 22.32 
L 42.287926 55.92 
L 42.443841 55.92 
L 42.443841 55.92 
L 42.597616 22.32 
L 42.696755 55.92 
L 42.714977 22.32 
L 42.807114 123.12 
L 42.901828 22.32 
L 42.901828 22.32 
L 42.984121 123.12 
L 43.015029 22.32 
L 43.042216 123.12 
L 43.229682 22.32 
L 43.229712 55.92 
L 43.35967 55.92 
L 43.35967 55.92 
L 43.369455 123.12 
L 43.43335 55.92 
L 43.580505 22.32 
L 43.580505 22.32 
L 43.715824 123.12 
L 43.715824 123.12 
L 43.739378 55.92 
L 43.822257 123.12 
L 43.958426 55.92 
L 43.958426 55.92 
L 44.013825 55.92 
L 44.013825 55.92 
L 44.109184 123.12 
L 44.109213 55.92 
L 44.168919 22.32 
L 44.315869 22.32 
L 44.315898 123.12 
L 44.529145 123.12 
L 44.596937 22.32 
L 44.770751 22.32 
L 44.77453 123.12 
L 44.873874 55.92 
L 44.903112 55.92 
L 44.903112 55.92 
L 44.942808 123.12 
L 44.942867 55.92 
L 45.061165 55.92 
L 45.216024 123.12 
L 45.216024 123.12 
L 45.355943 55.92 
L 45.355943 55.92 
L 45.366256 123.12 
L 45.442894 22.32 
L 45.586124 55.92 
L 45.596026 123.12 
L 45.635517 22.32 
L 45.658866 55.92 
L 45.845454 22.32 
L 45.845454 22.32 
L 45.854799 123.12 
L 45.854799 123.12 
L 46.054072 55.92 
L 46.111932 123.12 
L 46.130242 22.32 
L 46.224664 55.92 
L 46.28185 123.12 
L 46.28185 123.12 
L 46.421124 22.32 
L 46.421124 22.32 
L 46.552079 123.12 
L 46.584363 22.32 
L 46.584363 22.32 
L 46.695542 22.32 
L 46.813401 123.12 
L 46.887022 22.32 
L 46.889014 123.12 
L 47.017595 22.32 
L 47.030222 55.92 
L 47.162758 123.12 
L 47.162758 123.12 
L 47.225979 22.32 
L 47.311349 123.12 
L 47.311378 55.92 
L 47.49486 123.12 
L 47.49486 123.12 
L 47.606772 22.32 
L 47.610404 123.12 
L 47.642601 22.32 
L 47.809677 123.12 
L 47.809677 123.12 
L 47.916374 22.32 
L 47.942653 55.92 
L 48.035668 123.12 
L 48.035698 55.92 
L 48.214053 55.92 
L 48.324588 22.32 
L 48.324588 22.32 
L 48.391149 123.12 
L 48.402779 22.32 
L 48.494974 22.32 
L 48.596632 123.12 
L 48.596632 123.12 
L 48.613009 22.32 
L 48.613009 22.32 
L 48.831705 123.12 
L 48.831734 55.92 
L 48.985686 55.92 
L 49.04548 123.12 
L 49.057901 22.32 
L 49.090742 55.92 
L 49.244782 55.92 
L 49.267867 22.32 
L 49.352006 123.12 
L 49.458 22.32 
L 49.458029 55.92 
L 49.547031 22.32 
L 49.547031 22.32 
L 49.551835 123.12 
L 49.653523 22.32 
L 49.820892 123.12 
L 49.897238 22.32 
L 49.946661 123.12 
L 50.127242 22.32 
L 50.155103 123.12 
L 50.189087 55.92 
L 50.2618 22.32 
L 50.275159 55.92 
L 50.33633 123.12 
L 50.33633 123.12 
L 50.593111 22.32 
L 50.689583 55.92 
L 50.789718 55.92 
L 50.789718 55.92 
L 50.83126 123.12 
L 50.83126 123.12 
L 50.926707 55.92 
L 50.926707 55.92 
L 50.973288 123.12 
L 50.973317 22.32 
L 51.091147 55.92 
L 51.091147 55.92 
L 51.209181 22.32 
L 51.20921 123.12 
L 51.289365 55.92 
L 51.349569 123.12 
L 51.349598 22.32 
L 51.444898 123.12 
L 51.463853 55.92 
L 51.540023 22.32 
L 51.540023 22.32 
L 51.637902 55.92 
L 51.637902 55.92 
L 51.637931 123.12 
L 51.681378 22.32 
L 51.681378 22.32 
L 51.842126 123.12 
L 51.842126 123.12 
L 51.866442 22.32 
L 51.891519 55.92 
L 52.068908 55.92 
L 52.131367 123.12 
L 52.176952 22.32 
L 52.299821 55.92 
L 52.385981 55.92 
L 52.38601 123.12 
L 52.437191 55.92 
L 52.520392 22.32 
L 52.520421 123.12 
L 52.589092 55.92 
L 52.778404 55.92 
L 52.784116 123.12 
L 52.883958 55.92 
L 52.921691 55.92 
L 52.94715 22.32 
L 52.94715 22.32 
L 53.087098 22.32 
L 53.087098 22.32 
L 53.24811 123.12 
L 53.394415 22.32 
L 53.501024 55.92 
L 53.637398 22.32 
L 53.645396 123.12 
L 53.645396 123.12 
L 53.848448 55.92 
L 53.848448 55.92 
L 53.854161 123.12 
L 53.85419 55.92 
L 54.038053 55.92 
L 54.093687 123.12 
L 54.144633 55.92 
L 54.200999 22.32 
L 54.237853 55.92 
L 54.270284 123.12 
L 54.305616 22.32 
L 54.330869 55.92 
L 54.409295 55.92 
L 54.409295 55.92 
L 54.475387 22.32 
L 54.475387 22.32 
L 54.547719 123.12 
L 54.568666 22.32 
L 54.771455 55.92 
L 54.832918 123.12 
L 54.832889 22.32 
L 54.879118 22.32 
L 54.970259 123.12 
L 54.978227 55.92 
L 55.003334 55.92 
L 55.029027 22.32 
L 55.043529 55.92 
L 55.072151 123.12 
L 55.099924 22.32 
L 55.099924 22.32 
L 55.207236 55.92 
L 55.283172 123.12 
L 55.252294 22.32 
L 55.28323 55.92 
L 55.430327 123.12 
L 55.525949 22.32 
L 55.525979 123.12 
L 55.609473 123.12 
L 55.609473 123.12 
L 55.78692 22.32 
L 55.78692 22.32 
L 55.864965 123.12 
L 55.923909 55.92 
L 56.050703 22.32 
L 56.050733 123.12 
L 56.137625 55.92 
L 56.186901 55.92 
L 56.186931 123.12 
L 56.257359 22.32 
L 56.262749 22.32 
L 56.304965 22.32 
L 56.440695 123.12 
L 56.559051 22.32 
L 56.577186 55.92 
L 56.606453 55.92 
L 56.606453 55.92 
L 56.611521 123.12 
L 56.715991 55.92 
L 56.881866 123.12 
L 56.934746 55.92 
L 56.996795 123.12 
L 57.076745 22.32 
L 57.134634 55.92 
L 57.149897 123.12 
L 57.149897 123.12 
L 57.353067 22.32 
L 57.359131 55.92 
L 57.438289 55.92 
L 57.564468 22.32 
L 57.617172 123.12 
L 57.617231 55.92 
L 57.684319 123.12 
L 57.763829 22.32 
L 57.821279 55.92 
L 57.847616 55.92 
L 57.847645 123.12 
L 57.942594 22.32 
L 57.942653 55.92 
L 58.02061 123.12 
L 58.027964 22.32 
L 58.076918 55.92 
L 58.151594 123.12 
L 58.151623 22.32 
L 58.232041 123.12 
L 58.416549 22.32 
L 58.516976 55.92 
L 58.516976 55.92 
L 58.565198 22.32 
L 58.585822 123.12 
L 58.687568 55.92 
L 58.744168 123.12 
L 58.755213 55.92 
L 58.962103 55.92 
L 59.040587 123.12 
L 59.040587 123.12 
L 59.151034 22.32 
L 59.345854 123.12 
L 59.452961 55.92 
L 59.520928 22.32 
L 59.520958 123.12 
L 59.601229 22.32 
L 59.712936 123.12 
L 59.892141 22.32 
L 59.947921 123.12 
L 60.004609 55.92 
L 60.024032 55.92 
L 60.030507 123.12 
L 60.113327 55.92 
L 60.177251 55.92 
L 60.187798 123.12 
L 60.187827 22.32 
L 60.259896 22.32 
L 60.376495 123.12 
L 60.376495 123.12 
L 60.607642 22.32 
L 60.607642 22.32 
L 60.693128 123.12 
L 60.716976 55.92 
L 60.756555 55.92 
L 60.756555 55.92 
L 60.760012 123.12 
L 60.765607 22.32 
L 60.815352 22.32 
L 60.886894 123.12 
L 60.920409 22.32 
L 60.999508 123.12 
L 61.046558 55.92 
L 61.106264 22.32 
L 61.058071 123.12 
L 61.124574 55.92 
L 61.163362 55.92 
L 61.163362 55.92 
L 61.180178 22.32 
L 61.216271 123.12 
L 61.23839 55.92 
L 61.290801 123.12 
L 61.290771 22.32 
L 61.32162 55.92 
L 61.356395 22.32 
L 61.361024 55.92 
L 61.412761 123.12 
L 61.445485 55.92 
L 61.477886 55.92 
L 61.477974 123.12 
L 61.650558 55.92 
L 61.650617 123.12 
L 61.786258 123.12 
L 61.912349 22.32 
L 61.915425 55.92 
L 61.929487 55.92 
L 61.954682 123.12 
L 61.968041 22.32 
L 62.000707 55.92 
L 62.065363 55.92 
L 62.085959 123.12 
L 62.117393 22.32 
L 62.13752 55.92 
L 62.185712 55.92 
L 62.185712 55.92 
L 62.292614 22.32 
L 62.292614 22.32 
L 62.444163 123.12 
L 62.454593 55.92 
L 62.479026 55.92 
L 62.552501 22.32 
L 62.582119 55.92 
L 62.660955 123.12 
L 62.635321 22.32 
L 62.677918 22.32 
L 62.805474 55.92 
L 62.805474 55.92 
L 62.924241 55.92 
L 62.968624 22.32 
L 62.98878 123.12 
L 63.130984 22.32 
L 63.130984 22.32 
L 63.230972 123.12 
L 63.28016 22.32 
L 63.309017 123.12 
L 63.346838 123.12 
L 63.455498 22.32 
L 63.455498 22.32 
L 63.516786 55.92 
L 63.516786 55.92 
L 63.709877 22.32 
L 63.709877 22.32 
L 63.79926 55.92 
L 63.79926 55.92 
L 63.877364 22.32 
L 63.877539 55.92 
L 63.932763 55.92 
L 64.010222 123.12 
L 64.001638 22.32 
L 64.010222 123.12 
L 64.161361 22.32 
L 64.20346 123.12 
L 64.385009 22.32 
L 64.39412 123.12 
L 64.487663 22.32 
L 64.512535 123.12 
L 64.603763 55.92 
L 64.703576 22.32 
L 64.703576 22.32 
L 64.74418 123.12 
L 64.885915 55.92 
L 64.885915 55.92 
L 64.937418 123.12 
L 65.164317 22.32 
L 65.211396 22.32 
L 65.211396 22.32 
L 65.338015 123.12 
L 65.338015 123.12 
L 65.371442 22.32 
L 65.422476 55.92 
L 65.480013 55.92 
L 65.49847 22.32 
L 65.498499 123.12 
L 65.564211 55.92 
L 65.610381 123.12 
L 65.635664 22.32 
L 65.687958 123.12 
L 65.738435 55.92 
L 65.764304 123.12 
L 65.843052 22.32 
L 65.875747 22.32 
L 65.968967 55.92 
L 65.968967 55.92 
L 66.052168 22.32 
L 66.128251 123.12 
L 66.161941 55.92 
L 66.279478 22.32 
L 66.279478 22.32 
L 66.372728 55.92 
L 66.397073 22.32 
L 66.397102 123.12 
L 66.435949 55.92 
L 66.557704 123.12 
L 66.633786 22.32 
L 66.649196 123.12 
L 66.71939 123.12 
L 66.820579 22.32 
L 66.975409 123.12 
L 66.975409 123.12 
L 67.003329 22.32 
L 67.073142 55.92 
L 67.135894 22.32 
L 67.142544 55.92 
L 67.165659 123.12 
L 67.194076 22.32 
L 67.220531 55.92 
L 67.339444 55.92 
L 67.510827 22.32 
L 67.611548 123.12 
L 67.611577 55.92 
L 67.641195 55.92 
L 67.641195 55.92 
L 67.651713 123.12 
L 67.692727 22.32 
L 67.734416 55.92 
L 67.903074 55.92 
L 67.906824 22.32 
L 67.906853 123.12 
L 67.963161 55.92 
L 68.096107 55.92 
L 68.106097 22.32 
L 68.122503 123.12 
L 68.128714 55.92 
L 68.221671 22.32 
L 68.295907 123.12 
L 68.315653 55.92 
L 68.337596 55.92 
L 68.337596 55.92 
L 68.433072 22.32 
L 68.44605 55.92 
L 68.514047 123.12 
L 68.513959 22.32 
L 68.519965 22.32 
L 68.636359 123.12 
L 68.636359 123.12 
L 68.642921 22.32 
L 68.682383 55.92 
L 68.764529 55.92 
L 68.864693 22.32 
L 68.864693 22.32 
L 68.934975 123.12 
L 68.967435 55.92 
L 68.983226 55.92 
L 68.983226 55.92 
L 69.026379 123.12 
L 69.091798 55.92 
L 69.129121 55.92 
L 69.226794 123.12 
L 69.306099 123.12 
L 69.364721 22.32 
L 69.405736 55.92 
L 69.469982 55.92 
L 69.469982 55.92 
L 69.539795 123.12 
L 69.489318 22.32 
L 69.5683 55.92 
L 69.633192 123.12 
L 69.633162 22.32 
L 69.651502 55.92 
L 69.712789 22.32 
L 69.764644 123.12 
L 69.813129 22.32 
L 69.966993 123.12 
L 69.967022 22.32 
L 70.018701 55.92 
L 70.092879 123.12 
L 70.111452 22.32 
L 70.179361 55.92 
L 70.229545 55.92 
L 70.229545 55.92 
L 70.248236 123.12 
L 70.279466 55.92 
L 70.394659 55.92 
L 70.471942 123.12 
L 70.397208 22.32 
L 70.498602 55.92 
L 70.563376 55.92 
L 70.597887 22.32 
L 70.646694 55.92 
L 70.711058 123.12 
L 70.653462 22.32 
L 70.727259 22.32 
L 70.813888 123.12 
L 70.833868 22.32 
L 70.849102 22.32 
L 70.954305 123.12 
L 71.003991 22.32 
L 71.060679 55.92 
L 71.132894 123.12 
L 71.144759 55.92 
L 71.176546 55.92 
L 71.287578 22.32 
L 71.396707 123.12 
L 71.396765 55.92 
L 71.435788 22.32 
L 71.446276 55.92 
L 71.463942 123.12 
L 71.536684 22.32 
L 71.547934 55.92 
L 71.614583 22.32 
L 71.619973 123.12 
L 71.632102 123.12 
L 71.710909 22.32 
L 71.749023 55.92 
L 71.749082 123.12 
L 71.787108 22.32 
L 71.810487 55.92 
L 71.87485 55.92 
L 71.890202 22.32 
L 71.979086 55.92 
L 72.036771 55.92 
L 72.13377 123.12 
L 72.092287 22.32 
L 72.147598 22.32 
L 72.260037 123.12 
L 72.268855 55.92 
L 72.271961 22.32 
L 72.291443 55.92 
L 72.383169 22.32 
L 72.523351 123.12 
L 72.577637 22.32 
L 72.637314 55.92 
L 72.696404 55.92 
L 72.752155 22.32 
L 72.7973 123.12 
L 72.805064 123.12 
L 72.901478 22.32 
L 72.901478 22.32 
L 73.02335 123.12 
L 73.060556 55.92 
L 73.154392 123.12 
L 73.154421 55.92 
L 73.174958 123.12 
L 73.268178 22.32 
L 73.331575 123.12 
L 73.331575 123.12 
L 73.446387 123.12 
L 73.519716 22.32 
L 73.522411 55.92 
L 73.598171 123.12 
L 73.61279 55.92 
L 73.612819 22.32 
L 73.648209 123.12 
L 73.716762 55.92 
L 73.774388 123.12 
L 73.774388 123.12 
L 73.893184 22.32 
L 73.903291 55.92 
L 74.020447 123.12 
L 74.106988 55.92 
L 74.14434 123.12 
L 74.142671 22.32 
L 74.165932 55.92 
L 74.319327 55.92 
L 74.392362 22.32 
L 74.421571 55.92 
L 74.495075 123.12 
L 74.522935 22.32 
L 74.553374 22.32 
L 74.655647 123.12 
L 74.655647 123.12 
L 74.773945 22.32 
L 74.773945 22.32 
L 74.780127 123.12 
L 74.804267 55.92 
L 74.931764 55.92 
L 75.032309 123.12 
L 75.032309 123.12 
L 75.087239 123.12 
L 75.20624 22.32 
L 75.260175 123.12 
L 75.308924 55.92 
L 75.383248 22.32 
L 75.383277 55.92 
L 75.489945 123.12 
L 75.489945 123.12 
L 75.570305 22.32 
L 75.587033 55.92 
L 75.676093 22.32 
L 75.713739 123.12 
L 75.809889 22.32 
L 75.986252 123.12 
L 76.058907 22.32 
L 76.100332 55.92 
L 76.112841 55.92 
L 76.112841 55.92 
L 76.180574 22.32 
L 76.142167 123.12 
L 76.215759 55.92 
L 76.266178 22.32 
L 76.266207 55.92 
L 76.384241 123.12 
L 76.452853 22.32 
L 76.482559 55.92 
L 76.556064 123.12 
L 76.5662 55.92 
L 76.645095 22.32 
L 76.645095 22.32 
L 76.669616 123.12 
L 76.750796 55.92 
L 76.816478 55.92 
L 76.906798 123.12 
L 76.923585 22.32 
L 76.925255 55.92 
L 76.930616 55.92 
L 76.930616 55.92 
L 77.014462 123.12 
L 76.965625 22.32 
L 77.026268 55.92 
L 77.098102 55.92 
L 77.098102 55.92 
L 77.225336 123.12 
L 77.318439 22.32 
L 77.318439 22.32 
L 77.36338 22.32 
L 77.464715 123.12 
L 77.618432 22.32 
L 77.640932 123.12 
L 77.672601 22.32 
L 77.775782 55.92 
L 77.775782 55.92 
L 77.881102 55.92 
L 77.881102 55.92 
L 77.940954 123.12 
L 77.925984 22.32 
L 77.986364 55.92 
L 78.002975 55.92 
L 78.114095 123.12 
L 78.024654 22.32 
L 78.114095 123.12 
L 78.165158 22.32 
L 78.23005 55.92 
L 78.232891 123.12 
L 78.249971 22.32 
L 78.302733 22.32 
L 78.442301 123.12 
L 78.571995 22.32 
L 78.571995 22.32 
L 78.684317 123.12 
L 78.719648 55.92 
L 78.831091 22.32 
L 78.831091 22.32 
L 78.851364 22.32 
L 78.952758 123.12 
L 78.952787 22.32 
L 78.967611 22.32 
L 78.967611 22.32 
L 78.969369 123.12 
L 79.065373 55.92 
L 79.104923 55.92 
L 79.104923 55.92 
L 79.186337 123.12 
L 79.186366 55.92 
L 79.311197 123.12 
L 79.311197 123.12 
L 79.319547 22.32 
L 79.401488 55.92 
L 79.429847 22.32 
L 79.442181 123.12 
L 79.462248 55.92 
L 79.503527 123.12 
L 79.56625 22.32 
L 79.677048 123.12 
L 79.745894 22.32 
L 79.745894 22.32 
L 79.827953 123.12 
L 79.869495 22.32 
L 79.923283 55.92 
L 79.960782 123.12 
L 79.991455 55.92 
L 80.062909 55.92 
L 80.071229 123.12 
L 80.083885 22.32 
L 80.167731 55.92 
L 80.181646 55.92 
L 80.181646 55.92 
L 80.244399 123.12 
L 80.267279 22.32 
L 80.272553 55.92 
L 80.324143 123.12 
L 80.379835 55.92 
L 80.458906 22.32 
L 80.412296 123.12 
L 80.458906 22.32 
L 80.462451 123.12 
L 80.538386 55.92 
L 80.638374 55.92 
L 80.638374 55.92 
L 80.678452 123.12 
L 80.735433 55.92 
L 80.796164 22.32 
L 80.814269 123.12 
L 80.837179 123.12 
L 80.911972 22.32 
L 80.956004 55.92 
L 81.064078 123.12 
L 81.064078 123.12 
L 81.148304 22.32 
L 81.174817 55.92 
L 81.185774 22.32 
L 81.230246 55.92 
L 81.286377 55.92 
L 81.286377 55.92 
L 81.287608 22.32 
L 81.340253 123.12 
L 81.378631 55.92 
L 81.425095 55.92 
L 81.425095 55.92 
L 81.496607 22.32 
L 81.557397 123.12 
L 81.638664 55.92 
L 81.712403 55.92 
L 81.779169 22.32 
L 81.875407 123.12 
L 81.945894 22.32 
L 81.986293 123.12 
L 82.067268 22.32 
L 82.078254 55.92 
L 82.173789 123.12 
L 82.11048 22.32 
L 82.18501 55.92 
L 82.325251 123.12 
L 82.434145 55.92 
L 82.434174 123.12 
L 82.550158 22.32 
L 82.597383 55.92 
L 82.651405 55.92 
L 82.756345 123.12 
L 82.747321 22.32 
L 82.756374 55.92 
L 82.773073 22.32 
L 82.802017 123.12 
L 82.866703 123.12 
L 82.976916 55.92 
L 83.029532 22.32 
L 83.065127 123.12 
L 83.205104 22.32 
L 83.205104 22.32 
L 83.289682 123.12 
L 83.342269 55.92 
L 83.372268 55.92 
L 83.385364 22.32 
L 83.42963 123.12 
L 83.436837 123.12 
L 83.480225 123.12 
L 83.480225 123.12 
L 83.60573 22.32 
L 83.613405 55.92 
L 83.615896 55.92 
L 83.615925 123.12 
L 83.674576 55.92 
L 83.741635 55.92 
L 83.782034 123.12 
L 83.844347 55.92 
L 83.92292 55.92 
L 84.008523 22.32 
L 84.010545 55.92 
L 84.102476 55.92 
L 84.102476 55.92 
L 84.161098 123.12 
L 84.161069 22.32 
L 84.176186 55.92 
L 84.262463 123.12 
L 84.262492 55.92 
L 84.320089 55.92 
L 84.409237 22.32 
L 84.43118 55.92 
L 84.431209 123.12 
L 84.472312 22.32 
L 84.535299 22.32 
L 84.581235 123.12 
L 84.631185 55.92 
L 84.664934 22.32 
L 84.664934 22.32 
L 84.688049 123.12 
L 84.747755 55.92 
L 84.85284 55.92 
L 84.85284 55.92 
L 84.89447 22.32 
L 84.908005 55.92 
L 85.040014 123.12 
L 84.997534 22.32 
L 85.040014 123.12 
L 85.101184 22.32 
L 85.148908 55.92 
L 85.217637 55.92 
L 85.32325 22.32 
L 85.323279 55.92 
L 85.353396 55.92 
L 85.353396 55.92 
L 85.398541 123.12 
L 85.454438 55.92 
L 85.502748 55.92 
L 85.502777 22.32 
L 85.510394 123.12 
L 85.604757 55.92 
L 85.649698 55.92 
L 85.744676 123.12 
L 85.849761 22.32 
L 85.849761 22.32 
L 85.860601 123.12 
L 85.910346 55.92 
L 85.974622 123.12 
L 85.981858 22.32 
L 86.021437 55.92 
L 86.036818 55.92 
L 86.123681 123.12 
L 86.138241 55.92 
L 86.177381 123.12 
L 86.20407 22.32 
L 86.225603 55.92 
L 86.359486 55.92 
L 86.359486 55.92 
L 86.435246 22.32 
L 86.373666 123.12 
L 86.442365 55.92 
L 86.486515 55.92 
L 86.486515 55.92 
L 86.582138 123.12 
L 86.582138 123.12 
L 86.647878 22.32 
L 86.697242 55.92 
L 86.790961 123.12 
L 86.744028 22.32 
L 86.802211 55.92 
L 86.80224 22.32 
L 86.834173 123.12 
L 86.864026 123.12 
L 86.95751 22.32 
L 86.994453 123.12 
L 87.018651 22.32 
L 87.089402 55.92 
L 87.089402 55.92 
L 87.224926 22.32 
L 87.224926 22.32 
L 87.281526 123.12 
L 87.310324 22.32 
L 87.361827 22.32 
L 87.361827 22.32 
L 87.488152 123.12 
L 87.488152 123.12 
L 87.52905 22.32 
L 87.564586 55.92 
L 87.688568 123.12 
L 87.792423 22.32 
L 87.834668 55.92 
L 87.8787 123.12 
L 87.87873 22.32 
L 87.998346 123.12 
L 88.097514 55.92 
L 88.097514 55.92 
L 88.152591 123.12 
L 88.152649 22.32 
L 88.194543 22.32 
L 88.390007 123.12 
L 88.390007 123.12 
L 88.439928 22.32 
L 88.495356 55.92 
L 88.542377 55.92 
L 88.548265 22.32 
L 88.560365 123.12 
L 88.645822 55.92 
L 88.73415 123.12 
L 88.73415 123.12 
L 88.824529 22.32 
L 88.827634 123.12 
L 88.901373 123.12 
L 88.901373 123.12 
L 89.00555 22.32 
L 89.006546 123.12 
L 89.041702 22.32 
L 89.135537 55.92 
L 89.192636 123.12 
L 89.378286 22.32 
L 89.470042 55.92 
L 89.470042 55.92 
L 89.490549 55.92 
L 89.558985 22.32 
L 89.533937 123.12 
L 89.563731 55.92 
L 89.624433 123.12 
L 89.639784 55.92 
L 89.759693 55.92 
L 89.790454 22.32 
L 89.841166 55.92 
L 89.871077 123.12 
L 89.920529 55.92 
L 90.033877 22.32 
L 90.033877 22.32 
L 90.067421 123.12 
L 90.088836 55.92 
L 90.29681 55.92 
L 90.350451 22.32 
L 90.391906 55.92 
L 90.475253 55.92 
L 90.478154 123.12 
L 90.575827 55.92 
L 90.593434 55.92 
L 90.593434 55.92 
L 90.64022 22.32 
L 90.657417 123.12 
L 90.66688 55.92 
L 90.705639 55.92 
L 90.705639 55.92 
L 90.718353 22.32 
L 90.720287 55.92 
L 90.798684 123.12 
L 90.800764 55.92 
L 90.851007 55.92 
L 90.895039 22.32 
L 90.895068 55.92 
L 90.977098 123.12 
L 90.977127 55.92 
L 91.051832 123.12 
L 91.077144 55.92 
L 91.134916 22.32 
L 91.134887 123.12 
L 91.148803 55.92 
L 91.205608 22.32 
L 91.205608 22.32 
L 91.256466 123.12 
L 91.302286 55.92 
L 91.402332 22.32 
L 91.549077 123.12 
L 91.576176 55.92 
L 91.682463 55.92 
L 91.682463 55.92 
L 91.685363 123.12 
L 91.78998 22.32 
L 91.801464 22.32 
L 91.901042 123.12 
L 92.072835 22.32 
L 92.072864 123.12 
L 92.142618 22.32 
L 92.235517 55.92 
L 92.266483 123.12 
L 92.320857 55.92 
L 92.397408 22.32 
L 92.525286 123.12 
L 92.525344 22.32 
L 92.62375 123.12 
L 92.743425 55.92 
L 92.794635 55.92 
L 92.849067 123.12 
L 92.89143 55.92 
L 92.926644 55.92 
L 92.926644 55.92 
L 92.933353 123.12 
L 92.961067 22.32 
L 93.010548 22.32 
L 93.108397 55.92 
L 93.130165 22.32 
L 93.161746 123.12 
L 93.181902 123.12 
L 93.287485 55.92 
L 93.314438 55.92 
L 93.314438 55.92 
L 93.320151 123.12 
L 93.32018 22.32 
L 93.410676 55.92 
L 93.448878 22.32 
L 93.461358 55.92 
L 93.522617 123.12 
L 93.549804 55.92 
L 93.620466 22.32 
L 93.620466 22.32 
L 93.843176 55.92 
L 93.843176 55.92 
L 93.872589 22.32 
L 93.913604 55.92 
L 93.939531 123.12 
L 93.988016 55.92 
L 94.025223 55.92 
L 94.108541 22.32 
L 94.10857 123.12 
L 94.311124 123.12 
L 94.358526 22.32 
L 94.434725 55.92 
L 94.473572 123.12 
L 94.496833 55.92 
L 94.558677 22.32 
L 94.570425 55.92 
L 94.570454 123.12 
L 94.642845 22.32 
L 94.642845 22.32 
L 94.746671 55.92 
L 94.79627 22.32 
L 94.884803 123.12 
L 94.90323 55.92 
L 94.923386 55.92 
L 94.923386 55.92 
L 94.987926 22.32 
L 95.053373 123.12 
L 95.053696 55.92 
L 95.126204 22.32 
L 95.126204 22.32 
L 95.279218 55.92 
L 95.327381 55.92 
L 95.367048 22.32 
L 95.396989 123.12 
L 95.438121 55.92 
L 95.479692 55.92 
L 95.479692 55.92 
L 95.582024 123.12 
L 95.582053 55.92 
L 95.605754 55.92 
L 95.605754 55.92 
L 95.684121 22.32 
L 95.684121 22.32 
L 95.75244 123.12 
L 95.807897 55.92 
L 95.950599 55.92 
L 96.015901 22.32 
L 95.999495 123.12 
L 96.060402 123.12 
L 96.086358 123.12 
L 96.086358 123.12 
L 96.203133 22.32 
L 96.203133 22.32 
L 96.238464 123.12 
L 96.295738 55.92 
L 96.333882 22.32 
L 96.372699 55.92 
L 96.516514 55.92 
L 96.563154 123.12 
L 96.603114 55.92 
L 96.632439 22.32 
L 96.699 55.92 
L 96.71485 55.92 
L 96.753286 123.12 
L 96.809887 55.92 
L 96.916027 22.32 
L 96.916027 22.32 
L 97.010683 123.12 
L 97.034091 55.92 
L 97.037841 55.92 
L 97.037841 55.92 
L 97.063358 123.12 
L 97.142282 55.92 
L 97.224018 22.32 
L 97.213999 123.12 
L 97.235971 55.92 
L 97.321604 123.12 
L 97.344455 22.32 
L 97.388458 55.92 
L 97.455224 123.12 
L 97.484637 55.92 
L 97.539538 55.92 
L 97.563561 123.12 
L 97.605308 22.32 
L 97.623823 55.92 
L 97.661147 55.92 
L 97.755305 123.12 
L 97.858691 55.92 
L 97.858691 55.92 
L 97.918397 55.92 
L 97.918426 22.32 
L 97.987653 123.12 
L 98.02773 123.12 
L 98.042584 55.92 
L 98.223166 123.12 
L 98.326933 55.92 
L 98.326933 55.92 
L 98.355643 55.92 
L 98.355643 55.92 
L 98.384969 123.12 
L 98.438346 55.92 
L 98.488296 22.32 
L 98.488326 123.12 
L 98.495855 55.92 
L 98.523715 123.12 
L 98.593206 55.92 
L 98.645676 55.92 
L 98.692344 123.12 
L 98.72914 22.32 
L 98.742851 55.92 
L 98.780936 55.92 
L 98.780936 55.92 
L 98.903805 123.12 
L 98.903805 123.12 
L 98.932456 22.32 
L 99.002504 123.12 
L 99.021107 123.12 
L 99.11128 55.92 
L 99.157715 123.12 
L 99.164512 22.32 
L 99.204149 55.92 
L 99.425892 55.92 
L 99.516213 123.12 
L 99.53215 55.92 
L 99.587051 55.92 
L 99.703328 123.12 
L 99.703328 123.12 
L 99.765318 22.32 
L 99.765348 123.12 
L 99.887865 55.92 
L 99.887894 123.12 
L 99.910598 22.32 
L 99.933947 22.32 
L 100.080575 123.12 
L 100.082391 55.92 
L 100.22521 55.92 
L 100.255327 123.12 
L 100.316966 55.92 
L 100.375529 55.92 
L 100.45378 123.12 
L 100.486386 55.92 
L 100.541668 123.12 
L 100.516854 22.32 
L 100.571726 55.92 
L 100.622789 22.32 
L 100.622848 123.12 
L 100.728783 55.92 
L 100.820099 55.92 
L 100.953339 22.32 
L 101.079517 55.92 
L 101.079517 55.92 
L 101.184486 22.32 
L 101.184486 22.32 
L 101.275421 55.92 
L 101.307178 123.12 
L 101.368378 55.92 
L 101.492477 55.92 
L 101.570874 123.12 
L 101.570844 22.32 
L 101.57102 55.92 
L 101.670657 55.92 
L 101.760977 123.12 
L 101.734962 22.32 
L 101.760977 123.12 
L 101.862371 55.92 
L 101.976948 123.12 
L 101.976948 123.12 
L 102.031791 22.32 
L 102.090061 55.92 
L 102.134269 55.92 
L 102.134269 55.92 
L 102.212812 123.12 
L 102.214629 55.92 
L 102.268856 55.92 
L 102.270204 22.32 
L 102.270233 123.12 
L 102.313943 55.92 
L 102.409654 55.92 
L 102.409654 55.92 
L 102.437983 123.12 
L 102.514095 55.92 
L 102.539905 22.32 
L 102.539934 55.92 
L 102.662714 55.92 
L 102.662714 55.92 
L 102.745828 22.32 
L 102.808522 123.12 
L 102.853286 22.32 
L 102.931742 123.12 
L 102.976506 55.92 
L 102.987229 123.12 
L 103.017609 22.32 
L 103.20569 55.92 
L 103.20569 55.92 
L 103.256021 22.32 
L 103.30064 55.92 
L 103.378567 22.32 
L 103.464933 123.12 
L 103.464933 123.12 
L 103.56744 22.32 
L 103.567469 55.92 
L 103.707593 55.92 
L 103.707623 123.12 
L 103.790502 55.92 
L 103.92251 22.32 
L 104.011102 123.12 
L 104.145367 22.32 
L 104.262464 123.12 
L 104.364649 22.32 
L 104.370186 123.12 
L 104.4874 55.92 
L 104.4874 55.92 
L 104.631332 123.12 
L 104.707795 22.32 
L 104.707795 22.32 
L 104.768849 123.12 
L 104.804971 22.32 
L 104.909822 55.92 
L 104.927722 123.12 
L 104.939939 22.32 
L 104.979342 22.32 
L 105.027241 22.32 
L 105.071186 123.12 
L 105.243477 22.32 
L 105.246582 55.92 
L 105.330926 55.92 
L 105.366169 123.12 
L 105.354539 22.32 
L 105.409147 22.32 
L 105.552874 55.92 
L 105.680078 22.32 
L 105.786775 123.12 
L 105.786804 22.32 
L 105.901821 123.12 
L 106.000198 22.32 
L 106.000198 22.32 
L 106.063859 123.12 
L 106.063859 123.12 
L 106.134053 55.92 
L 106.158368 123.12 
L 106.237556 123.12 
L 106.237556 123.12 
L 106.336372 22.32 
L 106.341353 123.12 
L 106.355678 123.12 
L 106.355708 22.32 
L 106.42306 123.12 
L 106.540303 123.12 
L 106.540303 123.12 
L 106.564971 22.32 
L 106.59122 123.12 
L 106.769107 22.32 
L 106.855443 123.12 
L 106.929562 55.92 
L 107.022372 123.12 
L 107.022372 123.12 
L 107.108386 22.32 
L 107.144186 123.12 
L 107.145944 55.92 
L 107.257035 22.32 
L 107.257035 22.32 
L 107.30303 123.12 
L 107.359718 22.32 
L 107.373868 22.32 
L 107.373868 22.32 
L 107.451709 123.12 
L 107.451738 22.32 
L 107.537664 55.92 
L 107.574137 22.32 
L 107.574137 22.32 
L 107.672133 55.92 
L 107.714935 22.32 
L 107.715931 123.12 
L 107.788146 55.92 
L 107.86956 55.92 
L 107.86956 55.92 
L 107.879345 22.32 
L 107.879375 123.12 
L 108.001657 22.32 
L 108.007311 55.92 
L 108.142015 55.92 
L 108.184641 22.32 
L 108.190266 55.92 
L 108.238224 22.32 
L 108.293418 123.12 
L 108.305195 22.32 
L 108.305225 55.92 
L 108.427448 55.92 
L 108.427478 123.12 
L 108.524917 22.32 
L 108.567396 22.32 
L 108.692433 123.12 
L 108.771708 22.32 
L 108.771737 55.92 
L 108.85154 123.12 
L 108.85154 123.12 
L 108.856286 22.32 
L 108.948745 55.92 
L 108.96893 123.12 
L 108.99102 22.32 
L 109.095256 123.12 
L 109.105158 55.92 
L 109.194042 55.92 
L 109.266258 22.32 
L 109.266258 22.32 
L 109.273933 123.12 
L 109.370874 22.32 
L 109.455072 123.12 
L 109.576739 22.32 
L 109.62209 123.12 
L 109.791275 55.92 
L 109.87515 22.32 
L 109.946164 123.12 
L 109.946164 123.12 
L 110.113592 22.32 
L 110.113592 22.32 
L 110.117137 123.12 
L 110.209977 55.92 
L 110.280727 22.32 
L 110.280727 22.32 
L 110.29353 123.12 
L 110.382795 22.32 
L 110.620094 123.12 
L 110.710268 55.92 
L 110.780491 123.12 
L 110.780491 123.12 
L 110.793118 22.32 
L 110.907871 55.92 
L 110.917803 22.32 
L 111.000975 123.12 
L 111.050016 22.32 
L 111.125366 55.92 
L 111.19515 22.32 
L 111.19515 22.32 
L 111.32168 55.92 
L 111.401893 22.32 
L 111.404266 123.12 
L 111.421229 123.12 
L 111.538795 22.32 
L 111.608197 123.12 
L 111.608197 123.12 
L 111.733907 22.32 
L 111.733937 55.92 
L 111.81204 55.92 
L 111.86199 123.12 
L 111.816113 22.32 
L 111.90948 22.32 
L 111.950582 123.12 
L 112.144465 22.32 
L 112.226406 123.12 
L 112.242021 55.92 
L 112.319832 22.32 
L 112.401685 123.12 
L 112.470297 123.12 
L 112.55344 22.32 
L 112.553469 55.92 
L 112.595626 55.92 
L 112.67581 22.32 
L 112.739295 123.12 
L 112.769353 55.92 
L 112.821559 123.12 
L 112.878364 55.92 
L 112.93722 123.12 
L 112.960862 55.92 
L 113.041134 22.32 
L 113.041134 22.32 
L 113.135731 123.12 
L 113.159168 123.12 
L 113.159168 123.12 
L 113.176365 22.32 
L 113.216648 123.12 
L 113.284849 123.12 
L 113.407161 22.32 
L 113.40719 55.92 
L 113.420813 123.12 
L 113.488136 55.92 
L 113.593104 55.92 
L 113.593104 55.92 
L 113.649939 123.12 
L 113.622224 22.32 
L 113.689694 55.92 
L 113.770932 55.92 
L 113.770932 55.92 
L 113.811244 123.12 
L 113.811273 55.92 
L 113.891574 22.32 
L 113.891603 123.12 
L 113.945303 55.92 
L 114.03533 123.12 
L 114.213832 22.32 
L 114.294133 22.32 
L 114.294133 22.32 
L 114.381612 123.12 
L 114.455672 22.32 
L 114.511247 55.92 
L 114.601304 55.92 
L 114.601304 55.92 
L 114.61481 123.12 
L 114.69514 22.32 
L 114.69514 22.32 
L 114.748693 123.12 
L 114.759064 55.92 
L 114.884305 55.92 
L 114.884305 55.92 
L 114.935046 22.32 
L 114.939265 55.92 
L 115.014322 55.92 
L 115.094623 22.32 
L 115.108187 55.92 
L 115.108392 123.12 
L 115.187931 55.92 
L 115.227716 55.92 
L 115.31121 22.32 
L 115.333592 123.12 
L 115.365613 55.92 
L 115.452008 55.92 
L 115.452008 55.92 
L 115.552611 22.32 
L 115.552611 22.32 
L 115.581936 123.12 
L 115.654415 55.92 
L 115.770282 22.32 
L 115.770282 22.32 
L 115.778807 123.12 
L 115.848297 55.92 
L 115.927368 22.32 
L 115.927368 22.32 
L 116.126201 123.12 
L 116.126201 123.12 
L 116.255281 55.92 
L 116.323394 55.92 
L 116.323394 55.92 
L 116.455286 22.32 
L 116.520265 22.32 
L 116.520294 123.12 
L 116.62368 55.92 
L 116.716755 123.12 
L 116.818237 55.92 
L 116.818237 55.92 
L 116.992227 22.32 
L 117.095613 123.12 
L 117.108621 55.92 
L 117.161471 22.32 
L 117.200582 123.12 
L 117.303939 123.12 
L 117.388165 22.32 
L 117.388165 22.32 
L 117.418721 22.32 
L 117.461816 123.12 
L 117.513319 55.92 
L 117.535555 123.12 
L 117.551726 55.92 
L 117.629625 55.92 
L 117.732513 123.12 
L 117.732513 123.12 
L 117.746341 22.32 
L 117.76887 55.92 
L 117.84586 123.12 
L 117.84586 123.12 
L 117.8879 22.32 
L 117.940575 55.92 
L 118.01818 55.92 
L 118.120541 22.32 
L 118.120571 55.92 
L 118.233889 55.92 
L 118.385086 22.32 
L 118.385086 22.32 
L 118.717452 55.92 
L 118.747832 22.32 
L 118.789023 55.92 
L 118.797665 123.12 
L 118.841141 55.92 
L 119.400757 55.92 
L 119.539328 22.32 
L 119.618106 123.12 
L 119.724129 22.32 
L 119.724158 55.92 
L 120.025909 55.92 
L 120.025909 55.92 
L 120.181062 22.32 
L 120.181062 22.32 
L 120.232828 55.92 
L 120.384231 123.12 
L 120.384231 123.12 
L 120.472647 123.12 
L 120.472647 123.12 
L 120.789398 55.92 
L 120.800589 22.32 
L 120.877169 123.12 
L 120.877169 123.12 
L 121.192982 22.32 
L 121.192982 22.32 
L 121.280109 55.92 
L 121.280109 55.92 
L 121.55482 123.12 
L 121.55482 123.12 
L 121.561265 22.32 
L 121.635121 55.92 
L 122.035454 55.92 
L 122.116692 123.12 
L 122.405875 55.92 
L 122.434292 123.12 
L 122.434292 123.12 
L 122.519544 22.32 
L 122.519544 22.32 
L 122.803366 55.92 
L 122.831608 22.32 
L 122.831608 22.32 
L 122.871216 123.12 
L 122.922309 55.92 
L 123.2274 55.92 
L 123.2274 55.92 
L 123.31148 22.32 
L 123.31148 22.32 
L 123.621697 55.92 
L 123.621697 55.92 
L 123.705221 22.32 
L 123.705221 22.32 
L 123.986904 55.92 
L 124.01453 22.32 
L 124.097439 55.92 
L 124.097497 123.12 
L 124.261117 55.92 
L 124.417529 55.92 
L 124.527243 22.32 
L 124.527273 123.12 
L 124.527273 123.12 
" clip-path="url(#p6a3aea9402)" style="fill: none; stroke: #000000; stroke-width: 5; stroke-linecap: square"/>
   </g>
   <g id="patch_3">
    <path d="M 18 128.16 
L 18 17.28 
" style="fill: none; stroke: #000000; stroke-width: 0.8; stroke-linejoin: miter; stroke-linecap: square"/>
   </g>
   <g id="patch_4">
    <path d="M 129.6 128.16 
L 129.6 17.28 
" style="fill: none; stroke: #000000; stroke-width: 0.8; stroke-linejoin: miter; stroke-linecap: square"/>
   </g>
   <g id="patch_5">
    <path d="M 18 128.16 
L 129.6 128.16 
" style="fill: none; stroke: #000000; stroke-width: 0.8; stroke-linejoin: miter; stroke-linecap: square"/>
   </g>
   <g id="patch_6">
    <path d="M 18 17.28 
L 129.6 17.28 
" style="fill: none; stroke: #000000; stroke-width: 0.8; stroke-linejoin: miter; stroke-linecap: square"/>
   </g>
  </g>
 </g>
 <defs>
  <clipPath id="p6a3aea9402">
   <rect x="18" y="17.28" width="111.6" height="110.88"/>
  </clipPath>
 </defs>
</svg>
