<?xml version="1.0" encoding="utf-8" standalone="no"?>
<!DOCTYPE svg PUBLIC "-//W3C//DTD SVG 1.1//EN"
  "http://www.w3.org/Graphics/SVG/1.1/DTD/svg11.dtd">
<svg xmlns:xlink="http://www.w3.org/1999/xlink" width="144pt" height="144pt" viewBox="0 0 144 144" xmlns="http://www.w3.org/2000/svg" version="1.1">
 <metadata>
  <rdf:RDF xmlns:dc="http://purl.org/dc/elements/1.1/" xmlns:cc="http://creativecommons.org/ns#" xmlns:rdf="http://www.w3.org/1999/02/22-rdf-syntax-ns#">
   <cc:Work>
    <dc:type rdf:resource="http://purl.org/dc/dcmitype/StillImage"/>
    <dc:date>2026-05-21T17:07:31.774774</dc:date>
    <dc:format>image/svg+xml</dc:format>
    <dc:creator>
     <cc:Agent>
      <dc:title>Matplotlib v3.10.9, https://matplotlib.org/</dc:title>
     </cc:Agent>
    </dc:creator>
   </cc:Work>
  </rdf:RDF>
 </metadata>
 <defs>
  <style type="text/css">*{stroke-linejoin: round; stroke-linecap: butt}</style>
 </defs>
 <g id="figure_1">
  <g id="patch_1">
   <path d="M 0 144 
L 144 144 
L 144 0 
L 0 0 
z
" style="fill: #ffffff"/>
  </g>
  <g id="axes_1">
   <g id="patch_2">
    <path d="M 18 128.16 
L 129.6 128.16 
L 129.6 17.28 
L 18 17.28 
z
" style="fill: #ffffff; stroke: #000000; stroke-width: 1.5; stroke-linejoin: miter"/>
   </g>
   <g id="matplotlib.axis_1">
    <g id="xtick_1">
     <g id="line2d_1">
      <defs>
       <path id="m193184a0cc" d="M 0 0 
L 0 3.5 
" style="stroke: #000000; stroke-width: 0.8"/>
      </defs>
      <g>
       <use xlink:href="#m193184a0cc" x="23.072727" y="128.16" style="stroke: #000000; stroke-width: 0.8"/>
      </g>
     </g>
     <g id="text_1">
      <!-- 0.8335 -->
      <g transform="translate(19.573665 136.679688) scale(0.02 -0.02)">
       <defs>
        <path id="DejaVuSans-30" d="M 2034 4250 
Q 1547 4250 1301 3770 
Q 1056 3291 1056 2328 
Q 1056 1369 1301 889 
Q 1547 409 2034 409 
Q 2525 409 2770 889 
Q 3016 1369 3016 2328 
Q 3016 3291 2770 3770 
Q 2525 4250 2034 4250 
z
M 2034 4750 
Q 2819 4750 3233 4129 
Q 3647 3509 3647 2328 
Q 3647 1150 3233 529 
Q 2819 -91 2034 -91 
Q 1250 -91 836 529 
Q 422 1150 422 2328 
Q 422 3509 836 4129 
Q 1250 4750 2034 4750 
z
" transform="scale(0.015625)"/>
        <path id="DejaVuSans-2e" d="M 684 794 
L 1344 794 
L 1344 0 
L 684 0 
L 684 794 
z
" transform="scale(0.015625)"/>
        <path id="DejaVuSans-38" d="M 2034 2216 
Q 1584 2216 1326 1975 
Q 1069 1734 1069 1313 
Q 1069 891 1326 650 
Q 1584 409 2034 409 
Q 2484 409 2743 651 
Q 3003 894 3003 1313 
Q 3003 1734 2745 1975 
Q 2488 2216 2034 2216 
z
M 1403 2484 
Q 997 2584 770 2862 
Q 544 3141 544 3541 
Q 544 4100 942 4425 
Q 1341 4750 2034 4750 
Q 2731 4750 3128 4425 
Q 3525 4100 3525 3541 
Q 3525 3141 3298 2862 
Q 3072 2584 2669 2484 
Q 3125 2378 3379 2068 
Q 3634 1759 3634 1313 
Q 3634 634 3220 271 
Q 2806 -91 2034 -91 
Q 1263 -91 848 271 
Q 434 634 434 1313 
Q 434 1759 690 2068 
Q 947 2378 1403 2484 
z
M 1172 3481 
Q 1172 3119 1398 2916 
Q 1625 2713 2034 2713 
Q 2441 2713 2670 2916 
Q 2900 3119 2900 3481 
Q 2900 3844 2670 4047 
Q 2441 4250 2034 4250 
Q 1625 4250 1398 4047 
Q 1172 3844 1172 3481 
z
" transform="scale(0.015625)"/>
        <path id="DejaVuSans-33" d="M 2597 2516 
Q 3050 2419 3304 2112 
Q 3559 1806 3559 1356 
Q 3559 666 3084 287 
Q 2609 -91 1734 -91 
Q 1441 -91 1130 -33 
Q 819 25 488 141 
L 488 750 
Q 750 597 1062 519 
Q 1375 441 1716 441 
Q 2309 441 2620 675 
Q 2931 909 2931 1356 
Q 2931 1769 2642 2001 
Q 2353 2234 1838 2234 
L 1294 2234 
L 1294 2753 
L 1863 2753 
Q 2328 2753 2575 2939 
Q 2822 3125 2822 3475 
Q 2822 3834 2567 4026 
Q 2313 4219 1838 4219 
Q 1578 4219 1281 4162 
Q 984 4106 628 3988 
L 628 4550 
Q 988 4650 1302 4700 
Q 1616 4750 1894 4750 
Q 2613 4750 3031 4423 
Q 3450 4097 3450 3541 
Q 3450 3153 3228 2886 
Q 3006 2619 2597 2516 
z
" transform="scale(0.015625)"/>
        <path id="DejaVuSans-35" d="M 691 4666 
L 3169 4666 
L 3169 4134 
L 1269 4134 
L 1269 2991 
Q 1406 3038 1543 3061 
Q 1681 3084 1819 3084 
Q 2600 3084 3056 2656 
Q 3513 2228 3513 1497 
Q 3513 744 3044 326 
Q 2575 -91 1722 -91 
Q 1428 -91 1123 -41 
Q 819 9 494 109 
L 494 744 
Q 775 591 1075 516 
Q 1375 441 1709 441 
Q 2250 441 2565 725 
Q 2881 1009 2881 1497 
Q 2881 1984 2565 2268 
Q 2250 2553 1709 2553 
Q 1456 2553 1204 2497 
Q 953 2441 691 2322 
L 691 4666 
z
" transform="scale(0.015625)"/>
       </defs>
       <use xlink:href="#DejaVuSans-30"/>
       <use xlink:href="#DejaVuSans-2e" transform="translate(63.623047 0)"/>
       <use xlink:href="#DejaVuSans-38" transform="translate(95.410156 0)"/>
       <use xlink:href="#DejaVuSans-33" transform="translate(159.033203 0)"/>
       <use xlink:href="#DejaVuSans-33" transform="translate(222.65625 0)"/>
       <use xlink:href="#DejaVuSans-35" transform="translate(286.279297 0)"/>
      </g>
     </g>
    </g>
    <g id="xtick_2">
     <g id="line2d_2">
      <g>
       <use xlink:href="#m193184a0cc" x="124.527273" y="128.16" style="stroke: #000000; stroke-width: 0.8"/>
      </g>
     </g>
     <g id="text_2">
      <!-- 1.2009 -->
      <g transform="translate(121.02821 136.679688) scale(0.02 -0.02)">
       <defs>
        <path id="DejaVuSans-31" d="M 794 531 
L 1825 531 
L 1825 4091 
L 703 3866 
L 703 4441 
L 1819 4666 
L 2450 4666 
L 2450 531 
L 3481 531 
L 3481 0 
L 794 0 
L 794 531 
z
" transform="scale(0.015625)"/>
        <path id="DejaVuSans-32" d="M 1228 531 
L 3431 531 
L 3431 0 
L 469 0 
L 469 531 
Q 828 903 1448 1529 
Q 2069 2156 2228 2338 
Q 2531 2678 2651 2914 
Q 2772 3150 2772 3378 
Q 2772 3750 2511 3984 
Q 2250 4219 1831 4219 
Q 1534 4219 1204 4116 
Q 875 4013 500 3803 
L 500 4441 
Q 881 4594 1212 4672 
Q 1544 4750 1819 4750 
Q 2544 4750 2975 4387 
Q 3406 4025 3406 3419 
Q 3406 3131 3298 2873 
Q 3191 2616 2906 2266 
Q 2828 2175 2409 1742 
Q 1991 1309 1228 531 
z
" transform="scale(0.015625)"/>
        <path id="DejaVuSans-39" d="M 703 97 
L 703 672 
Q 941 559 1184 500 
Q 1428 441 1663 441 
Q 2288 441 2617 861 
Q 2947 1281 2994 2138 
Q 2813 1869 2534 1725 
Q 2256 1581 1919 1581 
Q 1219 1581 811 2004 
Q 403 2428 403 3163 
Q 403 3881 828 4315 
Q 1253 4750 1959 4750 
Q 2769 4750 3195 4129 
Q 3622 3509 3622 2328 
Q 3622 1225 3098 567 
Q 2575 -91 1691 -91 
Q 1453 -91 1209 -44 
Q 966 3 703 97 
z
M 1959 2075 
Q 2384 2075 2632 2365 
Q 2881 2656 2881 3163 
Q 2881 3666 2632 3958 
Q 2384 4250 1959 4250 
Q 1534 4250 1286 3958 
Q 1038 3666 1038 3163 
Q 1038 2656 1286 2365 
Q 1534 2075 1959 2075 
z
" transform="scale(0.015625)"/>
       </defs>
       <use xlink:href="#DejaVuSans-31"/>
       <use xlink:href="#DejaVuSans-2e" transform="translate(63.623047 0)"/>
       <use xlink:href="#DejaVuSans-32" transform="translate(95.410156 0)"/>
       <use xlink:href="#DejaVuSans-30" transform="translate(159.033203 0)"/>
       <use xlink:href="#DejaVuSans-30" transform="translate(222.65625 0)"/>
       <use xlink:href="#DejaVuSans-39" transform="translate(286.279297 0)"/>
      </g>
     </g>
    </g>
   </g>
   <g id="matplotlib.axis_2">
    <g id="ytick_1">
     <g id="line2d_3">
      <defs>
       <path id="m3e13733ad6" d="M 0 0 
L -3.5 0 
" style="stroke: #000000; stroke-width: 0.8"/>
      </defs>
      <g>
       <use xlink:href="#m3e13733ad6" x="18" y="123.12" style="stroke: #000000; stroke-width: 0.8"/>
      </g>
     </g>
     <g id="text_3">
      <!-- 1.716 -->
      <g transform="translate(5.274375 123.879844) scale(0.02 -0.02)">
       <defs>
        <path id="DejaVuSans-37" d="M 525 4666 
L 3525 4666 
L 3525 4397 
L 1831 0 
L 1172 0 
L 2766 4134 
L 525 4134 
L 525 4666 
z
" transform="scale(0.015625)"/>
        <path id="DejaVuSans-36" d="M 2113 2584 
Q 1688 2584 1439 2293 
Q 1191 2003 1191 1497 
Q 1191 994 1439 701 
Q 1688 409 2113 409 
Q 2538 409 2786 701 
Q 3034 994 3034 1497 
Q 3034 2003 2786 2293 
Q 2538 2584 2113 2584 
z
M 3366 4563 
L 3366 3988 
Q 3128 4100 2886 4159 
Q 2644 4219 2406 4219 
Q 1781 4219 1451 3797 
Q 1122 3375 1075 2522 
Q 1259 2794 1537 2939 
Q 1816 3084 2150 3084 
Q 2853 3084 3261 2657 
Q 3669 2231 3669 1497 
Q 3669 778 3244 343 
Q 2819 -91 2113 -91 
Q 1303 -91 875 529 
Q 447 1150 447 2328 
Q 447 3434 972 4092 
Q 1497 4750 2381 4750 
Q 2619 4750 2861 4703 
Q 3103 4656 3366 4563 
z
" transform="scale(0.015625)"/>
       </defs>
       <use xlink:href="#DejaVuSans-31"/>
       <use xlink:href="#DejaVuSans-2e" transform="translate(63.623047 0)"/>
       <use xlink:href="#DejaVuSans-37" transform="translate(95.410156 0)"/>
       <use xlink:href="#DejaVuSans-31" transform="translate(159.033203 0)"/>
       <use xlink:href="#DejaVuSans-36" transform="translate(222.65625 0)"/>
      </g>
     </g>
    </g>
    <g id="ytick_2">
     <g id="line2d_4">
      <g>
       <use xlink:href="#m3e13733ad6" x="18" y="22.32" style="stroke: #000000; stroke-width: 0.8"/>
      </g>
     </g>
     <g id="text_4">
      <!-- 4.696 -->
      <g transform="translate(5.274375 23.079844) scale(0.02 -0.02)">
       <defs>
        <path id="DejaVuSans-34" d="M 2419 4116 
L 825 1625 
L 2419 1625 
L 2419 4116 
z
M 2253 4666 
L 3047 4666 
L 3047 1625 
L 3713 1625 
L 3713 1100 
L 3047 1100 
L 3047 0 
L 2419 0 
L 2419 1100 
L 313 1100 
L 313 1709 
L 2253 4666 
z
" transform="scale(0.015625)"/>
       </defs>
       <use xlink:href="#DejaVuSans-34"/>
       <use xlink:href="#DejaVuSans-2e" transform="translate(63.623047 0)"/>
       <use xlink:href="#DejaVuSans-36" transform="translate(95.410156 0)"/>
       <use xlink:href="#DejaVuSans-39" transform="translate(159.033203 0)"/>
       <use xlink:href="#DejaVuSans-36" transform="translate(222.65625 0)"/>
      </g>
     </g>
    </g>
    <g id="text_5">
     <!-- 1e−8+1.014766e−1 -->
     <g transform="translate(18 14.28) scale(0.1 -0.1)">
      <defs>
       <path id="DejaVuSans-65" d="M 3597 1894 
L 3597 1613 
L 953 1613 
Q 991 1019 1311 708 
Q 1631 397 2203 397 
Q 2534 397 2845 478 
Q 3156 559 3463 722 
L 3463 178 
Q 3153 47 2828 -22 
Q 2503 -91 2169 -91 
Q 1331 -91 842 396 
Q 353 884 353 1716 
Q 353 2575 817 3079 
Q 1281 3584 2069 3584 
Q 2775 3584 3186 3129 
Q 3597 2675 3597 1894 
z
M 3022 2063 
Q 3016 2534 2758 2815 
Q 2500 3097 2075 3097 
Q 1594 3097 1305 2825 
Q 1016 2553 972 2059 
L 3022 2063 
z
" transform="scale(0.015625)"/>
       <path id="DejaVuSans-2212" d="M 678 2272 
L 4684 2272 
L 4684 1741 
L 678 1741 
L 678 2272 
z
" transform="scale(0.015625)"/>
       <path id="DejaVuSans-2b" d="M 2944 4013 
L 2944 2272 
L 4684 2272 
L 4684 1741 
L 2944 1741 
L 2944 0 
L 2419 0 
L 2419 1741 
L 678 1741 
L 678 2272 
L 2419 2272 
L 2419 4013 
L 2944 4013 
z
" transform="scale(0.015625)"/>
      </defs>
      <use xlink:href="#DejaVuSans-31"/>
      <use xlink:href="#DejaVuSans-65" transform="translate(63.623047 0)"/>
      <use xlink:href="#DejaVuSans-2212" transform="translate(125.146484 0)"/>
      <use xlink:href="#DejaVuSans-38" transform="translate(208.935547 0)"/>
      <use xlink:href="#DejaVuSans-2b" transform="translate(272.558594 0)"/>
      <use xlink:href="#DejaVuSans-31" transform="translate(356.347656 0)"/>
      <use xlink:href="#DejaVuSans-2e" transform="translate(419.970703 0)"/>
      <use xlink:href="#DejaVuSans-30" transform="translate(451.757812 0)"/>
      <use xlink:href="#DejaVuSans-31" transform="translate(515.380859 0)"/>
      <use xlink:href="#DejaVuSans-34" transform="translate(579.003906 0)"/>
      <use xlink:href="#DejaVuSans-37" transform="translate(642.626953 0)"/>
      <use xlink:href="#DejaVuSans-36" transform="translate(706.25 0)"/>
      <use xlink:href="#DejaVuSans-36" transform="translate(769.873047 0)"/>
      <use xlink:href="#DejaVuSans-65" transform="translate(833.496094 0)"/>
      <use xlink:href="#DejaVuSans-2212" transform="translate(895.019531 0)"/>
      <use xlink:href="#DejaVuSans-31" transform="translate(978.808594 0)"/>
     </g>
    </g>
   </g>
   <g id="line2d_5">
    <path d="M 23.072727 47.52 
L 23.141549 47.52 
L 23.148346 123.12 
L 23.204907 22.32 
L 23.243136 47.52 
L 23.269055 47.52 
L 23.334026 97.92 
L 23.372091 47.52 
L 23.405267 47.52 
L 23.405267 47.52 
L 23.437769 123.12 
L 23.504271 47.52 
L 23.545297 97.92 
L 23.61328 47.52 
L 23.626988 47.52 
L 23.639758 123.12 
L 23.708778 47.52 
L 23.778636 47.52 
L 23.797693 123.12 
L 23.900942 97.92 
L 24.000851 47.52 
L 24.044527 97.92 
L 24.074379 47.52 
L 24.203597 47.52 
L 24.203597 47.52 
L 24.300477 97.92 
L 24.302057 47.52 
L 24.356414 47.52 
L 24.356907 123.12 
L 24.455943 47.52 
L 24.514101 123.12 
L 24.535149 47.52 
L 24.68456 47.52 
L 24.68456 47.52 
L 24.787035 97.92 
L 24.935507 47.52 
L 25.021263 97.92 
L 25.040271 47.52 
L 25.192281 47.52 
L 25.294016 97.92 
L 25.303166 47.52 
L 25.384264 47.52 
L 25.475698 123.12 
L 25.493175 97.92 
L 25.562655 97.92 
L 25.671433 47.52 
L 25.678872 47.52 
L 25.766471 97.92 
L 25.773481 47.52 
L 25.846055 47.52 
L 25.942935 123.12 
L 25.966337 97.92 
L 26.142012 47.52 
L 26.158831 97.92 
L 26.251153 47.52 
L 26.26496 47.52 
L 26.353184 97.92 
L 26.376536 22.32 
L 26.480855 97.92 
L 26.614055 47.52 
L 26.614055 47.52 
L 26.688884 97.92 
L 26.691928 47.52 
L 26.785418 47.52 
L 26.807767 123.12 
L 26.894312 47.52 
L 26.982487 123.12 
L 27.01884 97.92 
L 27.130646 97.92 
L 27.243901 47.52 
L 27.324078 47.52 
L 27.344205 97.92 
L 27.369861 47.52 
L 27.49847 47.52 
L 27.58987 97.92 
L 27.60445 47.52 
L 27.616958 47.52 
L 27.616958 47.52 
L 27.724963 97.92 
L 27.724963 97.92 
L 27.844882 47.52 
L 27.85864 47.52 
L 27.981835 97.92 
L 28.076773 47.52 
L 28.091667 97.92 
L 28.119232 97.92 
L 28.119232 97.92 
L 28.245866 47.52 
L 28.345017 97.92 
L 28.472063 97.92 
L 28.472063 97.92 
L 28.582997 47.52 
L 28.605131 47.52 
L 28.616256 97.92 
L 28.635889 47.52 
L 28.869607 47.52 
L 28.918187 97.92 
L 28.870298 22.32 
L 28.918203 47.52 
L 29.04933 47.52 
L 29.04933 47.52 
L 29.055402 97.92 
L 29.160412 47.52 
L 29.171636 97.92 
L 29.194461 47.52 
L 29.284677 47.52 
L 29.284677 47.52 
L 29.335396 97.92 
L 29.36617 47.52 
L 29.440851 47.52 
L 29.440851 47.52 
L 29.478191 97.92 
L 29.539821 47.52 
L 29.586393 47.52 
L 29.637508 97.92 
L 29.637508 97.92 
L 29.784384 47.52 
L 29.880112 47.52 
L 30.028551 97.92 
L 30.029999 47.52 
L 30.084125 97.92 
L 30.237074 47.52 
L 30.565055 47.52 
L 30.644837 97.92 
L 30.666214 47.52 
L 30.724619 47.52 
L 30.724619 47.52 
L 30.886322 97.92 
L 30.886322 97.92 
L 30.988716 97.92 
L 30.988716 97.92 
L 31.050264 47.52 
L 31.050264 47.52 
L 31.321453 47.52 
L 31.423336 97.92 
L 31.436518 97.92 
L 31.533037 47.52 
L 31.553114 47.52 
L 31.62995 97.92 
L 31.657169 47.52 
L 31.679123 47.52 
L 31.713649 97.92 
L 31.691399 22.32 
L 31.783277 47.52 
L 31.839575 47.52 
L 31.839575 47.52 
L 31.910701 123.12 
L 31.936686 47.52 
L 31.97633 47.52 
L 32.062711 97.92 
L 32.07739 47.52 
L 32.088729 47.52 
L 32.088729 47.52 
L 32.10094 123.12 
L 32.199664 97.92 
L 32.312507 47.52 
L 32.312507 47.52 
L 32.354109 47.52 
L 32.416809 97.92 
L 32.463431 47.52 
L 32.466163 22.32 
L 32.483837 97.92 
L 32.544332 97.92 
L 32.580849 97.92 
L 32.580849 97.92 
L 32.631404 22.32 
L 32.685432 47.52 
L 32.711565 47.52 
L 32.711565 47.52 
L 32.791001 123.12 
L 32.792647 97.92 
L 32.891206 47.52 
L 32.891206 47.52 
L 32.994241 97.92 
L 33.109076 47.52 
L 33.126174 47.52 
L 33.126174 47.52 
L 33.221179 97.92 
L 33.221442 47.52 
L 33.308629 123.12 
L 33.308629 123.12 
L 33.435115 47.52 
L 33.54995 97.92 
L 33.559034 97.92 
L 33.668948 22.32 
L 33.770387 97.92 
L 33.800157 47.52 
L 33.837794 47.52 
L 33.866231 123.12 
L 33.941125 47.52 
L 33.958256 47.52 
L 33.958256 47.52 
L 34.054314 97.92 
L 34.006145 22.32 
L 34.056569 47.52 
L 34.151507 47.52 
L 34.232869 97.92 
L 34.262606 47.52 
L 34.362564 97.92 
L 34.362597 47.52 
L 34.409762 47.52 
L 34.50312 97.92 
L 34.51125 47.52 
L 34.56248 47.52 
L 34.595393 123.12 
L 34.669843 22.32 
L 34.781074 97.92 
L 34.859671 22.32 
L 34.891695 47.52 
L 34.985498 97.92 
L 34.999338 47.52 
L 35.137788 97.92 
L 35.147004 97.92 
L 35.147004 97.92 
L 35.248196 22.32 
L 35.251965 97.92 
L 35.259272 97.92 
L 35.371177 47.52 
L 35.425599 47.52 
L 35.494273 97.92 
L 35.534773 47.52 
L 35.587648 47.52 
L 35.703618 123.12 
L 35.821053 47.52 
L 35.884362 97.92 
L 35.855135 22.32 
L 35.926557 47.52 
L 35.939969 47.52 
L 36.042099 97.92 
L 36.042099 97.92 
L 36.15644 47.52 
L 36.15644 47.52 
L 36.248532 97.92 
L 36.248532 97.92 
L 36.299909 22.32 
L 36.35833 97.92 
L 36.469462 47.52 
L 36.490889 97.92 
L 36.570161 47.52 
L 36.601642 47.52 
L 36.630458 22.32 
L 36.711474 97.92 
L 36.788228 47.52 
L 36.909135 97.92 
L 37.000108 47.52 
L 37.061623 47.52 
L 37.065704 123.12 
L 37.132897 47.52 
L 37.200501 47.52 
L 37.200501 47.52 
L 37.268549 97.92 
L 37.268549 97.92 
L 37.393175 47.52 
L 37.476759 97.92 
L 37.499173 47.52 
L 37.611407 47.52 
L 37.700273 97.92 
L 37.70029 47.52 
L 37.796199 47.52 
L 37.796232 97.92 
L 37.901719 47.52 
L 37.931012 47.52 
L 37.940524 123.12 
L 38.004574 47.52 
L 38.046571 22.32 
L 38.061283 47.52 
L 38.1645 97.92 
L 38.168762 47.52 
L 38.254732 97.92 
L 38.358655 47.52 
L 38.358672 97.92 
L 38.38989 97.92 
L 38.510337 47.52 
L 38.602264 47.52 
L 38.70622 97.92 
L 38.757121 22.32 
L 38.757137 47.52 
L 38.819525 97.92 
L 38.867858 47.52 
L 38.997635 47.52 
L 39.012314 97.92 
L 39.082074 47.52 
L 39.218039 47.52 
L 39.218039 47.52 
L 39.315627 97.92 
L 39.315627 97.92 
L 39.397549 47.52 
L 39.480046 97.92 
L 39.497852 47.52 
L 39.563053 47.52 
L 39.563053 47.52 
L 39.596888 22.32 
L 39.642391 47.52 
L 39.722486 97.92 
L 39.74773 47.52 
L 39.764648 47.52 
L 39.77309 97.92 
L 39.861183 47.52 
L 39.885176 47.52 
L 39.918007 97.92 
L 39.98678 47.52 
L 39.998316 47.52 
L 40.090589 97.92 
L 40.093748 47.52 
L 40.224299 47.52 
L 40.323845 97.92 
L 40.408894 47.52 
L 40.442909 97.92 
L 40.442909 97.92 
L 40.543805 47.52 
L 40.621991 97.92 
L 40.632046 47.52 
L 40.908057 47.52 
L 41.026842 123.12 
L 41.131424 47.52 
L 41.13144 97.92 
L 41.196098 47.52 
L 41.196098 47.52 
L 41.285129 47.52 
L 41.285129 47.52 
L 41.386387 97.92 
L 41.386387 97.92 
L 41.531271 47.52 
L 41.531304 97.92 
L 41.639342 47.52 
L 41.775044 97.92 
L 41.775044 97.92 
L 41.883346 47.52 
L 41.883346 47.52 
L 42.002064 47.52 
L 42.00208 22.32 
L 42.097282 47.52 
L 42.174777 47.52 
L 42.174777 47.52 
L 42.286797 97.92 
L 42.399526 47.52 
L 42.482385 97.92 
L 42.490136 47.52 
L 42.606896 47.52 
L 42.606896 47.52 
L 42.679026 97.92 
L 42.690693 47.52 
L 42.719048 47.52 
L 42.719048 47.52 
L 42.766674 97.92 
L 42.822347 47.52 
L 42.930286 47.52 
L 42.930286 47.52 
L 42.949096 97.92 
L 43.030688 22.32 
L 43.032071 47.52 
L 43.116938 47.52 
L 43.166703 97.92 
L 43.187718 47.52 
L 43.361813 47.52 
L 43.361813 47.52 
L 43.379323 97.92 
L 43.466922 47.52 
L 43.605421 47.52 
L 43.68935 97.92 
L 43.712307 47.52 
L 43.802506 47.52 
L 43.802506 47.52 
L 43.875705 97.92 
L 43.876166 47.52 
L 44.101277 47.52 
L 44.101294 97.92 
L 44.203835 47.52 
L 44.332345 47.52 
L 44.332362 97.92 
L 44.428172 47.52 
L 44.513385 47.52 
L 44.513385 47.52 
L 44.566803 97.92 
L 44.569683 22.32 
L 44.606332 47.52 
L 44.643952 97.92 
L 44.709121 47.52 
L 44.734497 47.52 
L 44.734497 47.52 
L 44.749983 97.92 
L 44.828629 47.52 
L 44.866529 47.52 
L 44.866529 47.52 
L 44.879118 97.92 
L 44.935499 47.52 
L 45.000667 47.52 
L 45.000667 47.52 
L 45.103225 97.92 
L 45.103258 47.52 
L 45.232591 97.92 
L 45.320914 47.52 
L 45.32093 97.92 
L 45.439139 47.52 
L 45.439139 47.52 
L 45.555817 47.52 
L 45.670437 97.92 
L 45.670437 97.92 
L 45.817033 47.52 
L 45.81705 97.92 
L 45.903233 47.52 
L 46.006581 47.52 
L 46.027415 97.92 
L 46.073346 47.52 
L 46.42644 47.52 
L 46.435738 97.92 
L 46.533047 47.52 
L 46.653147 97.92 
L 46.728782 47.52 
L 46.728782 47.52 
L 46.892411 47.52 
L 46.892427 97.92 
L 46.966071 47.52 
L 47.07564 47.52 
L 47.075656 22.32 
L 47.173656 97.92 
L 47.275078 47.52 
L 47.305589 47.52 
L 47.330191 97.92 
L 47.38565 47.52 
L 47.695546 47.52 
L 47.706473 97.92 
L 47.783079 47.52 
L 47.860113 47.52 
L 47.91832 97.92 
L 47.951875 47.52 
L 48.028168 47.52 
L 48.090144 97.92 
L 48.126398 47.52 
L 48.325178 47.52 
L 48.348218 97.92 
L 48.420973 47.52 
L 48.619193 47.52 
L 48.619193 47.52 
L 48.621151 97.92 
L 48.720303 47.52 
L 48.815636 97.92 
L 48.95565 47.52 
L 49.220685 47.52 
L 49.324329 97.92 
L 49.439328 47.52 
L 49.466366 97.92 
L 49.541688 47.52 
L 49.611218 47.52 
L 49.679414 97.92 
L 49.708575 47.52 
L 49.806723 47.52 
L 49.806723 47.52 
L 49.87204 22.32 
L 49.89921 123.12 
L 50.088823 47.52 
L 50.096196 97.92 
L 50.128632 22.32 
L 50.191645 47.52 
L 50.224393 47.52 
L 50.267428 97.92 
L 50.324335 47.52 
L 50.381258 47.52 
L 50.381275 22.32 
L 50.455873 97.92 
L 50.455889 47.52 
L 50.521716 47.52 
L 50.556094 97.92 
L 50.584449 47.52 
L 50.684209 47.52 
L 50.75048 97.92 
L 50.788545 47.52 
L 50.83594 47.52 
L 50.839001 22.32 
L 50.931668 47.52 
L 50.990764 47.52 
L 51.066876 97.92 
L 51.066893 47.52 
L 51.104233 47.52 
L 51.104233 47.52 
L 51.16086 97.92 
L 51.204536 47.52 
L 51.218459 47.52 
L 51.313595 97.92 
L 51.313611 47.52 
L 51.332355 47.52 
L 51.416087 97.92 
L 51.440311 47.52 
L 51.535809 47.52 
L 51.535826 123.12 
L 51.581411 47.52 
L 51.650496 97.92 
L 51.679657 47.52 
L 51.789209 47.52 
L 51.815754 123.12 
L 51.899765 47.52 
L 51.999805 47.52 
L 51.999805 47.52 
L 52.068446 22.32 
L 52.07646 97.92 
L 52.259376 47.52 
L 52.351287 47.52 
L 52.428189 22.32 
L 52.441519 47.52 
L 52.514093 47.52 
L 52.620584 97.92 
L 52.726861 47.52 
L 52.726894 97.92 
L 52.820252 22.32 
L 52.87089 47.52 
L 52.953206 47.52 
L 53.07301 97.92 
L 53.166073 47.52 
L 53.166073 47.52 
L 53.201504 47.52 
L 53.243897 97.92 
L 53.269372 47.52 
L 53.351803 47.52 
L 53.37685 97.92 
L 53.459413 47.52 
L 53.544478 47.52 
L 53.547654 123.12 
L 53.63675 47.52 
L 53.679867 97.92 
L 53.710822 47.52 
L 53.736066 22.32 
L 53.801712 47.52 
L 53.840764 47.52 
L 53.929202 97.92 
L 53.929301 47.52 
L 53.997069 22.32 
L 54.032188 97.92 
L 54.195323 47.52 
L 54.234292 47.52 
L 54.318089 97.92 
L 54.337591 47.52 
L 54.386845 47.52 
L 54.386845 47.52 
L 54.51896 97.92 
L 54.51896 97.92 
L 54.596059 22.32 
L 54.636542 47.52 
L 54.769743 47.52 
L 54.769743 47.52 
L 54.819129 22.32 
L 54.904967 123.12 
L 55.004168 47.52 
L 55.045392 22.32 
L 55.094153 47.52 
L 55.164719 47.52 
L 55.164719 47.52 
L 55.273597 97.92 
L 55.273597 97.92 
L 55.326571 22.32 
L 55.375826 47.52 
L 55.577321 47.52 
L 55.577321 47.52 
L 55.611534 22.32 
L 55.677608 47.52 
L 55.744274 47.52 
L 55.744274 47.52 
L 55.828351 97.92 
L 55.843212 47.52 
L 55.882296 47.52 
L 55.984426 97.92 
L 55.984443 47.52 
L 55.996867 123.12 
L 56.065409 47.52 
L 56.21584 97.92 
L 56.21584 97.92 
L 56.277125 47.52 
L 56.277141 97.92 
L 56.361745 97.92 
L 56.465767 47.52 
L 56.385163 123.12 
L 56.465767 47.52 
L 56.506119 47.52 
L 56.562154 97.92 
L 56.597355 47.52 
L 56.645968 47.52 
L 56.645968 47.52 
L 56.688755 97.92 
L 56.713967 47.52 
L 56.767698 47.52 
L 56.767698 47.52 
L 56.870865 97.92 
L 56.870881 47.52 
L 56.923658 47.52 
L 56.923658 47.52 
L 56.994751 22.32 
L 57.117205 47.52 
L 57.279056 47.52 
L 57.279073 97.92 
L 57.366507 47.52 
L 57.417934 97.92 
L 57.468621 47.52 
L 57.61808 47.52 
L 57.625486 97.92 
L 57.725032 47.52 
L 57.730891 47.52 
L 57.730907 97.92 
L 57.794578 47.52 
L 57.928387 47.52 
L 57.949501 22.32 
L 57.949534 97.92 
L 57.97389 47.52 
L 58.046908 47.52 
L 58.060765 97.92 
L 58.143328 47.52 
L 58.171403 47.52 
L 58.175533 22.32 
L 58.276939 97.92 
L 58.42839 47.52 
L 58.433113 97.92 
L 58.525501 47.52 
L 58.556357 47.52 
L 58.656151 22.32 
L 58.656151 22.32 
L 58.704912 97.92 
L 58.764073 47.52 
L 58.799916 22.32 
L 58.815846 47.52 
L 58.876423 97.92 
L 58.886314 22.32 
L 58.903001 47.52 
L 59.074084 47.52 
L 59.074084 47.52 
L 59.182616 97.92 
L 59.182616 97.92 
L 59.306387 47.52 
L 59.306387 47.52 
L 59.364495 47.52 
L 59.468287 22.32 
L 59.583237 97.92 
L 59.703601 47.52 
L 59.703601 47.52 
L 59.786099 47.52 
L 59.786099 47.52 
L 59.797865 97.92 
L 59.859216 47.52 
L 60.033146 47.52 
L 60.033146 47.52 
L 60.086729 22.32 
L 60.194932 97.92 
L 60.201679 47.52 
L 60.247511 47.52 
L 60.247527 97.92 
L 60.336443 47.52 
L 60.600227 47.52 
L 60.63388 22.32 
L 60.652131 97.92 
L 60.719899 97.92 
L 60.719899 97.92 
L 60.833763 47.52 
L 60.833763 47.52 
L 60.873539 47.52 
L 60.878525 97.92 
L 60.880895 22.32 
L 60.983256 47.52 
L 61.129177 47.52 
L 61.178958 22.32 
L 61.140055 97.92 
L 61.229941 97.92 
L 61.306728 22.32 
L 61.336877 47.52 
L 61.540906 47.52 
L 61.615258 22.32 
L 61.658177 97.92 
L 61.766281 47.52 
L 61.90297 47.52 
L 61.910112 97.92 
L 61.985862 47.52 
L 62.02702 47.52 
L 62.074744 97.92 
L 62.126451 47.52 
L 62.170407 47.52 
L 62.170424 97.92 
L 62.245005 47.52 
L 62.371508 47.52 
L 62.371508 47.52 
L 62.387059 97.92 
L 62.475892 47.52 
L 62.53461 47.52 
L 62.53461 47.52 
L 62.55862 22.32 
L 62.548104 97.92 
L 62.61923 47.52 
L 62.685254 97.92 
L 62.692001 47.52 
L 62.871675 47.52 
L 62.886206 97.92 
L 62.971452 47.52 
L 63.108108 47.52 
L 63.108108 47.52 
L 63.140544 123.12 
L 63.199887 47.52 
L 63.434839 47.52 
L 63.434855 97.92 
L 63.531818 47.52 
L 63.695414 47.52 
L 63.69543 97.92 
L 63.923635 47.52 
L 63.923635 47.52 
L 63.96374 97.92 
L 63.987652 47.52 
L 64.019956 22.32 
L 64.096578 47.52 
L 64.169037 47.52 
L 64.1915 97.92 
L 64.239751 47.52 
L 64.556526 47.52 
L 64.598211 97.92 
L 64.663774 47.52 
L 64.691405 47.52 
L 64.692079 97.92 
L 64.796793 47.52 
L 64.843563 47.52 
L 64.843612 97.92 
L 64.910772 47.52 
L 65.008656 97.92 
L 65.017049 22.32 
L 65.107084 47.52 
L 65.149608 97.92 
L 65.175593 47.52 
L 65.242539 47.52 
L 65.270729 97.92 
L 65.325711 47.52 
L 65.427561 47.52 
L 65.427561 47.52 
L 65.437797 22.32 
L 65.528078 97.92 
L 65.635886 47.52 
L 65.676863 47.52 
L 65.738905 22.32 
L 65.764297 97.92 
L 65.781215 47.52 
L 65.962452 47.52 
L 65.962469 97.92 
L 66.064516 47.52 
L 66.087506 97.92 
L 66.118708 47.52 
L 66.404495 47.52 
L 66.481726 97.92 
L 66.481726 97.92 
L 66.572797 47.52 
L 66.731324 47.52 
L 66.772351 97.92 
L 66.803849 22.32 
L 66.920774 97.92 
L 66.965124 47.52 
L 67.1225 47.52 
L 67.1225 47.52 
L 67.142445 97.92 
L 67.175984 47.52 
L 67.298059 47.52 
L 67.368625 97.92 
L 67.368625 97.92 
L 67.500509 47.52 
L 67.511733 97.92 
L 67.603331 47.52 
L 67.631126 47.52 
L 67.631126 47.52 
L 67.71201 97.92 
L 67.71201 97.92 
L 67.910889 47.52 
L 67.998587 22.32 
L 67.998603 47.52 
L 68.114919 47.52 
L 68.127048 97.92 
L 68.179857 47.52 
L 68.303052 47.52 
L 68.303052 47.52 
L 68.314983 97.92 
L 68.368434 47.52 
L 68.762209 47.52 
L 68.844526 97.92 
L 68.865574 47.52 
L 69.048193 47.52 
L 69.048226 97.92 
L 69.049461 47.52 
L 69.217187 47.52 
L 69.263068 22.32 
L 69.289004 47.52 
L 69.688638 47.52 
L 69.73623 22.32 
L 69.749626 47.52 
L 69.854356 47.52 
L 69.854356 47.52 
L 69.869793 22.32 
L 69.957408 47.52 
L 70.375111 47.52 
L 70.375144 97.92 
L 70.391469 22.32 
L 70.418195 47.52 
L 70.528488 97.92 
L 70.589114 22.32 
L 70.669159 47.52 
L 70.970777 47.52 
L 71.148641 22.32 
L 71.148641 22.32 
L 71.301161 47.52 
L 71.301161 47.52 
L 71.363795 47.52 
L 71.363828 97.92 
L 71.425343 47.52 
L 72.027164 47.52 
L 72.043818 97.92 
L 72.130314 47.52 
L 72.538835 47.52 
L 72.538868 97.92 
L 72.592319 22.32 
L 72.758433 47.52 
L 72.758433 47.52 
L 73.121368 47.52 
L 73.121401 97.92 
L 73.214513 47.52 
L 73.636988 47.52 
L 73.636988 47.52 
L 73.677274 97.92 
L 73.729771 47.52 
L 74.170514 47.52 
L 74.170514 47.52 
L 74.170744 97.92 
L 74.25622 47.52 
L 74.298612 97.92 
L 74.345942 47.52 
L 74.997626 47.52 
L 74.997659 22.32 
L 75.076684 97.92 
L 75.07675 47.52 
L 75.844849 47.52 
L 76.060003 22.32 
L 76.060003 22.32 
L 76.157854 47.52 
L 76.192282 22.32 
L 76.199687 97.92 
L 76.252645 47.52 
L 77.10408 47.52 
L 77.142753 22.32 
L 77.138508 97.92 
L 77.180143 47.52 
L 77.258806 47.52 
L 77.290699 22.32 
L 77.473894 47.52 
L 77.473894 47.52 
L 77.560588 47.52 
L 77.596694 97.92 
L 77.667754 47.52 
L 77.793944 47.52 
L 77.808821 22.32 
L 77.882942 47.52 
L 78.52778 47.52 
L 78.529788 22.32 
L 78.529788 22.32 
L 78.692116 47.52 
L 78.702451 97.92 
L 78.895389 47.52 
L 78.895389 47.52 
L 79.283339 47.52 
L 79.283339 47.52 
L 79.288276 22.32 
L 79.288308 97.92 
L 79.341266 47.52 
L 79.505569 47.52 
L 79.683334 22.32 
L 79.683334 22.32 
L 79.831214 47.52 
L 79.831214 47.52 
L 79.975868 47.52 
L 79.975934 97.92 
L 80.083429 22.32 
L 80.083429 22.32 
L 80.210475 47.52 
L 80.508439 47.52 
L 80.508439 47.52 
L 80.622352 97.92 
L 80.713325 47.52 
L 81.246685 47.52 
L 81.246751 97.92 
L 81.284503 47.52 
L 82.133305 47.52 
L 82.136893 22.32 
L 82.219308 47.52 
L 82.487913 47.52 
L 82.487979 97.92 
L 82.574179 47.52 
L 83.012289 47.52 
L 83.067517 22.32 
L 83.088549 47.52 
L 83.179653 47.52 
L 83.18696 22.32 
L 83.263681 47.52 
L 83.333062 47.52 
L 83.333062 47.52 
L 83.468961 22.32 
L 83.496082 97.92 
L 83.549599 47.52 
L 83.928399 47.52 
L 83.928399 47.52 
L 83.933138 97.92 
L 83.933171 22.32 
L 84.007621 47.52 
L 84.06183 47.52 
L 84.06183 47.52 
L 84.137135 97.92 
L 84.143751 22.32 
L 84.223566 47.52 
L 84.983897 47.52 
L 84.983897 47.52 
L 85.108342 22.32 
L 85.178645 47.52 
L 85.231767 22.32 
L 85.2318 97.92 
L 85.266853 47.52 
L 85.473944 47.52 
L 85.473944 47.52 
L 85.554779 97.92 
L 85.554812 47.52 
L 85.657106 47.52 
L 85.681693 97.92 
L 85.681759 47.52 
L 85.794915 22.32 
L 85.871471 47.52 
L 87.106149 47.52 
L 87.106149 47.52 
L 87.130209 123.12 
L 87.289674 47.52 
L 87.703362 47.52 
L 87.703395 123.12 
L 87.805657 47.52 
L 88.54986 47.52 
L 88.616938 97.92 
L 88.644815 47.52 
L 88.909373 47.52 
L 88.990373 97.92 
L 88.945545 22.32 
L 89.001859 47.52 
L 89.6648 47.52 
L 89.746524 97.92 
L 89.757846 47.52 
L 89.876861 47.52 
L 89.876893 97.92 
L 89.975271 47.52 
L 90.16709 47.52 
L 90.210964 97.92 
L 90.273236 47.52 
L 90.634032 47.52 
L 90.742383 22.32 
L 90.814134 47.52 
L 90.814134 47.52 
L 90.839773 97.92 
L 90.876406 47.52 
L 92.552748 47.52 
L 92.59626 97.92 
L 92.59626 97.92 
L 92.755231 47.52 
L 92.755231 47.52 
L 92.988027 22.32 
L 92.98806 47.52 
L 93.323842 47.52 
L 93.641324 97.92 
L 93.767876 47.52 
L 94.154542 47.52 
L 94.240018 22.32 
L 94.240018 22.32 
L 94.330135 47.52 
L 94.433219 47.52 
L 94.433219 47.52 
L 94.628461 22.32 
L 94.810242 97.92 
L 94.810242 97.92 
L 94.891735 47.52 
L 95.280935 47.52 
L 95.298215 22.32 
L 95.298248 47.52 
L 95.714635 47.52 
L 95.714668 22.32 
L 95.795569 47.52 
L 96.701837 47.52 
L 96.70187 97.92 
L 96.848532 47.52 
L 96.848532 47.52 
L 97.000855 47.52 
L 97.109996 97.92 
L 97.109996 97.92 
L 97.176185 47.52 
L 97.323669 47.52 
L 97.456705 97.92 
L 97.456705 97.92 
L 97.602939 22.32 
L 97.763095 97.92 
L 97.807528 47.52 
L 97.92029 47.52 
L 97.92029 47.52 
L 97.932303 22.32 
L 97.932303 22.32 
L 98.043912 47.52 
L 98.254327 47.52 
L 98.590274 97.92 
L 98.590274 97.92 
L 98.711888 22.32 
L 98.714357 47.52 
L 99.309397 47.52 
L 99.355739 97.92 
L 99.355739 97.92 
L 99.528633 47.52 
L 99.528633 47.52 
L 99.636786 47.52 
L 99.759125 97.92 
L 99.759125 97.92 
L 99.796219 47.52 
L 99.796251 97.92 
L 99.879555 97.92 
L 99.89825 22.32 
L 99.930044 47.52 
L 100.333463 47.52 
L 100.340638 97.92 
L 100.340638 97.92 
L 100.585086 47.52 
L 100.585086 47.52 
L 100.747974 97.92 
L 100.747974 97.92 
L 100.749554 47.52 
L 101.224888 47.52 
L 101.263199 22.32 
L 101.313227 47.52 
L 101.912415 47.52 
L 101.912448 22.32 
L 102.020173 47.52 
L 102.382483 47.52 
L 102.382483 47.52 
L 102.401738 97.92 
L 102.401803 47.52 
L 102.495771 47.52 
L 102.558899 97.92 
L 102.571044 47.52 
L 102.862952 47.52 
L 102.862985 22.32 
L 102.912684 97.92 
L 102.950502 47.52 
L 103.700037 47.52 
L 103.846041 97.92 
L 103.851603 22.32 
L 104.086572 47.52 
L 104.910261 47.52 
L 104.91036 97.92 
L 104.951205 47.52 
L 106.117918 47.52 
L 106.11795 97.92 
L 106.203525 47.52 
L 107.616298 47.52 
L 107.724648 22.32 
L 107.957379 47.52 
L 107.957379 47.52 
L 108.349969 47.52 
L 108.459899 22.32 
L 108.466285 47.52 
L 108.466285 47.52 
L 108.748582 47.52 
L 108.748615 22.32 
L 109.084562 97.92 
L 109.19051 47.52 
L 109.586128 47.52 
L 109.586161 22.32 
L 109.742533 47.52 
L 109.793022 97.92 
L 109.793054 47.52 
L 110.64946 47.52 
L 110.650283 22.32 
L 110.740004 47.52 
L 110.77532 22.32 
L 110.775353 47.52 
L 111.065517 22.32 
L 111.170017 97.92 
L 111.357755 47.52 
L 111.475881 97.92 
L 111.47598 47.52 
L 111.51959 97.92 
L 111.602597 47.52 
L 111.61991 97.92 
L 111.87772 47.52 
L 111.896283 97.92 
L 111.896316 22.32 
L 111.9446 47.52 
L 112.319285 47.52 
L 112.319351 22.32 
L 112.439649 47.52 
L 112.759073 47.52 
L 113.058322 97.92 
L 113.163644 47.52 
L 113.294442 47.52 
L 113.325446 22.32 
L 113.325446 22.32 
L 113.525329 47.52 
L 113.525329 47.52 
L 113.759639 47.52 
L 114.071131 22.32 
L 114.071131 22.32 
L 114.493278 47.52 
L 114.493278 47.52 
L 114.735454 97.92 
L 114.756486 22.32 
L 114.756551 47.52 
L 116.351861 47.52 
L 116.351894 97.92 
L 116.407616 47.52 
L 117.423421 47.52 
L 117.487964 22.32 
L 117.487964 22.32 
L 117.689855 97.92 
L 117.689887 22.32 
L 117.71296 47.52 
L 117.809132 97.92 
L 117.87858 22.32 
L 117.87858 22.32 
L 118.205738 47.52 
L 118.281735 97.92 
L 118.281834 47.52 
L 118.700228 47.52 
L 119.063987 97.92 
L 119.063987 97.92 
L 119.193402 47.52 
L 119.90015 47.52 
L 119.900216 22.32 
L 120.352972 47.52 
L 120.352972 47.52 
L 120.520764 22.32 
L 121.03757 47.52 
L 121.037635 97.92 
L 121.631063 47.52 
L 122.793628 47.52 
L 123.207744 97.92 
L 123.584338 47.52 
L 124.527273 47.52 
L 124.527273 47.52 
" clip-path="url(#p4bcf6d68ad)" style="fill: none; stroke: #000000; stroke-width: 5; stroke-linecap: square"/>
   </g>
   <g id="patch_3">
    <path d="M 18 128.16 
L 18 17.28 
" style="fill: none; stroke: #000000; stroke-width: 0.8; stroke-linejoin: miter; stroke-linecap: square"/>
   </g>
   <g id="patch_4">
    <path d="M 129.6 128.16 
L 129.6 17.28 
" style="fill: none; stroke: #000000; stroke-width: 0.8; stroke-linejoin: miter; stroke-linecap: square"/>
   </g>
   <g id="patch_5">
    <path d="M 18 128.16 
L 129.6 128.16 
" style="fill: none; stroke: #000000; stroke-width: 0.8; stroke-linejoin: miter; stroke-linecap: square"/>
   </g>
   <g id="patch_6">
    <path d="M 18 17.28 
L 129.6 17.28 
" style="fill: none; stroke: #000000; stroke-width: 0.8; stroke-linejoin: miter; stroke-linecap: square"/>
   </g>
  </g>
 </g>
 <defs>
  <clipPath id="p4bcf6d68ad">
   <rect x="18" y="17.28" width="111.6" height="110.88"/>
  </clipPath>
 </defs>
</svg>
