<?xml version="1.0" encoding="utf-8" standalone="no"?>
<!DOCTYPE svg PUBLIC "-//W3C//DTD SVG 1.1//EN"
  "http://www.w3.org/Graphics/SVG/1.1/DTD/svg11.dtd">
<svg xmlns:xlink="http://www.w3.org/1999/xlink" width="144pt" height="144pt" viewBox="0 0 144 144" xmlns="http://www.w3.org/2000/svg" version="1.1">
 <metadata>
  <rdf:RDF xmlns:dc="http://purl.org/dc/elements/1.1/" xmlns:cc="http://creativecommons.org/ns#" xmlns:rdf="http://www.w3.org/1999/02/22-rdf-syntax-ns#">
   <cc:Work>
    <dc:type rdf:resource="http://purl.org/dc/dcmitype/StillImage"/>
    <dc:date>2026-05-21T17:07:34.357197</dc:date>
    <dc:format>image/svg+xml</dc:format>
    <dc:creator>
     <cc:Agent>
      <dc:title>Matplotlib v3.10.9, https://matplotlib.org/</dc:title>
     </cc:Agent>
    </dc:creator>
   </cc:Work>
  </rdf:RDF>
 </metadata>
 <defs>
  <style type="text/css">*{stroke-linejoin: round; stroke-linecap: butt}</style>
 </defs>
 <g id="figure_1">
  <g id="patch_1">
   <path d="M 0 144 
L 144 144 
L 144 0 
L 0 0 
z
" style="fill: #ffffff"/>
  </g>
  <g id="axes_1">
   <g id="patch_2">
    <path d="M 18 128.16 
L 129.6 128.16 
L 129.6 17.28 
L 18 17.28 
z
" style="fill: #ffffff; stroke: #000000; stroke-width: 1.5; stroke-linejoin: miter"/>
   </g>
   <g id="matplotlib.axis_1">
    <g id="xtick_1">
     <g id="line2d_1">
      <defs>
       <path id="mab4822ab00" d="M 0 0 
L 0 3.5 
" style="stroke: #000000; stroke-width: 0.8"/>
      </defs>
      <g>
       <use xlink:href="#mab4822ab00" x="23.072727" y="128.16" style="stroke: #000000; stroke-width: 0.8"/>
      </g>
     </g>
     <g id="text_1">
      <!-- 0 -->
      <g transform="translate(22.436477 136.679688) scale(0.02 -0.02)">
       <defs>
        <path id="DejaVuSans-30" d="M 2034 4250 
Q 1547 4250 1301 3770 
Q 1056 3291 1056 2328 
Q 1056 1369 1301 889 
Q 1547 409 2034 409 
Q 2525 409 2770 889 
Q 3016 1369 3016 2328 
Q 3016 3291 2770 3770 
Q 2525 4250 2034 4250 
z
M 2034 4750 
Q 2819 4750 3233 4129 
Q 3647 3509 3647 2328 
Q 3647 1150 3233 529 
Q 2819 -91 2034 -91 
Q 1250 -91 836 529 
Q 422 1150 422 2328 
Q 422 3509 836 4129 
Q 1250 4750 2034 4750 
z
" transform="scale(0.015625)"/>
       </defs>
       <use xlink:href="#DejaVuSans-30"/>
      </g>
     </g>
    </g>
    <g id="xtick_2">
     <g id="line2d_2">
      <g>
       <use xlink:href="#mab4822ab00" x="124.527273" y="128.16" style="stroke: #000000; stroke-width: 0.8"/>
      </g>
     </g>
     <g id="text_2">
      <!-- 4 -->
      <g transform="translate(123.891023 136.679688) scale(0.02 -0.02)">
       <defs>
        <path id="DejaVuSans-34" d="M 2419 4116 
L 825 1625 
L 2419 1625 
L 2419 4116 
z
M 2253 4666 
L 3047 4666 
L 3047 1625 
L 3713 1625 
L 3713 1100 
L 3047 1100 
L 3047 0 
L 2419 0 
L 2419 1100 
L 313 1100 
L 313 1709 
L 2253 4666 
z
" transform="scale(0.015625)"/>
       </defs>
       <use xlink:href="#DejaVuSans-34"/>
      </g>
     </g>
    </g>
   </g>
   <g id="matplotlib.axis_2">
    <g id="ytick_1">
     <g id="line2d_3">
      <defs>
       <path id="mf6fd438e02" d="M 0 0 
L -3.5 0 
" style="stroke: #000000; stroke-width: 0.8"/>
      </defs>
      <g>
       <use xlink:href="#mf6fd438e02" x="18" y="123.12" style="stroke: #000000; stroke-width: 0.8"/>
      </g>
     </g>
     <g id="text_3">
      <!-- −0.08232866 -->
      <g transform="translate(-2.764062 123.879844) scale(0.02 -0.02)">
       <defs>
        <path id="DejaVuSans-2212" d="M 678 2272 
L 4684 2272 
L 4684 1741 
L 678 1741 
L 678 2272 
z
" transform="scale(0.015625)"/>
        <path id="DejaVuSans-2e" d="M 684 794 
L 1344 794 
L 1344 0 
L 684 0 
L 684 794 
z
" transform="scale(0.015625)"/>
        <path id="DejaVuSans-38" d="M 2034 2216 
Q 1584 2216 1326 1975 
Q 1069 1734 1069 1313 
Q 1069 891 1326 650 
Q 1584 409 2034 409 
Q 2484 409 2743 651 
Q 3003 894 3003 1313 
Q 3003 1734 2745 1975 
Q 2488 2216 2034 2216 
z
M 1403 2484 
Q 997 2584 770 2862 
Q 544 3141 544 3541 
Q 544 4100 942 4425 
Q 1341 4750 2034 4750 
Q 2731 4750 3128 4425 
Q 3525 4100 3525 3541 
Q 3525 3141 3298 2862 
Q 3072 2584 2669 2484 
Q 3125 2378 3379 2068 
Q 3634 1759 3634 1313 
Q 3634 634 3220 271 
Q 2806 -91 2034 -91 
Q 1263 -91 848 271 
Q 434 634 434 1313 
Q 434 1759 690 2068 
Q 947 2378 1403 2484 
z
M 1172 3481 
Q 1172 3119 1398 2916 
Q 1625 2713 2034 2713 
Q 2441 2713 2670 2916 
Q 2900 3119 2900 3481 
Q 2900 3844 2670 4047 
Q 2441 4250 2034 4250 
Q 1625 4250 1398 4047 
Q 1172 3844 1172 3481 
z
" transform="scale(0.015625)"/>
        <path id="DejaVuSans-32" d="M 1228 531 
L 3431 531 
L 3431 0 
L 469 0 
L 469 531 
Q 828 903 1448 1529 
Q 2069 2156 2228 2338 
Q 2531 2678 2651 2914 
Q 2772 3150 2772 3378 
Q 2772 3750 2511 3984 
Q 2250 4219 1831 4219 
Q 1534 4219 1204 4116 
Q 875 4013 500 3803 
L 500 4441 
Q 881 4594 1212 4672 
Q 1544 4750 1819 4750 
Q 2544 4750 2975 4387 
Q 3406 4025 3406 3419 
Q 3406 3131 3298 2873 
Q 3191 2616 2906 2266 
Q 2828 2175 2409 1742 
Q 1991 1309 1228 531 
z
" transform="scale(0.015625)"/>
        <path id="DejaVuSans-33" d="M 2597 2516 
Q 3050 2419 3304 2112 
Q 3559 1806 3559 1356 
Q 3559 666 3084 287 
Q 2609 -91 1734 -91 
Q 1441 -91 1130 -33 
Q 819 25 488 141 
L 488 750 
Q 750 597 1062 519 
Q 1375 441 1716 441 
Q 2309 441 2620 675 
Q 2931 909 2931 1356 
Q 2931 1769 2642 2001 
Q 2353 2234 1838 2234 
L 1294 2234 
L 1294 2753 
L 1863 2753 
Q 2328 2753 2575 2939 
Q 2822 3125 2822 3475 
Q 2822 3834 2567 4026 
Q 2313 4219 1838 4219 
Q 1578 4219 1281 4162 
Q 984 4106 628 3988 
L 628 4550 
Q 988 4650 1302 4700 
Q 1616 4750 1894 4750 
Q 2613 4750 3031 4423 
Q 3450 4097 3450 3541 
Q 3450 3153 3228 2886 
Q 3006 2619 2597 2516 
z
" transform="scale(0.015625)"/>
        <path id="DejaVuSans-36" d="M 2113 2584 
Q 1688 2584 1439 2293 
Q 1191 2003 1191 1497 
Q 1191 994 1439 701 
Q 1688 409 2113 409 
Q 2538 409 2786 701 
Q 3034 994 3034 1497 
Q 3034 2003 2786 2293 
Q 2538 2584 2113 2584 
z
M 3366 4563 
L 3366 3988 
Q 3128 4100 2886 4159 
Q 2644 4219 2406 4219 
Q 1781 4219 1451 3797 
Q 1122 3375 1075 2522 
Q 1259 2794 1537 2939 
Q 1816 3084 2150 3084 
Q 2853 3084 3261 2657 
Q 3669 2231 3669 1497 
Q 3669 778 3244 343 
Q 2819 -91 2113 -91 
Q 1303 -91 875 529 
Q 447 1150 447 2328 
Q 447 3434 972 4092 
Q 1497 4750 2381 4750 
Q 2619 4750 2861 4703 
Q 3103 4656 3366 4563 
z
" transform="scale(0.015625)"/>
       </defs>
       <use xlink:href="#DejaVuSans-2212"/>
       <use xlink:href="#DejaVuSans-30" transform="translate(83.789062 0)"/>
       <use xlink:href="#DejaVuSans-2e" transform="translate(147.412109 0)"/>
       <use xlink:href="#DejaVuSans-30" transform="translate(179.199219 0)"/>
       <use xlink:href="#DejaVuSans-38" transform="translate(242.822266 0)"/>
       <use xlink:href="#DejaVuSans-32" transform="translate(306.445312 0)"/>
       <use xlink:href="#DejaVuSans-33" transform="translate(370.068359 0)"/>
       <use xlink:href="#DejaVuSans-32" transform="translate(433.691406 0)"/>
       <use xlink:href="#DejaVuSans-38" transform="translate(497.314453 0)"/>
       <use xlink:href="#DejaVuSans-36" transform="translate(560.9375 0)"/>
       <use xlink:href="#DejaVuSans-36" transform="translate(624.560547 0)"/>
      </g>
     </g>
    </g>
    <g id="ytick_2">
     <g id="line2d_4">
      <g>
       <use xlink:href="#mf6fd438e02" x="18" y="22.32" style="stroke: #000000; stroke-width: 0.8"/>
      </g>
     </g>
     <g id="text_4">
      <!-- −0.08231747 -->
      <g transform="translate(-2.764062 23.079844) scale(0.02 -0.02)">
       <defs>
        <path id="DejaVuSans-31" d="M 794 531 
L 1825 531 
L 1825 4091 
L 703 3866 
L 703 4441 
L 1819 4666 
L 2450 4666 
L 2450 531 
L 3481 531 
L 3481 0 
L 794 0 
L 794 531 
z
" transform="scale(0.015625)"/>
        <path id="DejaVuSans-37" d="M 525 4666 
L 3525 4666 
L 3525 4397 
L 1831 0 
L 1172 0 
L 2766 4134 
L 525 4134 
L 525 4666 
z
" transform="scale(0.015625)"/>
       </defs>
       <use xlink:href="#DejaVuSans-2212"/>
       <use xlink:href="#DejaVuSans-30" transform="translate(83.789062 0)"/>
       <use xlink:href="#DejaVuSans-2e" transform="translate(147.412109 0)"/>
       <use xlink:href="#DejaVuSans-30" transform="translate(179.199219 0)"/>
       <use xlink:href="#DejaVuSans-38" transform="translate(242.822266 0)"/>
       <use xlink:href="#DejaVuSans-32" transform="translate(306.445312 0)"/>
       <use xlink:href="#DejaVuSans-33" transform="translate(370.068359 0)"/>
       <use xlink:href="#DejaVuSans-31" transform="translate(433.691406 0)"/>
       <use xlink:href="#DejaVuSans-37" transform="translate(497.314453 0)"/>
       <use xlink:href="#DejaVuSans-34" transform="translate(560.9375 0)"/>
       <use xlink:href="#DejaVuSans-37" transform="translate(624.560547 0)"/>
      </g>
     </g>
    </g>
   </g>
   <g id="line2d_5">
    <path d="M 23.072727 22.521332 
L 23.072727 22.521332 
L 23.072727 22.521332 
L 23.128943 22.32 
L 23.183726 22.454221 
L 23.262613 22.32 
L 23.18803 22.521332 
L 23.288298 22.521332 
L 23.295461 22.521332 
L 23.295461 22.521332 
L 23.405688 22.32 
L 23.398602 22.588442 
L 23.407409 22.387111 
L 23.44817 22.588442 
L 23.518414 22.521332 
L 23.593459 22.387111 
L 23.532482 22.588442 
L 23.625263 22.521332 
L 23.717926 22.387111 
L 23.73988 22.454221 
L 23.811338 22.588442 
L 23.746024 22.387111 
L 23.846033 22.521332 
L 23.881578 22.588442 
L 23.959867 22.387111 
L 24.069636 22.588442 
L 24.076138 22.32 
L 24.181964 22.521332 
L 24.266589 22.387111 
L 24.293059 22.521332 
L 24.293271 22.521332 
L 24.384267 22.387111 
L 24.39615 22.521332 
L 24.432402 22.521332 
L 24.505131 22.387111 
L 24.534726 22.521332 
L 24.621157 22.387111 
L 24.63258 22.588442 
L 24.643277 22.521332 
L 24.656089 22.521332 
L 24.767263 22.387111 
L 24.723443 22.588442 
L 24.769152 22.454221 
L 25.221747 22.521332 
L 25.221747 22.521332 
L 25.233502 22.588442 
L 25.246648 22.387111 
L 25.32794 22.521332 
L 25.433597 22.387111 
L 25.395803 22.588442 
L 25.433599 22.521332 
L 25.490995 22.32 
L 25.483858 22.588442 
L 25.546322 22.387111 
L 25.59325 22.588442 
L 25.572038 22.32 
L 25.664286 22.521332 
L 25.688052 22.454221 
L 25.794584 22.387111 
L 25.695244 22.521332 
L 25.794584 22.387111 
L 25.901353 22.521332 
L 25.901353 22.521332 
L 25.967608 22.387111 
L 25.917528 22.588442 
L 26.011645 22.454221 
L 26.063782 22.521332 
L 26.019857 22.387111 
L 26.10987 22.387111 
L 26.119407 22.454221 
L 26.213342 22.588442 
L 26.145316 22.32 
L 26.231606 22.521332 
L 26.256093 22.521332 
L 26.256093 22.521332 
L 26.365027 22.32 
L 26.340705 22.588442 
L 26.365029 22.387111 
L 26.379653 22.387111 
L 26.379653 22.387111 
L 26.462947 22.588442 
L 26.383727 22.32 
L 26.488573 22.454221 
L 26.593227 22.454221 
L 26.593227 22.454221 
L 26.624916 22.32 
L 26.601821 22.521332 
L 26.696196 22.454221 
L 26.721678 22.387111 
L 26.79931 22.588442 
L 26.882072 22.387111 
L 26.905266 22.521332 
L 26.937368 22.521332 
L 26.937368 22.521332 
L 26.981459 22.32 
L 27.045633 22.521332 
L 27.070047 22.454221 
L 27.159636 22.32 
L 27.171411 22.588442 
L 27.180436 22.387111 
L 27.20127 22.588442 
L 27.259334 22.32 
L 27.286009 22.32 
L 27.389432 22.588442 
L 27.391927 22.387111 
L 27.4275 22.387111 
L 27.4275 22.387111 
L 27.431497 22.588442 
L 27.475536 22.32 
L 27.53736 22.521332 
L 27.545505 22.521332 
L 27.545505 22.521332 
L 27.632022 22.387111 
L 27.654678 22.521332 
L 27.744022 22.387111 
L 27.775656 22.454221 
L 27.884951 22.521332 
L 27.794238 22.32 
L 27.884951 22.521332 
L 27.931792 22.32 
L 27.976544 22.387111 
L 28.110221 22.521332 
L 28.110221 22.521332 
L 28.119507 22.32 
L 28.218493 22.521332 
L 28.230695 22.521332 
L 28.230695 22.521332 
L 28.335701 22.387111 
L 28.340357 22.521332 
L 28.342884 22.521332 
L 28.438413 22.387111 
L 28.445675 22.521332 
L 28.486781 22.521332 
L 28.486781 22.521332 
L 28.597391 22.32 
L 28.725975 22.521332 
L 28.837712 22.32 
L 28.84841 22.387111 
L 28.952788 22.521332 
L 28.952791 22.454221 
L 28.97408 22.32 
L 28.974086 22.521332 
L 29.062352 22.454221 
L 29.075386 22.32 
L 29.086302 22.521332 
L 29.148808 22.387111 
L 29.258106 22.521332 
L 29.184989 22.32 
L 29.258106 22.521332 
L 29.369974 22.32 
L 29.382325 22.387111 
L 29.454571 22.521332 
L 29.403906 22.32 
L 29.489851 22.387111 
L 29.516442 22.32 
L 29.59322 22.521332 
L 29.593223 22.387111 
L 29.69998 22.387111 
L 29.778984 22.521332 
L 29.765238 22.32 
L 29.800242 22.454221 
L 29.81843 22.521332 
L 29.824762 22.32 
L 29.894755 22.387111 
L 29.962999 22.32 
L 29.963002 22.521332 
L 30.074031 22.387111 
L 30.120749 22.387111 
L 30.128778 22.32 
L 30.22746 22.521332 
L 30.319599 22.32 
L 30.358958 22.387111 
L 30.711284 22.387111 
L 30.723581 22.521332 
L 30.744759 22.32 
L 30.817296 22.454221 
L 30.838874 22.32 
L 30.866827 22.521332 
L 30.917648 22.387111 
L 30.984024 22.387111 
L 31.08437 22.521332 
L 31.005582 22.32 
L 31.097048 22.454221 
L 31.109553 22.387111 
L 31.178713 22.32 
L 31.131292 22.521332 
L 31.215509 22.387111 
L 31.391139 22.387111 
L 31.392777 22.521332 
L 31.467116 22.32 
L 31.500745 22.387111 
L 31.883079 22.387111 
L 31.900127 22.521332 
L 31.892694 22.32 
L 31.975057 22.32 
L 32.03774 22.521332 
L 32.119435 22.387111 
L 32.209826 22.454221 
L 32.305587 22.521332 
L 32.278622 22.32 
L 32.311348 22.387111 
L 32.332897 22.521332 
L 32.373149 22.32 
L 32.423824 22.454221 
L 32.526954 22.32 
L 32.431672 22.521332 
L 32.532352 22.387111 
L 32.60536 22.521332 
L 32.60536 22.521332 
L 32.645809 22.32 
L 32.742152 22.387111 
L 32.783589 22.521332 
L 32.843347 22.32 
L 32.849627 22.387111 
L 32.881322 22.32 
L 32.936981 22.521332 
L 32.960807 22.387111 
L 33.034745 22.521332 
L 32.968817 22.32 
L 33.069099 22.454221 
L 33.175226 22.32 
L 33.201362 22.387111 
L 33.230311 22.521332 
L 33.263674 22.32 
L 33.28831 22.454221 
L 33.41626 22.32 
L 33.494708 22.521332 
L 33.511678 22.454221 
L 33.678208 22.521332 
L 33.707098 22.32 
L 33.789414 22.387111 
L 33.823022 22.521332 
L 33.891167 22.387111 
L 34.170698 22.387111 
L 34.228936 22.521332 
L 34.184595 22.32 
L 34.278006 22.387111 
L 34.392249 22.387111 
L 34.392249 22.387111 
L 34.497674 22.521332 
L 34.467762 22.32 
L 34.497678 22.454221 
L 34.522676 22.454221 
L 34.522676 22.454221 
L 34.541711 22.32 
L 34.613208 22.521332 
L 34.61772 22.387111 
L 34.692133 22.521332 
L 34.727064 22.387111 
L 34.843514 22.32 
L 34.843514 22.32 
L 34.847627 22.521332 
L 34.954806 22.387111 
L 35.061819 22.521332 
L 35.10653 22.32 
L 35.201051 22.387111 
L 35.211202 22.32 
L 35.300325 22.454221 
L 35.348237 22.32 
L 35.382017 22.387111 
L 35.654108 22.521332 
L 35.667093 22.454221 
L 35.745768 22.387111 
L 35.816464 22.521332 
L 35.868506 22.387111 
L 36.124587 22.32 
L 36.137512 22.521332 
L 36.233469 22.454221 
L 36.346006 22.387111 
L 36.424269 22.521332 
L 36.431075 22.32 
L 36.44654 22.387111 
L 36.460174 22.521332 
L 36.496448 22.454221 
L 36.620397 22.387111 
L 36.640203 22.454221 
L 37.066361 22.387111 
L 37.066365 22.32 
L 37.14114 22.521332 
L 37.156245 22.387111 
L 37.390675 22.32 
L 37.523696 22.521332 
L 37.58929 22.521332 
L 37.692609 22.387111 
L 37.756569 22.387111 
L 37.866792 22.521332 
L 38.034464 22.387111 
L 38.03447 22.521332 
L 38.439597 22.32 
L 38.510802 22.521332 
L 38.539046 22.387111 
L 38.567415 22.521332 
L 38.592718 22.387111 
L 39.066633 22.387111 
L 39.066633 22.387111 
L 39.138793 22.521332 
L 39.170669 22.387111 
L 39.491929 22.387111 
L 39.491929 22.387111 
L 39.516972 22.521332 
L 39.595766 22.387111 
L 39.770711 22.387111 
L 39.770711 22.387111 
L 39.800149 22.521332 
L 39.82133 22.387111 
L 39.999137 22.32 
L 40.209799 22.454221 
L 40.209799 22.454221 
L 40.454587 22.387111 
L 40.459539 22.454221 
L 40.64624 22.387111 
L 40.67394 22.32 
L 40.729532 22.454221 
L 40.729538 22.454221 
L 40.964459 22.387111 
L 40.964465 22.32 
L 41.052759 22.454221 
L 41.060493 22.387111 
L 41.093738 22.521332 
L 41.093901 22.387111 
L 41.226479 22.387111 
L 41.297513 22.521332 
L 41.315166 22.387111 
L 41.500299 22.454221 
L 41.651887 22.387111 
L 41.651893 22.521332 
L 41.709204 22.32 
L 41.718848 22.387111 
L 41.793007 22.454221 
L 41.817282 22.387111 
L 42.035559 22.387111 
L 42.035563 22.521332 
L 42.290674 22.387111 
L 42.608937 22.387111 
L 42.608937 22.387111 
L 42.709403 22.521332 
L 42.695301 22.32 
L 42.71034 22.387111 
L 42.866453 22.454221 
L 42.920861 22.521332 
L 42.920867 22.32 
L 43.01249 22.387111 
L 43.209784 22.387111 
L 43.222179 22.521332 
L 43.33718 22.32 
L 43.382284 22.387111 
L 43.795823 22.387111 
L 43.902384 22.521332 
L 44.030997 22.32 
L 44.037643 22.454221 
L 44.160214 22.32 
L 44.160221 22.521332 
L 44.235458 22.387111 
L 44.530253 22.387111 
L 44.530253 22.387111 
L 44.714461 22.521332 
L 44.714467 22.387111 
L 45.310355 22.387111 
L 45.386595 22.521332 
L 45.399796 22.387111 
L 45.469591 22.521332 
L 45.469602 22.387111 
L 45.901938 22.454221 
L 45.901938 22.454221 
L 45.983902 22.387111 
L 46.220793 22.32 
L 46.220803 22.521332 
L 46.297447 22.32 
L 46.482784 22.521332 
L 46.498078 22.387111 
L 46.542697 22.387111 
L 46.631689 22.521332 
L 46.679053 22.32 
L 46.742692 22.387111 
L 46.787303 22.32 
L 46.794765 22.387111 
L 46.880419 22.521332 
L 46.912999 22.32 
L 46.977339 22.387111 
L 47.133754 22.521332 
L 47.172112 22.32 
L 47.410254 22.387111 
L 47.65575 22.454221 
L 47.65575 22.454221 
L 47.675382 22.387111 
L 47.677157 22.454221 
L 47.802768 22.387111 
L 47.802768 22.387111 
L 48.069913 22.521332 
L 48.069913 22.521332 
L 48.215718 22.387111 
L 48.276559 22.454221 
L 48.296528 22.387111 
L 48.339876 22.521332 
L 48.386113 22.454221 
L 48.438075 22.454221 
L 48.455845 22.32 
L 48.713624 22.521332 
L 48.713624 22.521332 
L 49.290741 22.521332 
L 49.290741 22.521332 
L 49.34577 22.32 
L 49.397815 22.521332 
L 49.558571 22.387111 
L 49.558571 22.387111 
L 49.670042 22.521332 
L 49.670042 22.521332 
L 49.817282 22.521332 
L 49.817282 22.521332 
L 49.93711 22.387111 
L 50.093659 22.521332 
L 50.093659 22.521332 
L 50.310001 22.387111 
L 50.331374 22.454221 
L 50.505041 22.521332 
L 50.779039 22.454221 
L 52.082093 22.387111 
L 52.124197 22.32 
L 52.124197 22.32 
L 52.219945 22.521332 
L 52.292608 22.454221 
L 52.343801 22.387111 
L 52.371288 22.521332 
L 52.534816 22.454221 
L 52.534816 22.454221 
L 52.61603 22.521332 
L 52.629551 22.454221 
L 52.827131 22.387111 
L 52.841487 22.521332 
L 53.069067 22.521332 
L 53.069067 22.521332 
L 53.184263 22.387111 
L 53.184263 22.387111 
L 53.308844 22.521332 
L 53.308844 22.521332 
L 53.337269 22.387111 
L 53.63792 22.521332 
L 53.637932 22.454221 
L 53.677829 22.387111 
L 53.698782 22.454221 
L 57.505228 22.521332 
L 57.505228 22.521332 
L 57.546854 22.32 
L 57.600483 22.387111 
L 57.657006 22.521332 
L 57.783677 22.387111 
L 57.783692 22.454221 
L 58.007426 22.521332 
L 58.278461 22.32 
L 58.284629 22.387111 
L 58.542545 22.521332 
L 58.58382 22.387111 
L 58.614035 22.454221 
L 58.720187 22.521332 
L 58.720187 22.521332 
L 58.725034 22.387111 
L 58.991663 22.387111 
L 58.991679 22.521332 
L 59.46238 22.32 
L 59.599421 22.521332 
L 59.599421 22.521332 
L 59.977346 22.454221 
L 59.977346 22.454221 
L 60.001245 22.521332 
L 60.03536 22.454221 
L 60.20531 22.521332 
L 60.472913 22.454221 
L 60.472913 22.454221 
L 60.499442 22.521332 
L 60.499442 22.521332 
L 60.740991 22.454221 
L 60.740991 22.454221 
L 60.788187 22.521332 
L 60.788187 22.521332 
L 60.971017 22.521332 
L 61.115149 22.387111 
L 61.115149 22.387111 
L 61.752577 22.454221 
L 61.752592 22.387111 
L 61.758882 22.521332 
L 61.806857 22.454221 
L 62.028269 22.387111 
L 62.051774 22.454221 
L 62.075361 22.521332 
L 62.075361 22.521332 
L 63.345126 22.454221 
L 63.345126 22.454221 
L 63.499607 22.454221 
L 63.499607 22.454221 
L 63.618764 22.521332 
L 63.559193 22.387111 
L 63.618764 22.521332 
L 63.7488 22.387111 
L 63.7488 22.387111 
L 63.825859 22.521332 
L 63.825874 22.387111 
L 64.234178 22.521332 
L 65.250671 22.387111 
L 65.250671 22.387111 
L 65.427406 22.521332 
L 65.444692 22.454221 
L 65.591778 22.387111 
L 65.696225 22.521332 
L 66.036715 22.32 
L 66.043391 22.387111 
L 66.365794 22.521332 
L 66.365794 22.521332 
L 66.42434 22.387111 
L 66.42434 22.387111 
L 66.69135 22.521332 
L 66.691365 22.387111 
L 66.79395 22.521332 
L 66.945517 22.387111 
L 66.945517 22.387111 
L 67.116967 22.521332 
L 67.116967 22.521332 
L 67.18771 22.387111 
L 68.558471 22.454221 
L 68.558471 22.454221 
L 68.567802 22.521332 
L 68.63098 22.387111 
L 68.76706 22.387111 
L 68.76706 22.387111 
L 68.91339 22.521332 
L 68.91339 22.521332 
L 69.049794 22.387111 
L 69.361562 22.454221 
L 70.390918 22.454221 
L 70.474575 22.32 
L 70.500139 22.387111 
L 70.611674 22.521332 
L 70.944816 22.387111 
L 70.950649 22.454221 
L 71.531391 22.387111 
L 71.531391 22.387111 
L 71.596495 22.521332 
L 71.635847 22.454221 
L 73.849442 22.521332 
L 75.615173 26.078189 
L 79.896323 34.534115 
L 79.896323 34.534115 
L 80.730394 36.211877 
L 80.730394 36.211877 
L 88.719977 52.04996 
L 88.719977 52.04996 
L 89.01924 52.653955 
L 94.719968 63.995632 
L 94.74302 63.995632 
L 94.74302 63.995632 
L 99.198535 72.787111 
L 99.198535 72.787111 
L 99.42577 73.256884 
L 110.517924 95.336245 
L 117.406858 108.95968 
L 124.527273 123.12 
L 124.527273 123.12 
" clip-path="url(#pfe536e846f)" style="fill: none; stroke: #000000; stroke-width: 5; stroke-linecap: square"/>
   </g>
   <g id="patch_3">
    <path d="M 18 128.16 
L 18 17.28 
" style="fill: none; stroke: #000000; stroke-width: 0.8; stroke-linejoin: miter; stroke-linecap: square"/>
   </g>
   <g id="patch_4">
    <path d="M 129.6 128.16 
L 129.6 17.28 
" style="fill: none; stroke: #000000; stroke-width: 0.8; stroke-linejoin: miter; stroke-linecap: square"/>
   </g>
   <g id="patch_5">
    <path d="M 18 128.16 
L 129.6 128.16 
" style="fill: none; stroke: #000000; stroke-width: 0.8; stroke-linejoin: miter; stroke-linecap: square"/>
   </g>
   <g id="patch_6">
    <path d="M 18 17.28 
L 129.6 17.28 
" style="fill: none; stroke: #000000; stroke-width: 0.8; stroke-linejoin: miter; stroke-linecap: square"/>
   </g>
  </g>
 </g>
 <defs>
  <clipPath id="pfe536e846f">
   <rect x="18" y="17.28" width="111.6" height="110.88"/>
  </clipPath>
 </defs>
</svg>
