<?xml version="1.0" encoding="utf-8" standalone="no"?>
<!DOCTYPE svg PUBLIC "-//W3C//DTD SVG 1.1//EN"
  "http://www.w3.org/Graphics/SVG/1.1/DTD/svg11.dtd">
<svg xmlns:xlink="http://www.w3.org/1999/xlink" width="144pt" height="144pt" viewBox="0 0 144 144" xmlns="http://www.w3.org/2000/svg" version="1.1">
 <metadata>
  <rdf:RDF xmlns:dc="http://purl.org/dc/elements/1.1/" xmlns:cc="http://creativecommons.org/ns#" xmlns:rdf="http://www.w3.org/1999/02/22-rdf-syntax-ns#">
   <cc:Work>
    <dc:type rdf:resource="http://purl.org/dc/dcmitype/StillImage"/>
    <dc:date>2026-05-21T17:07:35.302977</dc:date>
    <dc:format>image/svg+xml</dc:format>
    <dc:creator>
     <cc:Agent>
      <dc:title>Matplotlib v3.10.9, https://matplotlib.org/</dc:title>
     </cc:Agent>
    </dc:creator>
   </cc:Work>
  </rdf:RDF>
 </metadata>
 <defs>
  <style type="text/css">*{stroke-linejoin: round; stroke-linecap: butt}</style>
 </defs>
 <g id="figure_1">
  <g id="patch_1">
   <path d="M 0 144 
L 144 144 
L 144 0 
L 0 0 
z
" style="fill: #ffffff"/>
  </g>
  <g id="axes_1">
   <g id="patch_2">
    <path d="M 18 128.16 
L 129.6 128.16 
L 129.6 17.28 
L 18 17.28 
z
" style="fill: #ffffff; stroke: #000000; stroke-width: 1.5; stroke-linejoin: miter"/>
   </g>
   <g id="matplotlib.axis_1">
    <g id="xtick_1">
     <g id="line2d_1">
      <defs>
       <path id="mcf1f1a1eb3" d="M 0 0 
L 0 3.5 
" style="stroke: #000000; stroke-width: 0.8"/>
      </defs>
      <g>
       <use xlink:href="#mcf1f1a1eb3" x="23.072727" y="128.16" style="stroke: #000000; stroke-width: 0.8"/>
      </g>
     </g>
     <g id="text_1">
      <!-- 2.0566 -->
      <g transform="translate(19.573665 136.679688) scale(0.02 -0.02)">
       <defs>
        <path id="DejaVuSans-32" d="M 1228 531 
L 3431 531 
L 3431 0 
L 469 0 
L 469 531 
Q 828 903 1448 1529 
Q 2069 2156 2228 2338 
Q 2531 2678 2651 2914 
Q 2772 3150 2772 3378 
Q 2772 3750 2511 3984 
Q 2250 4219 1831 4219 
Q 1534 4219 1204 4116 
Q 875 4013 500 3803 
L 500 4441 
Q 881 4594 1212 4672 
Q 1544 4750 1819 4750 
Q 2544 4750 2975 4387 
Q 3406 4025 3406 3419 
Q 3406 3131 3298 2873 
Q 3191 2616 2906 2266 
Q 2828 2175 2409 1742 
Q 1991 1309 1228 531 
z
" transform="scale(0.015625)"/>
        <path id="DejaVuSans-2e" d="M 684 794 
L 1344 794 
L 1344 0 
L 684 0 
L 684 794 
z
" transform="scale(0.015625)"/>
        <path id="DejaVuSans-30" d="M 2034 4250 
Q 1547 4250 1301 3770 
Q 1056 3291 1056 2328 
Q 1056 1369 1301 889 
Q 1547 409 2034 409 
Q 2525 409 2770 889 
Q 3016 1369 3016 2328 
Q 3016 3291 2770 3770 
Q 2525 4250 2034 4250 
z
M 2034 4750 
Q 2819 4750 3233 4129 
Q 3647 3509 3647 2328 
Q 3647 1150 3233 529 
Q 2819 -91 2034 -91 
Q 1250 -91 836 529 
Q 422 1150 422 2328 
Q 422 3509 836 4129 
Q 1250 4750 2034 4750 
z
" transform="scale(0.015625)"/>
        <path id="DejaVuSans-35" d="M 691 4666 
L 3169 4666 
L 3169 4134 
L 1269 4134 
L 1269 2991 
Q 1406 3038 1543 3061 
Q 1681 3084 1819 3084 
Q 2600 3084 3056 2656 
Q 3513 2228 3513 1497 
Q 3513 744 3044 326 
Q 2575 -91 1722 -91 
Q 1428 -91 1123 -41 
Q 819 9 494 109 
L 494 744 
Q 775 591 1075 516 
Q 1375 441 1709 441 
Q 2250 441 2565 725 
Q 2881 1009 2881 1497 
Q 2881 1984 2565 2268 
Q 2250 2553 1709 2553 
Q 1456 2553 1204 2497 
Q 953 2441 691 2322 
L 691 4666 
z
" transform="scale(0.015625)"/>
        <path id="DejaVuSans-36" d="M 2113 2584 
Q 1688 2584 1439 2293 
Q 1191 2003 1191 1497 
Q 1191 994 1439 701 
Q 1688 409 2113 409 
Q 2538 409 2786 701 
Q 3034 994 3034 1497 
Q 3034 2003 2786 2293 
Q 2538 2584 2113 2584 
z
M 3366 4563 
L 3366 3988 
Q 3128 4100 2886 4159 
Q 2644 4219 2406 4219 
Q 1781 4219 1451 3797 
Q 1122 3375 1075 2522 
Q 1259 2794 1537 2939 
Q 1816 3084 2150 3084 
Q 2853 3084 3261 2657 
Q 3669 2231 3669 1497 
Q 3669 778 3244 343 
Q 2819 -91 2113 -91 
Q 1303 -91 875 529 
Q 447 1150 447 2328 
Q 447 3434 972 4092 
Q 1497 4750 2381 4750 
Q 2619 4750 2861 4703 
Q 3103 4656 3366 4563 
z
" transform="scale(0.015625)"/>
       </defs>
       <use xlink:href="#DejaVuSans-32"/>
       <use xlink:href="#DejaVuSans-2e" transform="translate(63.623047 0)"/>
       <use xlink:href="#DejaVuSans-30" transform="translate(95.410156 0)"/>
       <use xlink:href="#DejaVuSans-35" transform="translate(159.033203 0)"/>
       <use xlink:href="#DejaVuSans-36" transform="translate(222.65625 0)"/>
       <use xlink:href="#DejaVuSans-36" transform="translate(286.279297 0)"/>
      </g>
     </g>
    </g>
    <g id="xtick_2">
     <g id="line2d_2">
      <g>
       <use xlink:href="#mcf1f1a1eb3" x="124.527273" y="128.16" style="stroke: #000000; stroke-width: 0.8"/>
      </g>
     </g>
     <g id="text_2">
      <!-- 2.4111 -->
      <g transform="translate(121.02821 136.679688) scale(0.02 -0.02)">
       <defs>
        <path id="DejaVuSans-34" d="M 2419 4116 
L 825 1625 
L 2419 1625 
L 2419 4116 
z
M 2253 4666 
L 3047 4666 
L 3047 1625 
L 3713 1625 
L 3713 1100 
L 3047 1100 
L 3047 0 
L 2419 0 
L 2419 1100 
L 313 1100 
L 313 1709 
L 2253 4666 
z
" transform="scale(0.015625)"/>
        <path id="DejaVuSans-31" d="M 794 531 
L 1825 531 
L 1825 4091 
L 703 3866 
L 703 4441 
L 1819 4666 
L 2450 4666 
L 2450 531 
L 3481 531 
L 3481 0 
L 794 0 
L 794 531 
z
" transform="scale(0.015625)"/>
       </defs>
       <use xlink:href="#DejaVuSans-32"/>
       <use xlink:href="#DejaVuSans-2e" transform="translate(63.623047 0)"/>
       <use xlink:href="#DejaVuSans-34" transform="translate(95.410156 0)"/>
       <use xlink:href="#DejaVuSans-31" transform="translate(159.033203 0)"/>
       <use xlink:href="#DejaVuSans-31" transform="translate(222.65625 0)"/>
       <use xlink:href="#DejaVuSans-31" transform="translate(286.279297 0)"/>
      </g>
     </g>
    </g>
   </g>
   <g id="matplotlib.axis_2">
    <g id="ytick_1">
     <g id="line2d_3">
      <defs>
       <path id="mec4494229b" d="M 0 0 
L -3.5 0 
" style="stroke: #000000; stroke-width: 0.8"/>
      </defs>
      <g>
       <use xlink:href="#mec4494229b" x="18" y="123.12" style="stroke: #000000; stroke-width: 0.8"/>
      </g>
     </g>
     <g id="text_3">
      <!-- 2.495 -->
      <g transform="translate(5.274375 123.879844) scale(0.02 -0.02)">
       <defs>
        <path id="DejaVuSans-39" d="M 703 97 
L 703 672 
Q 941 559 1184 500 
Q 1428 441 1663 441 
Q 2288 441 2617 861 
Q 2947 1281 2994 2138 
Q 2813 1869 2534 1725 
Q 2256 1581 1919 1581 
Q 1219 1581 811 2004 
Q 403 2428 403 3163 
Q 403 3881 828 4315 
Q 1253 4750 1959 4750 
Q 2769 4750 3195 4129 
Q 3622 3509 3622 2328 
Q 3622 1225 3098 567 
Q 2575 -91 1691 -91 
Q 1453 -91 1209 -44 
Q 966 3 703 97 
z
M 1959 2075 
Q 2384 2075 2632 2365 
Q 2881 2656 2881 3163 
Q 2881 3666 2632 3958 
Q 2384 4250 1959 4250 
Q 1534 4250 1286 3958 
Q 1038 3666 1038 3163 
Q 1038 2656 1286 2365 
Q 1534 2075 1959 2075 
z
" transform="scale(0.015625)"/>
       </defs>
       <use xlink:href="#DejaVuSans-32"/>
       <use xlink:href="#DejaVuSans-2e" transform="translate(63.623047 0)"/>
       <use xlink:href="#DejaVuSans-34" transform="translate(95.410156 0)"/>
       <use xlink:href="#DejaVuSans-39" transform="translate(159.033203 0)"/>
       <use xlink:href="#DejaVuSans-35" transform="translate(222.65625 0)"/>
      </g>
     </g>
    </g>
    <g id="ytick_2">
     <g id="line2d_4">
      <g>
       <use xlink:href="#mec4494229b" x="18" y="22.32" style="stroke: #000000; stroke-width: 0.8"/>
      </g>
     </g>
     <g id="text_4">
      <!-- 4.284 -->
      <g transform="translate(5.274375 23.079844) scale(0.02 -0.02)">
       <defs>
        <path id="DejaVuSans-38" d="M 2034 2216 
Q 1584 2216 1326 1975 
Q 1069 1734 1069 1313 
Q 1069 891 1326 650 
Q 1584 409 2034 409 
Q 2484 409 2743 651 
Q 3003 894 3003 1313 
Q 3003 1734 2745 1975 
Q 2488 2216 2034 2216 
z
M 1403 2484 
Q 997 2584 770 2862 
Q 544 3141 544 3541 
Q 544 4100 942 4425 
Q 1341 4750 2034 4750 
Q 2731 4750 3128 4425 
Q 3525 4100 3525 3541 
Q 3525 3141 3298 2862 
Q 3072 2584 2669 2484 
Q 3125 2378 3379 2068 
Q 3634 1759 3634 1313 
Q 3634 634 3220 271 
Q 2806 -91 2034 -91 
Q 1263 -91 848 271 
Q 434 634 434 1313 
Q 434 1759 690 2068 
Q 947 2378 1403 2484 
z
M 1172 3481 
Q 1172 3119 1398 2916 
Q 1625 2713 2034 2713 
Q 2441 2713 2670 2916 
Q 2900 3119 2900 3481 
Q 2900 3844 2670 4047 
Q 2441 4250 2034 4250 
Q 1625 4250 1398 4047 
Q 1172 3844 1172 3481 
z
" transform="scale(0.015625)"/>
       </defs>
       <use xlink:href="#DejaVuSans-34"/>
       <use xlink:href="#DejaVuSans-2e" transform="translate(63.623047 0)"/>
       <use xlink:href="#DejaVuSans-32" transform="translate(95.410156 0)"/>
       <use xlink:href="#DejaVuSans-38" transform="translate(159.033203 0)"/>
       <use xlink:href="#DejaVuSans-34" transform="translate(222.65625 0)"/>
      </g>
     </g>
    </g>
    <g id="text_5">
     <!-- 1e−7+4.97761e−1 -->
     <g transform="translate(18 14.28) scale(0.1 -0.1)">
      <defs>
       <path id="DejaVuSans-65" d="M 3597 1894 
L 3597 1613 
L 953 1613 
Q 991 1019 1311 708 
Q 1631 397 2203 397 
Q 2534 397 2845 478 
Q 3156 559 3463 722 
L 3463 178 
Q 3153 47 2828 -22 
Q 2503 -91 2169 -91 
Q 1331 -91 842 396 
Q 353 884 353 1716 
Q 353 2575 817 3079 
Q 1281 3584 2069 3584 
Q 2775 3584 3186 3129 
Q 3597 2675 3597 1894 
z
M 3022 2063 
Q 3016 2534 2758 2815 
Q 2500 3097 2075 3097 
Q 1594 3097 1305 2825 
Q 1016 2553 972 2059 
L 3022 2063 
z
" transform="scale(0.015625)"/>
       <path id="DejaVuSans-2212" d="M 678 2272 
L 4684 2272 
L 4684 1741 
L 678 1741 
L 678 2272 
z
" transform="scale(0.015625)"/>
       <path id="DejaVuSans-37" d="M 525 4666 
L 3525 4666 
L 3525 4397 
L 1831 0 
L 1172 0 
L 2766 4134 
L 525 4134 
L 525 4666 
z
" transform="scale(0.015625)"/>
       <path id="DejaVuSans-2b" d="M 2944 4013 
L 2944 2272 
L 4684 2272 
L 4684 1741 
L 2944 1741 
L 2944 0 
L 2419 0 
L 2419 1741 
L 678 1741 
L 678 2272 
L 2419 2272 
L 2419 4013 
L 2944 4013 
z
" transform="scale(0.015625)"/>
      </defs>
      <use xlink:href="#DejaVuSans-31"/>
      <use xlink:href="#DejaVuSans-65" transform="translate(63.623047 0)"/>
      <use xlink:href="#DejaVuSans-2212" transform="translate(125.146484 0)"/>
      <use xlink:href="#DejaVuSans-37" transform="translate(208.935547 0)"/>
      <use xlink:href="#DejaVuSans-2b" transform="translate(272.558594 0)"/>
      <use xlink:href="#DejaVuSans-34" transform="translate(356.347656 0)"/>
      <use xlink:href="#DejaVuSans-2e" transform="translate(419.970703 0)"/>
      <use xlink:href="#DejaVuSans-39" transform="translate(451.757812 0)"/>
      <use xlink:href="#DejaVuSans-37" transform="translate(515.380859 0)"/>
      <use xlink:href="#DejaVuSans-37" transform="translate(579.003906 0)"/>
      <use xlink:href="#DejaVuSans-36" transform="translate(642.626953 0)"/>
      <use xlink:href="#DejaVuSans-31" transform="translate(706.25 0)"/>
      <use xlink:href="#DejaVuSans-65" transform="translate(769.873047 0)"/>
      <use xlink:href="#DejaVuSans-2212" transform="translate(831.396484 0)"/>
      <use xlink:href="#DejaVuSans-31" transform="translate(915.185547 0)"/>
     </g>
    </g>
   </g>
   <g id="line2d_5">
    <path d="M 23.072727 55.92 
L 23.170084 106.32 
L 23.180522 55.92 
L 23.191984 55.92 
L 23.317518 72.72 
L 23.367867 55.92 
L 23.436638 106.32 
L 23.660483 55.92 
L 23.825041 106.32 
L 23.943343 55.92 
L 24.185404 55.92 
L 24.185404 55.92 
L 24.236027 72.72 
L 24.356853 106.32 
L 24.474132 55.92 
L 24.493234 72.72 
L 24.509199 106.32 
L 24.509199 106.32 
L 24.709643 72.72 
L 24.709643 72.72 
L 24.760403 106.32 
L 24.788579 72.72 
L 24.914386 55.92 
L 25.04681 106.32 
L 25.04681 106.32 
L 25.074305 55.92 
L 25.074305 55.92 
L 25.161223 106.32 
L 25.161223 106.32 
L 25.203181 55.92 
L 25.25626 106.32 
L 25.322847 106.32 
L 25.322847 106.32 
L 25.397349 55.92 
L 25.44381 72.72 
L 25.519198 72.72 
L 25.519198 72.72 
L 25.559587 106.32 
L 25.559655 72.72 
L 25.628835 55.92 
L 25.628835 55.92 
L 25.698561 106.32 
L 25.724623 72.72 
L 25.853704 55.92 
L 25.853704 55.92 
L 25.97146 106.32 
L 25.97146 106.32 
L 26.160306 106.32 
L 26.18282 55.92 
L 26.240675 106.32 
L 26.297165 106.32 
L 26.315995 55.92 
L 26.399911 72.72 
L 26.44453 106.32 
L 26.460085 55.92 
L 26.604654 55.92 
L 26.604722 72.72 
L 26.657937 55.92 
L 26.853537 72.72 
L 26.853537 72.72 
L 26.896382 55.92 
L 26.896382 55.92 
L 26.955056 106.32 
L 26.980299 55.92 
L 27.046068 55.92 
L 27.046068 55.92 
L 27.116544 106.32 
L 27.15434 72.72 
L 27.243851 55.92 
L 27.243851 55.92 
L 27.299318 106.32 
L 27.35574 72.72 
L 27.415709 55.92 
L 27.455552 72.72 
L 27.468856 72.72 
L 27.503719 55.92 
L 27.503719 55.92 
L 27.5306 106.32 
L 27.581905 72.72 
L 27.665957 55.92 
L 27.666026 72.72 
L 27.739163 106.32 
L 27.775458 72.72 
L 27.801793 55.92 
L 27.920572 106.32 
L 27.927054 72.72 
L 27.988865 55.92 
L 27.990571 106.32 
L 28.031642 72.72 
L 28.054224 55.92 
L 28.054224 55.92 
L 28.155197 106.32 
L 28.257329 55.92 
L 28.257329 55.92 
L 28.315048 106.32 
L 28.346977 55.92 
L 28.456409 106.32 
L 28.487383 72.72 
L 28.514878 72.72 
L 28.514878 72.72 
L 28.515833 55.92 
L 28.594633 106.32 
L 28.67507 106.32 
L 28.67507 106.32 
L 28.781432 55.92 
L 28.812133 106.32 
L 28.894344 72.72 
L 28.963319 72.72 
L 28.963319 72.72 
L 28.991359 106.32 
L 29.016193 55.92 
L 29.042323 72.72 
L 29.118667 72.72 
L 29.118667 72.72 
L 29.170176 106.32 
L 29.201219 55.92 
L 29.271217 55.92 
L 29.271217 55.92 
L 29.296256 72.72 
L 29.416604 55.92 
L 29.416604 55.92 
L 29.497041 106.32 
L 29.515189 55.92 
L 29.678928 106.32 
L 29.797844 55.92 
L 29.797912 72.72 
L 29.868661 106.32 
L 29.80378 55.92 
L 29.90789 72.72 
L 30.06856 72.72 
L 30.131054 55.92 
L 30.186179 106.32 
L 30.275008 72.72 
L 30.275008 72.72 
L 30.389216 55.92 
L 30.389216 55.92 
L 30.465218 106.32 
L 30.532693 72.72 
L 30.571922 55.92 
L 30.621316 72.72 
L 30.674395 72.72 
L 30.674464 55.92 
L 30.776528 72.72 
L 30.827423 55.92 
L 30.827492 106.32 
L 30.87484 106.32 
L 30.948795 55.92 
L 30.948795 55.92 
L 31.024115 106.32 
L 31.024115 106.32 
L 31.122768 55.92 
L 31.122768 55.92 
L 31.207162 106.32 
L 31.223741 72.72 
L 31.298311 55.92 
L 31.298311 55.92 
L 31.523793 72.72 
L 31.523793 72.72 
L 31.543374 55.92 
L 31.57926 106.32 
L 31.654444 55.92 
L 31.654444 55.92 
L 31.798671 106.32 
L 31.798671 106.32 
L 31.850249 106.32 
L 31.850249 106.32 
L 31.956065 55.92 
L 31.956065 55.92 
L 32.01699 106.32 
L 32.01699 106.32 
L 32.120146 72.72 
L 32.172815 106.32 
L 32.172815 106.32 
L 32.272355 55.92 
L 32.273447 72.72 
L 32.309469 106.32 
L 32.383288 72.72 
L 32.386017 72.72 
L 32.386017 72.72 
L 32.430841 106.32 
L 32.458609 72.72 
L 32.54232 72.72 
L 32.54232 72.72 
L 32.654345 106.32 
L 32.577729 55.92 
L 32.654345 106.32 
L 32.746653 106.32 
L 32.746653 106.32 
L 32.817198 55.92 
L 32.948599 55.92 
L 32.948599 55.92 
L 33.032106 106.32 
L 33.065195 72.72 
L 33.142834 55.92 
L 33.142834 55.92 
L 33.183701 106.32 
L 33.257452 72.72 
L 33.257588 55.92 
L 33.28713 106.32 
L 33.338776 106.32 
L 33.416074 55.92 
L 33.416074 55.92 
L 33.569648 106.32 
L 33.569648 106.32 
L 33.627298 72.72 
L 33.704392 106.32 
L 33.704392 106.32 
L 33.76634 55.92 
L 33.806115 72.72 
L 33.88512 55.92 
L 33.896513 72.72 
L 33.896581 106.32 
L 33.964056 55.92 
L 33.964056 55.92 
L 34.122542 106.32 
L 34.157814 106.32 
L 34.157814 106.32 
L 34.20448 55.92 
L 34.284848 106.32 
L 34.306407 72.72 
L 34.384183 55.92 
L 34.478948 55.92 
L 34.478948 55.92 
L 34.523362 106.32 
L 34.533732 55.92 
L 34.607551 55.92 
L 34.607551 55.92 
L 34.682871 106.32 
L 34.690649 55.92 
L 34.847702 106.32 
L 35.017309 55.92 
L 35.017309 55.92 
L 35.053195 106.32 
L 35.128788 72.72 
L 35.130357 22.32 
L 35.18289 106.32 
L 35.18289 106.32 
L 35.317361 55.92 
L 35.432934 106.32 
L 35.432934 106.32 
L 35.512757 55.92 
L 35.523332 106.32 
L 35.600835 106.32 
L 35.61141 55.92 
L 35.61141 55.92 
L 35.769555 106.32 
L 35.769555 106.32 
L 35.900137 55.92 
L 35.988488 106.32 
L 36.024306 72.72 
L 36.033926 55.92 
L 36.082024 106.32 
L 36.082092 72.72 
L 36.275237 106.32 
L 36.371297 55.92 
L 36.490417 106.32 
L 36.490417 106.32 
L 36.544383 55.92 
L 36.567034 72.72 
L 36.761884 55.92 
L 36.763248 106.32 
L 36.805547 72.72 
L 36.887281 55.92 
L 36.887281 55.92 
L 36.932104 106.32 
L 36.958234 72.72 
L 37.056614 55.92 
L 37.056614 55.92 
L 37.093865 106.32 
L 37.151788 55.92 
L 37.257195 106.32 
L 37.362261 72.72 
L 37.452113 106.32 
L 37.460505 72.72 
L 37.554928 106.32 
L 37.554928 106.32 
L 37.640004 55.92 
L 37.645599 106.32 
L 37.668454 106.32 
L 37.668454 106.32 
L 37.705091 55.92 
L 37.735178 72.72 
L 37.819026 72.72 
L 37.819026 72.72 
L 37.880838 55.92 
L 37.880906 106.32 
L 37.981674 55.92 
L 38.095541 106.32 
L 38.11669 55.92 
L 38.186143 72.72 
L 38.270469 72.72 
L 38.270469 72.72 
L 38.364687 55.92 
L 38.494314 106.32 
L 38.550804 55.92 
L 38.57018 72.72 
L 38.64243 106.32 
L 38.763597 55.92 
L 38.825545 72.72 
L 38.936683 55.92 
L 38.936683 55.92 
L 38.944256 106.32 
L 39.028855 55.92 
L 39.189251 106.32 
L 39.189251 106.32 
L 39.399657 72.72 
L 39.399657 72.72 
L 39.455191 55.92 
L 39.492783 106.32 
L 39.594575 55.92 
L 39.703325 106.32 
L 39.703325 106.32 
L 39.866518 106.32 
L 39.939041 72.72 
L 39.939041 72.72 
L 40.042197 55.92 
L 40.060891 72.72 
L 40.060891 72.72 
L 40.175918 72.72 
L 40.175986 106.32 
L 40.183081 72.72 
L 40.31878 106.32 
L 40.31878 106.32 
L 40.47099 55.92 
L 40.536485 106.32 
L 40.536485 106.32 
L 40.589564 72.72 
L 40.643803 106.32 
L 40.653695 106.32 
L 40.653695 106.32 
L 40.724513 55.92 
L 40.866898 106.32 
L 40.866898 106.32 
L 40.95211 55.92 
L 41.000413 72.72 
L 41.107936 72.72 
L 41.193217 106.32 
L 41.194513 55.92 
L 41.247046 55.92 
L 41.247182 106.32 
L 41.350338 55.92 
L 41.486992 106.32 
L 41.623715 72.72 
L 41.623715 72.72 
L 41.717728 106.32 
L 41.717728 106.32 
L 41.838691 55.92 
L 41.937003 106.32 
L 41.946281 55.92 
L 41.967772 55.92 
L 42.014301 72.72 
L 42.014301 72.72 
L 42.095557 72.72 
L 42.115956 55.92 
L 42.175857 72.72 
L 42.207923 72.72 
L 42.37289 106.32 
L 42.273214 55.92 
L 42.37289 106.32 
L 42.480754 55.92 
L 42.480754 55.92 
L 42.524349 106.32 
L 42.564602 72.72 
L 42.613041 72.72 
L 42.613041 72.72 
L 42.68113 106.32 
L 42.68113 106.32 
L 42.813895 55.92 
L 42.813895 55.92 
L 42.945637 106.32 
L 42.945637 106.32 
L 42.980159 55.92 
L 43.025665 72.72 
L 43.119678 106.32 
L 43.128684 72.72 
L 43.165252 55.92 
L 43.175964 72.72 
L 43.250943 106.32 
L 43.220583 55.92 
L 43.250943 106.32 
L 43.473969 55.92 
L 43.531688 106.32 
L 43.672094 55.92 
L 43.672094 55.92 
L 43.780981 106.32 
L 43.780981 106.32 
L 43.927255 55.92 
L 43.93974 72.72 
L 43.987497 106.32 
L 43.992819 72.72 
L 44.042145 55.92 
L 44.068002 72.72 
L 44.122036 106.32 
L 44.183575 55.92 
L 44.183575 55.92 
L 44.308221 106.32 
L 44.308221 106.32 
L 44.505527 55.92 
L 44.609093 106.32 
L 44.636792 72.72 
L 44.699559 106.32 
L 44.919788 55.92 
L 44.919788 55.92 
L 45.024718 72.72 
L 45.037339 55.92 
L 45.125963 72.72 
L 45.21063 106.32 
L 45.220045 72.72 
L 45.289839 72.72 
L 45.289839 72.72 
L 45.37703 106.32 
L 45.37703 106.32 
L 45.441161 72.72 
L 45.451122 106.32 
L 45.534425 106.32 
L 45.534425 106.32 
L 45.598419 55.92 
L 45.614657 106.32 
L 45.702667 55.92 
L 45.702667 55.92 
L 45.744898 106.32 
L 45.744898 106.32 
L 45.870773 55.92 
L 45.870773 55.92 
L 46.019707 72.72 
L 46.019707 72.72 
L 46.076334 55.92 
L 46.129412 106.32 
L 46.342001 55.92 
L 46.431648 72.72 
L 46.431648 72.72 
L 46.45539 55.92 
L 46.550291 123.12 
L 46.618447 55.92 
L 46.662248 106.32 
L 46.861464 55.92 
L 46.870811 72.72 
L 47.130133 72.72 
L 47.130133 72.72 
L 47.145347 106.32 
L 47.183962 55.92 
L 47.209274 55.92 
L 47.281319 55.92 
L 47.281319 55.92 
L 47.312156 106.32 
L 47.399825 72.72 
L 47.52147 72.72 
L 47.52147 72.72 
L 47.545485 55.92 
L 47.545553 72.72 
L 47.614324 106.32 
L 47.614324 106.32 
L 47.686301 55.92 
L 47.794846 106.32 
L 47.854066 55.92 
L 47.854066 55.92 
L 47.957631 106.32 
L 47.957631 106.32 
L 48.058603 55.92 
L 48.167558 106.32 
L 48.176564 72.72 
L 48.228824 55.92 
L 48.269964 72.72 
L 48.405253 106.32 
L 48.489033 55.92 
L 48.489033 55.92 
L 48.661301 72.72 
L 48.719019 106.32 
L 48.733551 55.92 
L 48.770051 72.72 
L 48.780557 72.72 
L 48.819104 106.32 
L 48.880097 55.92 
L 48.880166 55.92 
L 48.984686 55.92 
L 48.984686 55.92 
L 49.070922 106.32 
L 49.173395 72.72 
L 49.322057 106.32 
L 49.372475 55.92 
L 49.432991 72.72 
L 49.444998 72.72 
L 49.446704 106.32 
L 49.446704 106.32 
L 49.594888 55.92 
L 49.594888 55.92 
L 49.680851 106.32 
L 49.760333 55.92 
L 49.760401 72.72 
L 49.929871 106.32 
L 49.929871 106.32 
L 49.9472 55.92 
L 50.003213 72.72 
L 50.059294 106.32 
L 50.097158 72.72 
L 50.140481 72.72 
L 50.153921 55.92 
L 50.156582 106.32 
L 50.225967 106.32 
L 50.225967 106.32 
L 50.43835 55.92 
L 50.43835 55.92 
L 50.491224 55.92 
L 50.491293 106.32 
L 50.565385 55.92 
L 50.611709 55.92 
L 50.714251 106.32 
L 50.714251 106.32 
L 50.773402 72.72 
L 50.773402 72.72 
L 50.886587 106.32 
L 50.886587 106.32 
L 51.002432 72.72 
L 51.002432 72.72 
L 51.056535 72.72 
L 51.056535 72.72 
L 51.074819 55.92 
L 51.095968 106.32 
L 51.13165 72.72 
L 51.231599 72.72 
L 51.231599 72.72 
L 51.335847 106.32 
L 51.340759 72.72 
L 51.492081 72.72 
L 51.492081 72.72 
L 51.57054 106.32 
L 51.57054 106.32 
L 51.711492 55.92 
L 51.711492 55.92 
L 51.814648 72.72 
L 51.814648 72.72 
L 51.855719 55.92 
L 51.930766 106.32 
L 51.961877 55.92 
L 52.165323 72.72 
L 52.199913 106.32 
L 52.239483 55.92 
L 52.275574 72.72 
L 52.314803 55.92 
L 52.314872 72.72 
L 52.487071 55.92 
L 52.487071 55.92 
L 52.626249 106.32 
L 52.626249 106.32 
L 52.776139 55.92 
L 52.89178 106.32 
L 52.891848 55.92 
L 53.000257 72.72 
L 53.104232 106.32 
L 53.214892 55.92 
L 53.244706 106.32 
L 53.282094 55.92 
L 53.415132 106.32 
L 53.415132 106.32 
L 53.472577 55.92 
L 53.514331 106.32 
L 53.657466 106.32 
L 53.754141 55.92 
L 53.764374 72.72 
L 53.827141 55.92 
L 53.828847 72.72 
L 53.939985 106.32 
L 53.939985 106.32 
L 53.980783 106.32 
L 53.980783 106.32 
L 54.079095 55.92 
L 54.084894 72.72 
L 54.271284 55.92 
L 54.271352 72.72 
L 54.459789 55.92 
L 54.459789 55.92 
L 54.5274 106.32 
L 54.550255 72.72 
L 54.599786 55.92 
L 54.66842 72.72 
L 54.704443 55.92 
L 54.71877 55.92 
L 54.882646 106.32 
L 54.882646 106.32 
L 54.884351 55.92 
L 54.884351 55.92 
L 55.048227 106.32 
L 55.048295 55.92 
L 55.105604 72.72 
L 55.168917 72.72 
L 55.177922 55.92 
L 55.181129 106.32 
L 55.261498 72.72 
L 55.296565 55.92 
L 55.296565 55.92 
L 55.417596 106.32 
L 55.417596 106.32 
L 55.506493 55.92 
L 55.506493 55.92 
L 55.615379 106.32 
L 55.615516 55.92 
L 55.815005 72.72 
L 55.858191 72.72 
L 55.892508 55.92 
L 55.918024 106.32 
L 56.076238 55.92 
L 56.082173 72.72 
L 56.085789 106.32 
L 56.347226 72.72 
L 56.412244 106.32 
L 56.39819 55.92 
L 56.436669 55.92 
L 56.527749 72.72 
L 56.527749 72.72 
L 56.677229 55.92 
L 56.772949 72.72 
L 56.833327 106.32 
L 57.06229 72.72 
L 57.113595 106.32 
L 57.113595 106.32 
L 57.187277 72.72 
L 57.187346 106.32 
L 57.272081 106.32 
L 57.272081 106.32 
L 57.282383 55.92 
L 57.282383 55.92 
L 57.404232 106.32 
L 57.608702 106.32 
L 57.683271 55.92 
L 57.76248 55.92 
L 57.76248 55.92 
L 57.878462 106.32 
L 57.87853 72.72 
L 57.890743 55.92 
L 57.913461 106.32 
L 58.068877 72.72 
L 58.085934 106.32 
L 58.144743 55.92 
L 58.144811 55.92 
L 58.189362 55.92 
L 58.189362 55.92 
L 58.257451 106.32 
L 58.280374 72.72 
L 58.308278 106.32 
L 58.372887 55.92 
L 58.372887 55.92 
L 58.461033 72.72 
L 58.461033 72.72 
L 58.517319 55.92 
L 58.517319 55.92 
L 58.730111 106.32 
L 58.802225 55.92 
L 58.832994 72.72 
L 58.863695 55.92 
L 58.871405 72.72 
L 58.938333 106.32 
L 58.95614 72.72 
L 58.986705 55.92 
L 58.986705 55.92 
L 59.052814 106.32 
L 59.096478 72.72 
L 59.179508 55.92 
L 59.179576 72.72 
L 59.25476 106.32 
L 59.254828 72.72 
L 59.408879 72.72 
L 59.450292 55.92 
L 59.477923 106.32 
L 59.539734 72.72 
L 59.603729 72.72 
L 59.603934 55.92 
L 59.603934 55.92 
L 59.802468 106.32 
L 59.849952 55.92 
L 59.931958 106.32 
L 59.93728 55.92 
L 60.008711 55.92 
L 60.070932 106.32 
L 60.109274 72.72 
L 60.224574 55.92 
L 60.224574 55.92 
L 60.412124 72.72 
L 60.412124 72.72 
L 60.449238 55.92 
L 60.477961 106.32 
L 60.477961 106.32 
L 60.53793 55.92 
L 60.694916 106.32 
L 60.848421 55.92 
L 60.848489 106.32 
L 60.95724 72.72 
L 61.046409 106.32 
L 61.238189 55.92 
L 61.285674 72.72 
L 61.31119 55.92 
L 61.423283 55.92 
L 61.44798 72.72 
L 61.51102 55.92 
L 61.564781 72.72 
L 61.58709 55.92 
L 61.842183 55.92 
L 61.968671 106.32 
L 61.968671 106.32 
L 62.077967 55.92 
L 62.079059 106.32 
L 62.179759 55.92 
L 62.179759 55.92 
L 62.195109 106.32 
L 62.387094 55.92 
L 62.403331 106.32 
L 62.403331 106.32 
L 62.529547 106.32 
L 62.529547 106.32 
L 62.654262 55.92 
L 62.713208 106.32 
L 62.791735 106.32 
L 62.881996 55.92 
L 63.046622 72.72 
L 63.069546 72.72 
L 63.069546 72.72 
L 63.248567 55.92 
L 63.350154 106.32 
L 63.355407 55.92 
L 63.439392 55.92 
L 63.439392 55.92 
L 63.502432 106.32 
L 63.571407 55.92 
L 63.643861 72.72 
L 63.963972 72.72 
L 63.963972 72.72 
L 63.995833 106.32 
L 63.995833 106.32 
L 64.078794 106.32 
L 64.078794 106.32 
L 64.171034 72.72 
L 64.171034 72.72 
L 64.263274 72.72 
L 64.284833 55.92 
L 64.284833 55.92 
L 64.453757 72.72 
L 64.521095 55.92 
L 64.521163 72.72 
L 64.612448 72.72 
L 64.612448 72.72 
L 64.700185 55.92 
L 64.700185 55.92 
L 64.786899 106.32 
L 64.795904 72.72 
L 64.915912 72.72 
L 64.915912 72.72 
L 64.92826 106.32 
L 64.957529 55.92 
L 65.025617 72.72 
L 65.059184 55.92 
L 65.100732 106.32 
L 65.100732 106.32 
L 65.143509 106.32 
L 65.143509 106.32 
L 65.212894 55.92 
L 65.250963 72.72 
L 65.34218 72.72 
L 65.49166 106.32 
L 65.49166 106.32 
L 65.585537 55.92 
L 65.653967 72.72 
L 65.685145 55.92 
L 65.825143 55.92 
L 65.825143 55.92 
L 65.931096 106.32 
L 65.931096 106.32 
L 65.954429 55.92 
L 66.031318 106.32 
L 66.120419 55.92 
L 66.120419 55.92 
L 66.256596 106.32 
L 66.256596 106.32 
L 66.352588 72.72 
L 66.438619 72.72 
L 66.438619 72.72 
L 66.51892 106.32 
L 66.51892 106.32 
L 66.59656 106.32 
L 66.59656 106.32 
L 66.726664 55.92 
L 66.726664 55.92 
L 66.800415 55.92 
L 66.821974 106.32 
L 66.927859 72.72 
L 66.927995 55.92 
L 66.974661 106.32 
L 66.974661 106.32 
L 67.053188 106.32 
L 67.161733 72.72 
L 67.215767 106.32 
L 67.247969 72.72 
L 67.264821 55.92 
L 67.292452 72.72 
L 67.378415 55.92 
L 67.378415 55.92 
L 67.384214 106.32 
L 67.472019 72.72 
L 67.520868 72.72 
L 67.520868 72.72 
L 67.59114 106.32 
L 67.591208 72.72 
L 67.661957 72.72 
L 67.755698 55.92 
L 67.8813 106.32 
L 67.946864 72.72 
L 68.032281 106.32 
L 68.032281 106.32 
L 68.154949 72.72 
L 68.154949 72.72 
L 68.222628 106.32 
L 68.246848 72.72 
L 68.271068 72.72 
L 68.271068 72.72 
L 68.29481 106.32 
L 68.456571 55.92 
L 68.530526 55.92 
L 68.575282 106.32 
L 68.603458 72.72 
L 68.669159 72.72 
L 68.753962 106.32 
L 68.783708 55.92 
L 68.843746 72.72 
L 68.904057 72.72 
L 68.928822 106.32 
L 68.928822 106.32 
L 69.035253 106.32 
L 69.102864 72.72 
L 69.195922 72.72 
L 69.233377 106.32 
L 69.280248 55.92 
L 69.280384 72.72 
L 69.350656 106.32 
L 69.361094 72.72 
L 69.483967 72.72 
L 69.484035 106.32 
L 69.563244 72.72 
L 69.612775 106.32 
L 69.643135 55.92 
L 69.643135 55.92 
L 69.703787 55.92 
L 69.777947 106.32 
L 69.792957 72.72 
L 69.922243 55.92 
L 69.939845 106.32 
L 69.96577 55.92 
L 70.175834 72.72 
L 70.319379 55.92 
L 70.319379 55.92 
L 70.486802 72.72 
L 70.517981 55.92 
L 70.584364 72.72 
L 70.667393 106.32 
L 70.62332 55.92 
L 70.685814 55.92 
L 70.733639 55.92 
L 70.733639 55.92 
L 70.733708 106.32 
L 70.733708 106.32 
L 70.849621 55.92 
L 70.951276 106.32 
L 71.023663 55.92 
L 71.023663 55.92 
L 71.120815 106.32 
L 71.120815 106.32 
L 71.259993 55.92 
L 71.285305 106.32 
L 71.36465 55.92 
L 71.530572 106.32 
L 71.544354 55.92 
L 71.633455 106.32 
L 71.765675 106.32 
L 71.765675 106.32 
L 71.883908 55.92 
L 71.908401 106.32 
L 71.980037 55.92 
L 72.128494 106.32 
L 72.217118 55.92 
L 72.217118 55.92 
L 72.39457 72.72 
L 72.394639 55.92 
L 72.416607 106.32 
L 72.513623 106.32 
L 72.621213 55.92 
L 72.621213 55.92 
L 72.790137 106.32 
L 72.79505 55.92 
L 72.867027 106.32 
L 72.995357 55.92 
L 72.995357 55.92 
L 73.169808 72.72 
L 73.285586 106.32 
L 73.285586 106.32 
L 73.427902 55.92 
L 73.46297 106.32 
L 73.504655 72.72 
L 73.62016 55.92 
L 73.62016 55.92 
L 73.823469 72.72 
L 73.955143 55.92 
L 73.955143 55.92 
L 73.998398 106.32 
L 74.051886 72.72 
L 74.121884 72.72 
L 74.15627 106.32 
L 74.233022 55.92 
L 74.265702 106.32 
L 74.352484 72.72 
L 74.456731 106.32 
L 74.456868 72.72 
L 74.589292 72.72 
L 74.668774 106.32 
L 74.668774 106.32 
L 74.791374 55.92 
L 74.849569 72.72 
L 74.849706 106.32 
L 74.936829 55.92 
L 75.016583 72.72 
L 75.261578 72.72 
L 75.273108 55.92 
L 75.355115 72.72 
L 75.365212 106.32 
L 75.396118 55.92 
L 75.412764 55.92 
L 75.473962 55.92 
L 75.473962 55.92 
L 75.555286 106.32 
L 75.555286 106.32 
L 75.634495 72.72 
L 75.674475 106.32 
L 75.674543 55.92 
L 75.726325 72.72 
L 75.806217 55.92 
L 75.816655 106.32 
L 75.816723 72.72 
L 76.002226 55.92 
L 76.03859 106.32 
L 76.134787 55.92 
L 76.223206 106.32 
L 76.242173 55.92 
L 76.347784 106.32 
L 76.366614 72.72 
L 76.440979 106.32 
L 76.444732 55.92 
L 76.48437 55.92 
L 76.48437 55.92 
L 76.5163 106.32 
L 76.591415 55.92 
L 76.648383 106.32 
L 76.712923 72.72 
L 76.722816 72.72 
L 76.79452 106.32 
L 76.801206 72.72 
L 76.889011 106.32 
L 76.889011 106.32 
L 76.992167 55.92 
L 76.992167 55.92 
L 77.113812 106.32 
L 77.131687 55.92 
L 77.164025 72.72 
L 77.323876 106.32 
L 77.323876 106.32 
L 77.352121 106.32 
L 77.373884 55.92 
L 77.428874 106.32 
L 77.54622 55.92 
L 77.623996 106.32 
L 77.627476 55.92 
L 77.786576 106.32 
L 77.859986 55.92 
L 77.883864 106.32 
L 77.939467 106.32 
L 77.960754 72.72 
L 78.054972 106.32 
L 78.064455 72.72 
L 78.096248 72.72 
L 78.10464 106.32 
L 78.134727 72.72 
L 78.231333 55.92 
L 78.239793 72.72 
L 78.253301 72.72 
L 78.392412 55.92 
L 78.491815 106.32 
L 78.491815 106.32 
L 78.532477 106.32 
L 78.532477 106.32 
L 78.637952 55.92 
L 78.655213 72.72 
L 78.700037 55.92 
L 78.741381 72.72 
L 78.773447 72.72 
L 78.781088 106.32 
L 78.816838 55.92 
L 78.828299 55.92 
L 78.898434 72.72 
L 78.91665 106.32 
L 78.91665 106.32 
L 79.043003 72.72 
L 79.043003 72.72 
L 79.123985 106.32 
L 79.217249 55.92 
L 79.22489 72.72 
L 79.325589 55.92 
L 79.458423 106.32 
L 79.458491 72.72 
L 79.562397 55.92 
L 79.562397 55.92 
L 79.566082 106.32 
L 79.661801 72.72 
L 79.726683 106.32 
L 79.726683 106.32 
L 79.762842 55.92 
L 79.799547 106.32 
L 79.946162 55.92 
L 79.946162 55.92 
L 80.130368 106.32 
L 80.226565 55.92 
L 80.328357 72.72 
L 80.333473 55.92 
L 80.43738 106.32 
L 80.43738 106.32 
L 80.541354 55.92 
L 80.552952 106.32 
L 80.581266 72.72 
L 80.668047 106.32 
L 80.668047 106.32 
L 80.80975 55.92 
L 80.883228 106.32 
L 80.908471 72.72 
L 81.086265 55.92 
L 81.086265 55.92 
L 81.159197 72.72 
L 81.320685 55.92 
L 81.390343 106.32 
L 81.421726 72.72 
L 81.486335 72.72 
L 81.562542 106.32 
L 81.491861 55.92 
L 81.562542 106.32 
L 81.671292 72.72 
L 81.698582 106.32 
L 81.770082 72.72 
L 81.79703 55.92 
L 81.79703 55.92 
L 81.924133 106.32 
L 81.924133 106.32 
L 82.148797 55.92 
L 82.236807 106.32 
L 82.24247 72.72 
L 82.378578 106.32 
L 82.378578 106.32 
L 82.383149 55.92 
L 82.385673 72.72 
L 82.545729 55.92 
L 82.545729 55.92 
L 82.640152 106.32 
L 82.818969 55.92 
L 82.835547 106.32 
L 82.923011 55.92 
L 82.991987 55.92 
L 83.05912 106.32 
L 83.210101 72.72 
L 83.210101 72.72 
L 83.295041 106.32 
L 83.226884 55.92 
L 83.295041 106.32 
L 83.432923 106.32 
L 83.432923 106.32 
L 83.464784 55.92 
L 83.558661 72.72 
L 83.567599 106.32 
L 83.603894 55.92 
L 83.615902 72.72 
L 83.679078 72.72 
L 83.679078 72.72 
L 83.733317 55.92 
L 83.908449 72.72 
L 83.908449 72.72 
L 84.001167 72.72 
L 84.105346 106.32 
L 84.105346 106.32 
L 84.223648 55.92 
L 84.2493 72.72 
L 84.2639 72.72 
L 84.2639 72.72 
L 84.354093 106.32 
L 84.359278 55.92 
L 84.456567 72.72 
L 84.487609 55.92 
L 84.48952 72.72 
L 84.523291 106.32 
L 84.548261 55.92 
L 84.590287 72.72 
L 84.791687 106.32 
L 84.791687 106.32 
L 84.828801 72.72 
L 84.842037 106.32 
L 84.965251 106.32 
L 85.077412 55.92 
L 85.077412 55.92 
L 85.205061 106.32 
L 85.205061 106.32 
L 85.278402 55.92 
L 85.278402 55.92 
L 85.493583 55.92 
L 85.493583 55.92 
L 85.545502 106.32 
L 85.614272 72.72 
L 85.647771 72.72 
L 85.716746 55.92 
L 85.852991 106.32 
L 85.897473 55.92 
L 85.954987 106.32 
L 86.132508 72.72 
L 86.19391 72.72 
L 86.327494 106.32 
L 86.327494 106.32 
L 86.398789 55.92 
L 86.398857 72.72 
L 86.504264 72.72 
L 86.504264 72.72 
L 86.535238 106.32 
L 86.582586 55.92 
L 86.582586 55.92 
L 86.627205 55.92 
L 86.645694 106.32 
L 86.739912 72.72 
L 86.808478 106.32 
L 86.809774 72.72 
L 86.944859 55.92 
L 86.944859 55.92 
L 87.081036 106.32 
L 87.081036 106.32 
L 87.226969 55.92 
L 87.314023 106.32 
L 87.388661 72.72 
L 87.388661 72.72 
L 87.511261 55.92 
L 87.610187 106.32 
L 87.696355 55.92 
L 87.730126 72.72 
L 87.763488 72.72 
L 87.763488 72.72 
L 87.785252 55.92 
L 87.817249 106.32 
L 87.817249 106.32 
L 87.842424 106.32 
L 87.933572 55.92 
L 87.96823 72.72 
L 87.980716 72.72 
L 87.980716 72.72 
L 88.073911 106.32 
L 88.121873 72.72 
L 88.121873 72.72 
L 88.251022 106.32 
L 88.251022 106.32 
L 88.338623 55.92 
L 88.338623 55.92 
L 88.413124 106.32 
L 88.413124 106.32 
L 88.491105 55.92 
L 88.559602 72.72 
L 88.645156 106.32 
L 88.688343 55.92 
L 88.754657 106.32 
L 88.898816 55.92 
L 88.994262 55.92 
L 89.096122 106.32 
L 89.096122 106.32 
L 89.223975 55.92 
L 89.223975 55.92 
L 89.322628 106.32 
L 89.333271 55.92 
L 89.466377 106.32 
L 89.466377 106.32 
L 89.488414 55.92 
L 89.520002 72.72 
L 89.610946 106.32 
L 89.610946 106.32 
L 89.745758 55.92 
L 89.822715 106.32 
L 89.847344 55.92 
L 89.87518 106.32 
L 89.879342 72.72 
L 90.03735 55.92 
L 90.120584 106.32 
L 90.120584 106.32 
L 90.245981 72.72 
L 90.245981 72.72 
L 90.314888 55.92 
L 90.360463 106.32 
L 90.438443 55.92 
L 90.468121 106.32 
L 90.488589 106.32 
L 90.488589 106.32 
L 90.498891 55.92 
L 90.561794 106.32 
L 90.801331 55.92 
L 90.81327 106.32 
L 90.910013 72.72 
L 90.933141 72.72 
L 90.961932 55.92 
L 91.012486 106.32 
L 91.043529 72.72 
L 91.171382 72.72 
L 91.248135 106.32 
L 91.248135 106.32 
L 91.312402 55.92 
L 91.384993 72.72 
L 91.448783 106.32 
L 91.440255 55.92 
L 91.448852 55.92 
L 91.486239 55.92 
L 91.486239 55.92 
L 91.575409 106.32 
L 91.726458 55.92 
L 91.862976 106.32 
L 91.994718 55.92 
L 92.004747 72.72 
L 92.124208 72.72 
L 92.124277 106.32 
L 92.216585 72.72 
L 92.317353 106.32 
L 92.376503 106.32 
L 92.480955 55.92 
L 92.510156 55.92 
L 92.531783 106.32 
L 92.611469 72.72 
L 92.67676 72.72 
L 92.676829 106.32 
L 92.757675 72.72 
L 92.813073 106.32 
L 92.813142 55.92 
L 92.826241 55.92 
L 92.913637 55.92 
L 93.000077 106.32 
L 93.000077 106.32 
L 93.072396 106.32 
L 93.091703 55.92 
L 93.097639 72.72 
L 93.202159 72.72 
L 93.228153 106.32 
L 93.260764 55.92 
L 93.260764 55.92 
L 93.358394 106.32 
L 93.369173 72.72 
L 93.494843 72.72 
L 93.494843 72.72 
L 93.608642 106.32 
L 93.655581 55.92 
L 93.705794 106.32 
L 93.774019 55.92 
L 93.818297 106.32 
L 93.865099 55.92 
L 93.910468 55.92 
L 94.003732 72.72 
L 94.003732 72.72 
L 94.040164 72.72 
L 94.070865 106.32 
L 94.058107 55.92 
L 94.115484 72.72 
L 94.176477 55.92 
L 94.283726 55.92 
L 94.283726 55.92 
L 94.375011 72.72 
L 94.52415 55.92 
L 94.584733 106.32 
L 94.610454 72.72 
L 94.689049 55.92 
L 94.689117 72.72 
L 94.760958 106.32 
L 94.721592 55.92 
L 94.799368 72.72 
L 94.804758 106.32 
L 94.804758 106.32 
L 94.925925 106.32 
L 94.925925 106.32 
L 94.965496 55.92 
L 94.970271 106.32 
L 95.204214 55.92 
L 95.274008 106.32 
L 95.313442 55.92 
L 95.402611 106.32 
L 95.427923 72.72 
L 95.646651 55.92 
L 95.752945 106.32 
L 95.752945 106.32 
L 95.947113 55.92 
L 96.02216 106.32 
L 96.055454 72.72 
L 96.15131 106.32 
L 96.151446 55.92 
L 96.241025 55.92 
L 96.345546 106.32 
L 96.345546 106.32 
L 96.374473 55.92 
L 96.445972 106.32 
L 96.489909 55.92 
L 96.568231 72.72 
L 96.636251 106.32 
L 96.65242 72.72 
L 96.736132 55.92 
L 96.740157 72.72 
L 96.872172 106.32 
L 96.967619 72.72 
L 96.967619 72.72 
L 97.076301 106.32 
L 97.040346 55.92 
L 97.076301 106.32 
L 97.093084 72.72 
L 97.093084 72.72 
L 97.316725 106.32 
L 97.416469 72.72 
L 97.416469 72.72 
L 97.485035 106.32 
L 97.488446 72.72 
L 97.52904 55.92 
L 97.576115 72.72 
L 97.590033 106.32 
L 97.658531 55.92 
L 97.677224 55.92 
L 97.922492 106.32 
L 97.922492 106.32 
L 98.021623 72.72 
L 98.021623 72.72 
L 98.202077 55.92 
L 98.202077 55.92 
L 98.245604 55.92 
L 98.307211 106.32 
L 98.326655 55.92 
L 98.36568 55.92 
L 98.36568 55.92 
L 98.435747 72.72 
L 98.440727 106.32 
L 98.500628 55.92 
L 98.562167 55.92 
L 98.648881 106.32 
L 98.769843 55.92 
L 98.774892 72.72 
L 98.798225 106.32 
L 98.824832 55.92 
L 98.87641 72.72 
L 98.899197 72.72 
L 98.916595 106.32 
L 98.9183 55.92 
L 99.006856 72.72 
L 99.073307 55.92 
L 99.073375 106.32 
L 99.115197 72.72 
L 99.206959 106.32 
L 99.207027 72.72 
L 99.235818 72.72 
L 99.248099 55.92 
L 99.273956 106.32 
L 99.301519 72.72 
L 99.386663 72.72 
L 99.386663 72.72 
L 99.485862 106.32 
L 99.59277 55.92 
L 99.59277 55.92 
L 99.678597 106.32 
L 99.678597 106.32 
L 99.793692 55.92 
L 99.793692 55.92 
L 99.89098 72.72 
L 99.89098 72.72 
L 100.064612 55.92 
L 100.161901 106.32 
L 100.161901 106.32 
L 100.200652 106.32 
L 100.200652 106.32 
L 100.293779 55.92 
L 100.293779 55.92 
L 100.396867 106.32 
L 100.420336 72.72 
L 100.497021 55.92 
L 100.429342 106.32 
L 100.497089 106.32 
L 100.531406 106.32 
L 100.531406 106.32 
L 100.644181 55.92 
L 100.646569 72.72 
L 100.725778 106.32 
L 100.746177 72.72 
L 100.751908 55.92 
L 100.802872 106.32 
L 100.802872 106.32 
L 100.891087 106.32 
L 100.984486 55.92 
L 100.984555 106.32 
L 101.046844 55.92 
L 101.10463 72.72 
L 101.116433 106.32 
L 101.124211 55.92 
L 101.180769 72.72 
L 101.271781 106.32 
L 101.271781 106.32 
L 101.353991 55.92 
L 101.353991 55.92 
L 101.438522 106.32 
L 101.457011 55.92 
L 101.512887 106.32 
L 101.565556 55.92 
L 101.782989 106.32 
L 101.888396 55.92 
L 101.893854 106.32 
L 101.981727 72.72 
L 101.981727 72.72 
L 102.056774 55.92 
L 102.066189 106.32 
L 102.133868 55.92 
L 102.291672 106.32 
L 102.375384 55.92 
L 102.387596 72.72 
L 102.418843 106.32 
L 102.421504 72.72 
L 102.508422 55.92 
L 102.526502 72.72 
L 102.600253 106.32 
L 102.570029 55.92 
L 102.600253 106.32 
L 102.668341 72.72 
L 102.705387 106.32 
L 102.742228 106.32 
L 102.87745 55.92 
L 103.024747 106.32 
L 103.06077 72.72 
L 103.201654 72.72 
L 103.201654 72.72 
L 103.233174 55.92 
L 103.245454 72.72 
L 103.305287 106.32 
L 103.295804 55.92 
L 103.311154 55.92 
L 103.377878 55.92 
L 103.377878 55.92 
L 103.513441 106.32 
L 103.582962 55.92 
L 103.608068 72.72 
L 103.685776 72.72 
L 103.818064 106.32 
L 103.818064 106.32 
L 103.819565 55.92 
L 103.920265 72.72 
L 103.981667 106.32 
L 104.021306 72.72 
L 104.08687 72.72 
L 104.095466 106.32 
L 104.15987 55.92 
L 104.178154 55.92 
L 104.324701 72.72 
L 104.391425 55.92 
L 104.415303 72.72 
L 104.549911 72.72 
L 104.64604 106.32 
L 104.649178 72.72 
L 104.762158 106.32 
L 104.730365 55.92 
L 104.762158 106.32 
L 104.855285 55.92 
L 104.9012 106.32 
L 105.103213 72.72 
L 105.124841 72.72 
L 105.223016 55.92 
L 105.223084 72.72 
L 105.360625 106.32 
L 105.439698 72.72 
L 105.470604 106.32 
L 105.473196 55.92 
L 105.574373 72.72 
L 105.664089 106.32 
L 105.723445 55.92 
L 105.761105 72.72 
L 105.813228 55.92 
L 105.92307 106.32 
L 105.92307 106.32 
L 105.940399 55.92 
L 105.940399 55.92 
L 106.112257 72.72 
L 106.142549 55.92 
L 106.142754 72.72 
L 106.24666 106.32 
L 106.432163 55.92 
L 106.432163 55.92 
L 106.432641 72.72 
L 106.432641 72.72 
L 106.609343 72.72 
L 106.63404 106.32 
L 106.679341 72.72 
L 106.783998 106.32 
L 106.918332 106.32 
L 107.015007 55.92 
L 107.015007 55.92 
L 107.165715 72.72 
L 107.273988 55.92 
L 107.273988 55.92 
L 107.304757 106.32 
L 107.350332 72.72 
L 107.473068 55.92 
L 107.473136 106.32 
L 107.521985 55.92 
L 107.627324 106.32 
L 107.627324 106.32 
L 107.751629 72.72 
L 107.840731 106.32 
L 108.020435 106.32 
L 108.020435 106.32 
L 108.023914 55.92 
L 108.082451 106.32 
L 108.152381 106.32 
L 108.152381 106.32 
L 108.259017 72.72 
L 108.294562 106.32 
L 108.331335 55.92 
L 108.346549 55.92 
L 108.489002 55.92 
L 108.600004 106.32 
L 108.618356 106.32 
L 108.618356 106.32 
L 108.653424 55.92 
L 108.744163 72.72 
L 108.871197 72.72 
L 108.918955 106.32 
L 108.90183 55.92 
L 108.928028 55.92 
L 109.057928 106.32 
L 109.090949 72.72 
L 109.178277 72.72 
L 109.178277 72.72 
L 109.276248 106.32 
L 109.227535 55.92 
L 109.279181 72.72 
L 109.34495 55.92 
L 109.286686 106.32 
L 109.380222 106.32 
L 109.456634 55.92 
L 109.501594 72.72 
L 109.598882 106.32 
L 109.529498 55.92 
L 109.598882 106.32 
L 109.651961 106.32 
L 109.735741 55.92 
L 109.758801 72.72 
L 109.770331 72.72 
L 109.770331 72.72 
L 109.839374 106.32 
L 109.829004 55.92 
L 109.845719 72.72 
L 109.905621 72.72 
L 109.941098 106.32 
L 109.972481 55.92 
L 110.00366 72.72 
L 110.025764 55.92 
L 110.040296 106.32 
L 110.111659 106.32 
L 110.126805 55.92 
L 110.228869 72.72 
L 110.269327 106.32 
L 110.277855 55.92 
L 110.326977 55.92 
L 110.425766 106.32 
L 110.436341 55.92 
L 110.471272 55.92 
L 110.471272 55.92 
L 110.512275 106.32 
L 110.576406 72.72 
L 110.608199 55.92 
L 110.656707 72.72 
L 110.773166 106.32 
L 110.692252 55.92 
L 110.773166 106.32 
L 110.888262 55.92 
L 110.91521 72.72 
L 110.919577 72.72 
L 110.919577 72.72 
L 111.02553 106.32 
L 111.141034 55.92 
L 111.141034 55.92 
L 111.244395 106.32 
L 111.244463 55.92 
L 111.377433 106.32 
L 111.377433 106.32 
L 111.465784 55.92 
L 111.494575 72.72 
L 111.52896 106.32 
L 111.579992 72.72 
L 111.661998 55.92 
L 111.757786 106.32 
L 111.870084 55.92 
L 111.905083 106.32 
L 111.945131 55.92 
L 112.041805 55.92 
L 112.132885 106.32 
L 112.132954 72.72 
L 112.174775 106.32 
L 112.193605 72.72 
L 112.345474 55.92 
L 112.450471 106.32 
L 112.567545 55.92 
L 112.567545 55.92 
L 112.635292 106.32 
L 112.635361 55.92 
L 112.705359 55.92 
L 112.705359 55.92 
L 112.800328 106.32 
L 112.857227 72.72 
L 112.866097 72.72 
L 112.866097 72.72 
L 112.951855 106.32 
L 112.951855 106.32 
L 112.989924 72.72 
L 113.084347 106.32 
L 113.084347 106.32 
L 113.2399 55.92 
L 113.309762 106.32 
L 113.385901 55.92 
L 113.415715 72.72 
L 113.50584 55.92 
L 113.519962 72.72 
L 113.564991 106.32 
L 113.594873 72.72 
L 113.636286 55.92 
L 113.652387 72.72 
L 113.666168 106.32 
L 113.720338 72.72 
L 113.809304 72.72 
L 113.809304 72.72 
L 113.897041 106.32 
L 113.842324 55.92 
L 113.897177 55.92 
L 113.986551 106.32 
L 113.994329 72.72 
L 114.043246 55.92 
L 114.043246 55.92 
L 114.115496 106.32 
L 114.16032 72.72 
L 114.247716 55.92 
L 114.313757 72.72 
L 114.368473 55.92 
L 114.473881 106.32 
L 114.473881 106.32 
L 114.494007 72.72 
L 114.494007 72.72 
L 114.684968 106.32 
L 114.755922 55.92 
L 114.791467 72.72 
L 114.813708 106.32 
L 114.874019 72.72 
L 114.896124 55.92 
L 114.908336 106.32 
L 114.974377 72.72 
L 115.091451 72.72 
L 115.091519 55.92 
L 115.13416 106.32 
L 115.200065 106.32 
L 115.217871 106.32 
L 115.339243 55.92 
L 115.339243 55.92 
L 115.380928 106.32 
L 115.447175 72.72 
L 115.473987 72.72 
L 115.526929 106.32 
L 115.556744 72.72 
L 115.563566 55.92 
L 115.633701 106.32 
L 115.640728 72.72 
L 115.753572 106.32 
L 115.753572 106.32 
L 115.793142 72.72 
L 115.793142 72.72 
L 115.915196 72.72 
L 115.969708 55.92 
L 115.969776 72.72 
L 116.083166 106.32 
L 116.106021 106.32 
L 116.138087 55.92 
L 116.206652 72.72 
L 116.226438 72.72 
L 116.27092 55.92 
L 116.305919 72.72 
L 116.419718 106.32 
L 116.419718 106.32 
L 116.451238 55.92 
L 116.531675 72.72 
L 116.599422 106.32 
L 116.579091 55.92 
L 116.599559 72.72 
L 116.71786 72.72 
L 116.71786 72.72 
L 116.779808 106.32 
L 116.789292 55.92 
L 116.827702 72.72 
L 116.862838 72.72 
L 116.917759 106.32 
L 116.972407 55.92 
L 117.103057 106.32 
L 117.103125 72.72 
L 117.140581 55.92 
L 117.140581 55.92 
L 117.244828 72.72 
L 117.342799 106.32 
L 117.342799 106.32 
L 117.484706 55.92 
L 117.484706 55.92 
L 117.605669 72.72 
L 117.611195 55.92 
L 117.611195 55.92 
L 117.763882 72.72 
L 117.764018 106.32 
L 117.895692 106.32 
L 117.911384 55.92 
L 117.951773 72.72 
L 118.091497 72.72 
L 118.091497 72.72 
L 118.172207 55.92 
L 118.195335 106.32 
L 118.271542 72.72 
L 118.271542 72.72 
L 118.421841 106.32 
L 118.421841 106.32 
L 118.484199 106.32 
L 118.484199 106.32 
L 118.522609 72.72 
L 118.617442 72.72 
L 118.631018 55.92 
L 118.668269 72.72 
L 118.7616 55.92 
L 118.761669 106.32 
L 118.858275 72.72 
L 118.923975 55.92 
L 118.923975 55.92 
L 118.957201 106.32 
L 119.00257 72.72 
L 119.137792 55.92 
L 119.137792 55.92 
L 119.17784 106.32 
L 119.177908 72.72 
L 119.283929 72.72 
L 119.284065 106.32 
L 119.297574 72.72 
L 119.641358 72.72 
L 119.641358 72.72 
L 119.776512 55.92 
L 119.810351 106.32 
L 119.810419 72.72 
L 120.168394 72.72 
L 120.168531 55.92 
L 120.261999 106.32 
L 120.333839 55.92 
L 120.333839 55.92 
L 120.476361 55.92 
L 120.571739 72.72 
L 120.976516 72.72 
L 120.976516 72.72 
L 121.073873 106.32 
L 121.073873 106.32 
L 121.624788 55.92 
L 121.685849 106.32 
L 121.724942 55.92 
L 121.753801 55.92 
L 121.828643 72.72 
L 122.247611 72.72 
L 122.304102 55.92 
L 122.336167 106.32 
L 122.412101 72.72 
L 122.432501 72.72 
L 122.432501 72.72 
L 122.637857 106.32 
L 122.637925 55.92 
L 123.013912 72.72 
L 123.013912 72.72 
L 123.109836 72.72 
L 123.109836 72.72 
L 123.690223 55.92 
L 123.690223 55.92 
L 123.987888 55.92 
L 124.027731 72.72 
L 124.027731 72.72 
L 124.131092 106.32 
L 124.400921 72.72 
L 124.43244 106.32 
L 124.432509 72.72 
L 124.527273 72.72 
L 124.527273 72.72 
" clip-path="url(#pfdd8bff0f2)" style="fill: none; stroke: #000000; stroke-width: 5; stroke-linecap: square"/>
   </g>
   <g id="patch_3">
    <path d="M 18 128.16 
L 18 17.28 
" style="fill: none; stroke: #000000; stroke-width: 0.8; stroke-linejoin: miter; stroke-linecap: square"/>
   </g>
   <g id="patch_4">
    <path d="M 129.6 128.16 
L 129.6 17.28 
" style="fill: none; stroke: #000000; stroke-width: 0.8; stroke-linejoin: miter; stroke-linecap: square"/>
   </g>
   <g id="patch_5">
    <path d="M 18 128.16 
L 129.6 128.16 
" style="fill: none; stroke: #000000; stroke-width: 0.8; stroke-linejoin: miter; stroke-linecap: square"/>
   </g>
   <g id="patch_6">
    <path d="M 18 17.28 
L 129.6 17.28 
" style="fill: none; stroke: #000000; stroke-width: 0.8; stroke-linejoin: miter; stroke-linecap: square"/>
   </g>
  </g>
 </g>
 <defs>
  <clipPath id="pfdd8bff0f2">
   <rect x="18" y="17.28" width="111.6" height="110.88"/>
  </clipPath>
 </defs>
</svg>
