<?xml version="1.0" encoding="utf-8" standalone="no"?>
<!DOCTYPE svg PUBLIC "-//W3C//DTD SVG 1.1//EN"
  "http://www.w3.org/Graphics/SVG/1.1/DTD/svg11.dtd">
<svg xmlns:xlink="http://www.w3.org/1999/xlink" width="144pt" height="144pt" viewBox="0 0 144 144" xmlns="http://www.w3.org/2000/svg" version="1.1">
 <metadata>
  <rdf:RDF xmlns:dc="http://purl.org/dc/elements/1.1/" xmlns:cc="http://creativecommons.org/ns#" xmlns:rdf="http://www.w3.org/1999/02/22-rdf-syntax-ns#">
   <cc:Work>
    <dc:type rdf:resource="http://purl.org/dc/dcmitype/StillImage"/>
    <dc:date>2026-05-21T17:07:36.448409</dc:date>
    <dc:format>image/svg+xml</dc:format>
    <dc:creator>
     <cc:Agent>
      <dc:title>Matplotlib v3.10.9, https://matplotlib.org/</dc:title>
     </cc:Agent>
    </dc:creator>
   </cc:Work>
  </rdf:RDF>
 </metadata>
 <defs>
  <style type="text/css">*{stroke-linejoin: round; stroke-linecap: butt}</style>
 </defs>
 <g id="figure_1">
  <g id="patch_1">
   <path d="M 0 144 
L 144 144 
L 144 0 
L 0 0 
z
" style="fill: #ffffff"/>
  </g>
  <g id="axes_1">
   <g id="patch_2">
    <path d="M 18 128.16 
L 129.6 128.16 
L 129.6 17.28 
L 18 17.28 
z
" style="fill: #ffffff; stroke: #000000; stroke-width: 1.5; stroke-linejoin: miter"/>
   </g>
   <g id="matplotlib.axis_1">
    <g id="xtick_1">
     <g id="line2d_1">
      <defs>
       <path id="m1948a590f4" d="M 0 0 
L 0 3.5 
" style="stroke: #000000; stroke-width: 0.8"/>
      </defs>
      <g>
       <use xlink:href="#m1948a590f4" x="23.072727" y="128.16" style="stroke: #000000; stroke-width: 0.8"/>
      </g>
     </g>
     <g id="text_1">
      <!-- 3.452 -->
      <g transform="translate(20.209915 136.679688) scale(0.02 -0.02)">
       <defs>
        <path id="DejaVuSans-33" d="M 2597 2516 
Q 3050 2419 3304 2112 
Q 3559 1806 3559 1356 
Q 3559 666 3084 287 
Q 2609 -91 1734 -91 
Q 1441 -91 1130 -33 
Q 819 25 488 141 
L 488 750 
Q 750 597 1062 519 
Q 1375 441 1716 441 
Q 2309 441 2620 675 
Q 2931 909 2931 1356 
Q 2931 1769 2642 2001 
Q 2353 2234 1838 2234 
L 1294 2234 
L 1294 2753 
L 1863 2753 
Q 2328 2753 2575 2939 
Q 2822 3125 2822 3475 
Q 2822 3834 2567 4026 
Q 2313 4219 1838 4219 
Q 1578 4219 1281 4162 
Q 984 4106 628 3988 
L 628 4550 
Q 988 4650 1302 4700 
Q 1616 4750 1894 4750 
Q 2613 4750 3031 4423 
Q 3450 4097 3450 3541 
Q 3450 3153 3228 2886 
Q 3006 2619 2597 2516 
z
" transform="scale(0.015625)"/>
        <path id="DejaVuSans-2e" d="M 684 794 
L 1344 794 
L 1344 0 
L 684 0 
L 684 794 
z
" transform="scale(0.015625)"/>
        <path id="DejaVuSans-34" d="M 2419 4116 
L 825 1625 
L 2419 1625 
L 2419 4116 
z
M 2253 4666 
L 3047 4666 
L 3047 1625 
L 3713 1625 
L 3713 1100 
L 3047 1100 
L 3047 0 
L 2419 0 
L 2419 1100 
L 313 1100 
L 313 1709 
L 2253 4666 
z
" transform="scale(0.015625)"/>
        <path id="DejaVuSans-35" d="M 691 4666 
L 3169 4666 
L 3169 4134 
L 1269 4134 
L 1269 2991 
Q 1406 3038 1543 3061 
Q 1681 3084 1819 3084 
Q 2600 3084 3056 2656 
Q 3513 2228 3513 1497 
Q 3513 744 3044 326 
Q 2575 -91 1722 -91 
Q 1428 -91 1123 -41 
Q 819 9 494 109 
L 494 744 
Q 775 591 1075 516 
Q 1375 441 1709 441 
Q 2250 441 2565 725 
Q 2881 1009 2881 1497 
Q 2881 1984 2565 2268 
Q 2250 2553 1709 2553 
Q 1456 2553 1204 2497 
Q 953 2441 691 2322 
L 691 4666 
z
" transform="scale(0.015625)"/>
        <path id="DejaVuSans-32" d="M 1228 531 
L 3431 531 
L 3431 0 
L 469 0 
L 469 531 
Q 828 903 1448 1529 
Q 2069 2156 2228 2338 
Q 2531 2678 2651 2914 
Q 2772 3150 2772 3378 
Q 2772 3750 2511 3984 
Q 2250 4219 1831 4219 
Q 1534 4219 1204 4116 
Q 875 4013 500 3803 
L 500 4441 
Q 881 4594 1212 4672 
Q 1544 4750 1819 4750 
Q 2544 4750 2975 4387 
Q 3406 4025 3406 3419 
Q 3406 3131 3298 2873 
Q 3191 2616 2906 2266 
Q 2828 2175 2409 1742 
Q 1991 1309 1228 531 
z
" transform="scale(0.015625)"/>
       </defs>
       <use xlink:href="#DejaVuSans-33"/>
       <use xlink:href="#DejaVuSans-2e" transform="translate(63.623047 0)"/>
       <use xlink:href="#DejaVuSans-34" transform="translate(95.410156 0)"/>
       <use xlink:href="#DejaVuSans-35" transform="translate(159.033203 0)"/>
       <use xlink:href="#DejaVuSans-32" transform="translate(222.65625 0)"/>
      </g>
     </g>
    </g>
    <g id="xtick_2">
     <g id="line2d_2">
      <g>
       <use xlink:href="#m1948a590f4" x="124.527273" y="128.16" style="stroke: #000000; stroke-width: 0.8"/>
      </g>
     </g>
     <g id="text_2">
      <!-- 4.574 -->
      <g transform="translate(121.66446 136.679688) scale(0.02 -0.02)">
       <defs>
        <path id="DejaVuSans-37" d="M 525 4666 
L 3525 4666 
L 3525 4397 
L 1831 0 
L 1172 0 
L 2766 4134 
L 525 4134 
L 525 4666 
z
" transform="scale(0.015625)"/>
       </defs>
       <use xlink:href="#DejaVuSans-34"/>
       <use xlink:href="#DejaVuSans-2e" transform="translate(63.623047 0)"/>
       <use xlink:href="#DejaVuSans-35" transform="translate(95.410156 0)"/>
       <use xlink:href="#DejaVuSans-37" transform="translate(159.033203 0)"/>
       <use xlink:href="#DejaVuSans-34" transform="translate(222.65625 0)"/>
      </g>
     </g>
    </g>
    <g id="text_3">
     <!-- 1e−5+1.167e−1 -->
     <g transform="translate(44.439062 147.694063) scale(0.1 -0.1)">
      <defs>
       <path id="DejaVuSans-31" d="M 794 531 
L 1825 531 
L 1825 4091 
L 703 3866 
L 703 4441 
L 1819 4666 
L 2450 4666 
L 2450 531 
L 3481 531 
L 3481 0 
L 794 0 
L 794 531 
z
" transform="scale(0.015625)"/>
       <path id="DejaVuSans-65" d="M 3597 1894 
L 3597 1613 
L 953 1613 
Q 991 1019 1311 708 
Q 1631 397 2203 397 
Q 2534 397 2845 478 
Q 3156 559 3463 722 
L 3463 178 
Q 3153 47 2828 -22 
Q 2503 -91 2169 -91 
Q 1331 -91 842 396 
Q 353 884 353 1716 
Q 353 2575 817 3079 
Q 1281 3584 2069 3584 
Q 2775 3584 3186 3129 
Q 3597 2675 3597 1894 
z
M 3022 2063 
Q 3016 2534 2758 2815 
Q 2500 3097 2075 3097 
Q 1594 3097 1305 2825 
Q 1016 2553 972 2059 
L 3022 2063 
z
" transform="scale(0.015625)"/>
       <path id="DejaVuSans-2212" d="M 678 2272 
L 4684 2272 
L 4684 1741 
L 678 1741 
L 678 2272 
z
" transform="scale(0.015625)"/>
       <path id="DejaVuSans-2b" d="M 2944 4013 
L 2944 2272 
L 4684 2272 
L 4684 1741 
L 2944 1741 
L 2944 0 
L 2419 0 
L 2419 1741 
L 678 1741 
L 678 2272 
L 2419 2272 
L 2419 4013 
L 2944 4013 
z
" transform="scale(0.015625)"/>
       <path id="DejaVuSans-36" d="M 2113 2584 
Q 1688 2584 1439 2293 
Q 1191 2003 1191 1497 
Q 1191 994 1439 701 
Q 1688 409 2113 409 
Q 2538 409 2786 701 
Q 3034 994 3034 1497 
Q 3034 2003 2786 2293 
Q 2538 2584 2113 2584 
z
M 3366 4563 
L 3366 3988 
Q 3128 4100 2886 4159 
Q 2644 4219 2406 4219 
Q 1781 4219 1451 3797 
Q 1122 3375 1075 2522 
Q 1259 2794 1537 2939 
Q 1816 3084 2150 3084 
Q 2853 3084 3261 2657 
Q 3669 2231 3669 1497 
Q 3669 778 3244 343 
Q 2819 -91 2113 -91 
Q 1303 -91 875 529 
Q 447 1150 447 2328 
Q 447 3434 972 4092 
Q 1497 4750 2381 4750 
Q 2619 4750 2861 4703 
Q 3103 4656 3366 4563 
z
" transform="scale(0.015625)"/>
      </defs>
      <use xlink:href="#DejaVuSans-31"/>
      <use xlink:href="#DejaVuSans-65" transform="translate(63.623047 0)"/>
      <use xlink:href="#DejaVuSans-2212" transform="translate(125.146484 0)"/>
      <use xlink:href="#DejaVuSans-35" transform="translate(208.935547 0)"/>
      <use xlink:href="#DejaVuSans-2b" transform="translate(272.558594 0)"/>
      <use xlink:href="#DejaVuSans-31" transform="translate(356.347656 0)"/>
      <use xlink:href="#DejaVuSans-2e" transform="translate(419.970703 0)"/>
      <use xlink:href="#DejaVuSans-31" transform="translate(451.757812 0)"/>
      <use xlink:href="#DejaVuSans-36" transform="translate(515.380859 0)"/>
      <use xlink:href="#DejaVuSans-37" transform="translate(579.003906 0)"/>
      <use xlink:href="#DejaVuSans-65" transform="translate(642.626953 0)"/>
      <use xlink:href="#DejaVuSans-2212" transform="translate(704.150391 0)"/>
      <use xlink:href="#DejaVuSans-31" transform="translate(787.939453 0)"/>
     </g>
    </g>
   </g>
   <g id="matplotlib.axis_2">
    <g id="ytick_1">
     <g id="line2d_3">
      <defs>
       <path id="m6d8e496045" d="M 0 0 
L -3.5 0 
" style="stroke: #000000; stroke-width: 0.8"/>
      </defs>
      <g>
       <use xlink:href="#m6d8e496045" x="18" y="123.12" style="stroke: #000000; stroke-width: 0.8"/>
      </g>
     </g>
     <g id="text_4">
      <!-- 0.360 -->
      <g transform="translate(5.274375 123.879844) scale(0.02 -0.02)">
       <defs>
        <path id="DejaVuSans-30" d="M 2034 4250 
Q 1547 4250 1301 3770 
Q 1056 3291 1056 2328 
Q 1056 1369 1301 889 
Q 1547 409 2034 409 
Q 2525 409 2770 889 
Q 3016 1369 3016 2328 
Q 3016 3291 2770 3770 
Q 2525 4250 2034 4250 
z
M 2034 4750 
Q 2819 4750 3233 4129 
Q 3647 3509 3647 2328 
Q 3647 1150 3233 529 
Q 2819 -91 2034 -91 
Q 1250 -91 836 529 
Q 422 1150 422 2328 
Q 422 3509 836 4129 
Q 1250 4750 2034 4750 
z
" transform="scale(0.015625)"/>
       </defs>
       <use xlink:href="#DejaVuSans-30"/>
       <use xlink:href="#DejaVuSans-2e" transform="translate(63.623047 0)"/>
       <use xlink:href="#DejaVuSans-33" transform="translate(95.410156 0)"/>
       <use xlink:href="#DejaVuSans-36" transform="translate(159.033203 0)"/>
       <use xlink:href="#DejaVuSans-30" transform="translate(222.65625 0)"/>
      </g>
     </g>
    </g>
    <g id="ytick_2">
     <g id="line2d_4">
      <g>
       <use xlink:href="#m6d8e496045" x="18" y="22.32" style="stroke: #000000; stroke-width: 0.8"/>
      </g>
     </g>
     <g id="text_5">
      <!-- 1.478 -->
      <g transform="translate(5.274375 23.079844) scale(0.02 -0.02)">
       <defs>
        <path id="DejaVuSans-38" d="M 2034 2216 
Q 1584 2216 1326 1975 
Q 1069 1734 1069 1313 
Q 1069 891 1326 650 
Q 1584 409 2034 409 
Q 2484 409 2743 651 
Q 3003 894 3003 1313 
Q 3003 1734 2745 1975 
Q 2488 2216 2034 2216 
z
M 1403 2484 
Q 997 2584 770 2862 
Q 544 3141 544 3541 
Q 544 4100 942 4425 
Q 1341 4750 2034 4750 
Q 2731 4750 3128 4425 
Q 3525 4100 3525 3541 
Q 3525 3141 3298 2862 
Q 3072 2584 2669 2484 
Q 3125 2378 3379 2068 
Q 3634 1759 3634 1313 
Q 3634 634 3220 271 
Q 2806 -91 2034 -91 
Q 1263 -91 848 271 
Q 434 634 434 1313 
Q 434 1759 690 2068 
Q 947 2378 1403 2484 
z
M 1172 3481 
Q 1172 3119 1398 2916 
Q 1625 2713 2034 2713 
Q 2441 2713 2670 2916 
Q 2900 3119 2900 3481 
Q 2900 3844 2670 4047 
Q 2441 4250 2034 4250 
Q 1625 4250 1398 4047 
Q 1172 3844 1172 3481 
z
" transform="scale(0.015625)"/>
       </defs>
       <use xlink:href="#DejaVuSans-31"/>
       <use xlink:href="#DejaVuSans-2e" transform="translate(63.623047 0)"/>
       <use xlink:href="#DejaVuSans-34" transform="translate(95.410156 0)"/>
       <use xlink:href="#DejaVuSans-37" transform="translate(159.033203 0)"/>
       <use xlink:href="#DejaVuSans-38" transform="translate(222.65625 0)"/>
      </g>
     </g>
    </g>
    <g id="text_6">
     <!-- 1e−8+3.73949e−2 -->
     <g transform="translate(18 14.28) scale(0.1 -0.1)">
      <defs>
       <path id="DejaVuSans-39" d="M 703 97 
L 703 672 
Q 941 559 1184 500 
Q 1428 441 1663 441 
Q 2288 441 2617 861 
Q 2947 1281 2994 2138 
Q 2813 1869 2534 1725 
Q 2256 1581 1919 1581 
Q 1219 1581 811 2004 
Q 403 2428 403 3163 
Q 403 3881 828 4315 
Q 1253 4750 1959 4750 
Q 2769 4750 3195 4129 
Q 3622 3509 3622 2328 
Q 3622 1225 3098 567 
Q 2575 -91 1691 -91 
Q 1453 -91 1209 -44 
Q 966 3 703 97 
z
M 1959 2075 
Q 2384 2075 2632 2365 
Q 2881 2656 2881 3163 
Q 2881 3666 2632 3958 
Q 2384 4250 1959 4250 
Q 1534 4250 1286 3958 
Q 1038 3666 1038 3163 
Q 1038 2656 1286 2365 
Q 1534 2075 1959 2075 
z
" transform="scale(0.015625)"/>
      </defs>
      <use xlink:href="#DejaVuSans-31"/>
      <use xlink:href="#DejaVuSans-65" transform="translate(63.623047 0)"/>
      <use xlink:href="#DejaVuSans-2212" transform="translate(125.146484 0)"/>
      <use xlink:href="#DejaVuSans-38" transform="translate(208.935547 0)"/>
      <use xlink:href="#DejaVuSans-2b" transform="translate(272.558594 0)"/>
      <use xlink:href="#DejaVuSans-33" transform="translate(356.347656 0)"/>
      <use xlink:href="#DejaVuSans-2e" transform="translate(419.970703 0)"/>
      <use xlink:href="#DejaVuSans-37" transform="translate(451.757812 0)"/>
      <use xlink:href="#DejaVuSans-33" transform="translate(515.380859 0)"/>
      <use xlink:href="#DejaVuSans-39" transform="translate(579.003906 0)"/>
      <use xlink:href="#DejaVuSans-34" transform="translate(642.626953 0)"/>
      <use xlink:href="#DejaVuSans-39" transform="translate(706.25 0)"/>
      <use xlink:href="#DejaVuSans-65" transform="translate(769.873047 0)"/>
      <use xlink:href="#DejaVuSans-2212" transform="translate(831.396484 0)"/>
      <use xlink:href="#DejaVuSans-32" transform="translate(915.185547 0)"/>
     </g>
    </g>
   </g>
   <g id="line2d_5">
    <path d="M 23.072727 89.52 
L 23.409562 89.52 
L 23.409562 89.52 
L 27.855777 22.32 
L 27.923144 89.52 
L 27.923144 89.52 
L 28.192611 55.92 
L 32.638827 55.92 
L 32.908294 123.12 
L 37.421876 89.52 
L 37.623977 55.92 
L 37.623977 55.92 
L 46.44904 55.92 
L 46.44904 55.92 
L 46.785875 22.32 
L 46.785875 22.32 
L 51.23209 89.52 
L 51.299457 55.92 
L 51.299457 55.92 
L 52.040493 55.92 
L 52.714162 22.32 
L 52.781528 55.92 
L 52.781528 55.92 
L 52.983629 55.92 
L 53.18573 22.32 
L 53.18573 22.32 
L 53.320464 89.52 
L 53.320464 89.52 
L 55.678305 89.52 
L 55.678305 89.52 
L 56.351974 22.32 
L 56.958276 55.92 
L 57.227744 22.32 
L 57.699312 89.52 
L 57.699312 89.52 
L 57.901413 55.92 
L 57.901413 55.92 
L 58.17088 89.52 
L 60.12452 89.52 
L 60.191887 22.32 
L 60.259254 55.92 
L 61.067657 123.12 
L 61.337124 22.32 
L 61.404491 55.92 
L 61.673959 89.52 
L 61.943426 89.52 
L 61.943426 89.52 
L 62.347628 55.92 
L 64.503368 55.92 
L 64.772836 22.32 
L 65.311771 22.32 
L 65.446505 89.52 
L 65.581239 55.92 
L 65.98544 89.52 
L 65.98544 89.52 
L 66.120174 55.92 
L 66.120174 55.92 
L 66.187541 89.52 
L 66.659109 22.32 
L 66.659109 22.32 
L 68.747483 55.92 
L 68.882217 89.52 
L 69.151684 55.92 
L 69.151684 55.92 
L 69.690619 22.32 
L 69.690619 22.32 
L 70.162188 22.32 
L 70.296921 89.52 
L 70.566389 89.52 
L 70.633756 55.92 
L 70.835857 89.52 
L 71.105324 55.92 
L 73.126331 55.92 
L 73.126331 55.92 
L 73.395799 89.52 
L 73.530532 89.52 
L 73.530532 89.52 
L 73.867367 123.12 
L 73.867367 123.12 
L 74.002101 123.12 
L 74.136834 89.52 
L 74.271568 22.32 
L 74.743137 89.52 
L 74.810503 22.32 
L 74.810503 22.32 
L 75.214705 55.92 
L 75.484172 22.32 
L 77.976748 22.32 
L 78.246215 55.92 
L 78.380949 89.52 
L 78.852517 89.52 
L 79.121985 22.32 
L 79.121985 22.32 
L 81.61456 89.52 
L 81.884028 123.12 
L 81.884028 123.12 
L 82.086128 55.92 
L 82.086128 55.92 
L 82.288229 123.12 
L 82.288229 123.12 
L 82.69243 89.52 
L 82.69243 89.52 
L 82.894531 89.52 
L 82.894531 89.52 
L 85.656574 123.12 
L 85.926041 89.52 
L 85.926041 89.52 
L 86.060775 89.52 
L 86.060775 89.52 
L 86.195509 55.92 
L 86.330243 55.92 
L 86.330243 55.92 
L 86.734444 89.52 
L 86.936545 55.92 
L 86.936545 55.92 
L 89.496487 89.52 
L 89.833321 22.32 
L 89.833321 22.32 
L 90.035422 89.52 
L 90.035422 89.52 
L 90.170156 89.52 
L 90.170156 89.52 
L 90.372256 55.92 
L 90.372256 55.92 
L 90.574357 22.32 
L 90.574357 22.32 
L 93.201666 22.32 
L 93.673234 55.92 
L 93.673234 55.92 
L 93.740601 123.12 
L 93.740601 123.12 
L 94.077436 22.32 
L 94.077436 22.32 
L 94.21217 89.52 
L 94.21217 89.52 
L 94.549004 89.52 
L 94.683738 55.92 
L 94.683738 55.92 
L 96.839478 89.52 
L 97.176313 123.12 
L 97.445781 55.92 
L 97.580514 89.52 
L 97.580514 89.52 
L 97.849982 55.92 
L 97.849982 55.92 
L 97.984716 22.32 
L 97.984716 22.32 
L 98.456284 55.92 
L 98.591018 123.12 
L 98.591018 123.12 
L 98.793118 89.52 
L 100.409924 22.32 
L 101.218327 22.32 
L 101.487794 89.52 
L 101.487794 89.52 
L 101.891996 55.92 
L 101.891996 55.92 
L 102.161463 89.52 
L 102.161463 89.52 
L 102.498298 22.32 
L 102.498298 22.32 
L 102.767765 89.52 
L 102.767765 89.52 
L 103.239334 55.92 
L 103.980369 55.92 
L 104.317204 89.52 
L 104.654038 22.32 
L 104.654038 22.32 
L 104.856139 89.52 
L 104.856139 89.52 
L 105.529808 89.52 
L 105.529808 89.52 
L 105.731909 55.92 
L 105.731909 55.92 
L 106.001376 89.52 
L 106.540311 22.32 
L 106.540311 22.32 
L 106.742412 89.52 
L 106.742412 89.52 
L 107.281347 89.52 
L 107.820283 55.92 
L 107.955016 55.92 
L 108.157117 22.32 
L 108.157117 22.32 
L 108.561318 89.52 
L 108.561318 89.52 
L 108.696052 55.92 
L 108.696052 55.92 
L 108.96552 22.32 
L 109.100254 123.12 
L 109.369721 89.52 
L 109.504455 55.92 
L 109.504455 55.92 
L 109.773922 55.92 
L 109.841289 89.52 
L 110.582325 89.52 
L 110.582325 89.52 
L 110.784426 123.12 
L 110.784426 123.12 
L 110.986527 89.52 
L 110.986527 89.52 
L 111.12126 22.32 
L 111.12126 22.32 
L 111.188627 123.12 
L 111.188627 123.12 
L 111.727562 22.32 
L 112.401231 22.32 
L 112.401231 22.32 
L 112.670699 89.52 
L 113.0749 22.32 
L 113.0749 22.32 
L 113.209634 55.92 
L 114.489605 55.92 
L 114.489605 55.92 
L 114.691706 22.32 
L 114.691706 22.32 
L 114.82644 89.52 
L 114.82644 89.52 
L 114.961173 89.52 
L 114.961173 89.52 
L 115.230641 22.32 
L 115.432742 55.92 
L 115.432742 55.92 
L 115.500109 89.52 
L 116.241145 22.32 
L 116.241145 22.32 
L 116.443245 22.32 
L 116.443245 22.32 
L 117.116914 55.92 
L 118.396885 55.92 
L 118.396885 55.92 
L 118.464252 89.52 
L 118.73372 55.92 
L 118.73372 55.92 
L 118.868453 55.92 
L 118.868453 55.92 
L 118.93582 22.32 
L 118.93582 22.32 
L 119.474756 89.52 
L 120.081058 22.32 
L 120.081058 22.32 
L 120.215791 89.52 
L 120.754727 89.52 
L 120.822093 22.32 
L 120.822093 22.32 
L 121.158928 89.52 
L 121.697863 55.92 
L 121.697863 55.92 
L 121.76523 123.12 
L 121.76523 123.12 
L 121.967331 89.52 
L 121.967331 89.52 
L 123.584136 89.52 
L 123.584136 89.52 
L 123.853604 22.32 
L 123.853604 22.32 
L 123.920971 89.52 
L 123.988338 55.92 
L 124.055704 22.32 
L 124.055704 22.32 
L 124.190438 89.52 
L 124.190438 89.52 
L 124.392539 22.32 
L 124.392539 22.32 
L 124.527273 55.92 
L 124.527273 55.92 
" clip-path="url(#pabc7bc7656)" style="fill: none; stroke: #000000; stroke-width: 5; stroke-linecap: square"/>
   </g>
   <g id="patch_3">
    <path d="M 18 128.16 
L 18 17.28 
" style="fill: none; stroke: #000000; stroke-width: 0.8; stroke-linejoin: miter; stroke-linecap: square"/>
   </g>
   <g id="patch_4">
    <path d="M 129.6 128.16 
L 129.6 17.28 
" style="fill: none; stroke: #000000; stroke-width: 0.8; stroke-linejoin: miter; stroke-linecap: square"/>
   </g>
   <g id="patch_5">
    <path d="M 18 128.16 
L 129.6 128.16 
" style="fill: none; stroke: #000000; stroke-width: 0.8; stroke-linejoin: miter; stroke-linecap: square"/>
   </g>
   <g id="patch_6">
    <path d="M 18 17.28 
L 129.6 17.28 
" style="fill: none; stroke: #000000; stroke-width: 0.8; stroke-linejoin: miter; stroke-linecap: square"/>
   </g>
  </g>
 </g>
 <defs>
  <clipPath id="pabc7bc7656">
   <rect x="18" y="17.28" width="111.6" height="110.88"/>
  </clipPath>
 </defs>
</svg>
